<?xml version="1.0" encoding="UTF-8" standalone="no"?>
<!-- Created with Inkscape (http://www.inkscape.org/) -->

<svg
   width="210mm"
   height="297mm"
   viewBox="0 0 210 297"
   version="1.1"
   id="svg1"
   inkscape:version="1.4.2 (f4327f4, 2025-05-13)"
   sodipodi:docname="context_camion.svg"
   xmlns:inkscape="http://www.inkscape.org/namespaces/inkscape"
   xmlns:sodipodi="http://sodipodi.sourceforge.net/DTD/sodipodi-0.dtd"
   xmlns="http://www.w3.org/2000/svg"
   xmlns:svg="http://www.w3.org/2000/svg">
  <sodipodi:namedview
     id="namedview1"
     pagecolor="#ffffff"
     bordercolor="#000000"
     borderopacity="0.25"
     inkscape:showpageshadow="2"
     inkscape:pageopacity="0.0"
     inkscape:pagecheckerboard="0"
     inkscape:deskcolor="#d1d1d1"
     inkscape:document-units="mm"
     inkscape:zoom="1"
     inkscape:cx="385"
     inkscape:cy="261.5"
     inkscape:window-width="1920"
     inkscape:window-height="991"
     inkscape:window-x="-9"
     inkscape:window-y="-9"
     inkscape:window-maximized="1"
     inkscape:current-layer="layer1" />
  <defs
     id="defs1">
    <clipPath
       clipPathUnits="userSpaceOnUse"
       id="clipPath47">
      <path
         d="M 0,0 H 835.75397 V 314.03122 H 0 Z"
         transform="matrix(1,0,0,-1,-5.0833673e-6,314.03122)"
         id="path47" />
    </clipPath>
    <clipPath
       clipPathUnits="userSpaceOnUse"
       id="clipPath48">
      <path
         d="M 0,0 H 835.75397 V 314.03122 H 0 Z"
         transform="matrix(1,0,0,-1,-5.0833673e-6,314.03122)"
         id="path48" />
    </clipPath>
    <clipPath
       clipPathUnits="userSpaceOnUse"
       id="clipPath49">
      <path
         d="M 0,0 H 835.75397 V 314.03122 H 0 Z"
         transform="matrix(1,0,0,-1,-5.0833673e-6,314.03122)"
         id="path49" />
    </clipPath>
    <clipPath
       clipPathUnits="userSpaceOnUse"
       id="clipPath50">
      <path
         d="M 0,0 H 835.75397 V 314.03122 H 0 Z"
         transform="matrix(1,0,0,-1,-5.0833673e-6,314.03122)"
         id="path50" />
    </clipPath>
    <clipPath
       clipPathUnits="userSpaceOnUse"
       id="clipPath51">
      <path
         d="M 0,0 H 835.75397 V 314.03122 H 0 Z"
         transform="matrix(1,0,0,-1,-5.0833673e-6,314.03122)"
         id="path51" />
    </clipPath>
    <clipPath
       clipPathUnits="userSpaceOnUse"
       id="clipPath52">
      <path
         d="M 0,0 H 835.75397 V 314.03122 H 0 Z"
         transform="matrix(1,0,0,-1,-5.0833673e-6,314.03122)"
         id="path52" />
    </clipPath>
    <clipPath
       clipPathUnits="userSpaceOnUse"
       id="clipPath53">
      <path
         d="M 0,0 H 835.75397 V 314.03122 H 0 Z"
         transform="matrix(1,0,0,-1,-5.0833673e-6,314.03122)"
         id="path53" />
    </clipPath>
    <clipPath
       clipPathUnits="userSpaceOnUse"
       id="clipPath54">
      <path
         d="M 0,0 H 835.75397 V 314.03122 H 0 Z"
         transform="matrix(1,0,0,-1,-5.0833673e-6,314.03122)"
         id="path54" />
    </clipPath>
    <clipPath
       clipPathUnits="userSpaceOnUse"
       id="clipPath55">
      <path
         d="M 0,0 H 835.75397 V 314.03122 H 0 Z"
         transform="matrix(1,0,0,-1,-5.0833673e-6,314.03122)"
         id="path55" />
    </clipPath>
    <clipPath
       clipPathUnits="userSpaceOnUse"
       id="clipPath56">
      <path
         d="M 0,0 H 835.75397 V 314.03122 H 0 Z"
         transform="matrix(1,0,0,-1,-5.0833673e-6,314.03122)"
         id="path56" />
    </clipPath>
    <clipPath
       clipPathUnits="userSpaceOnUse"
       id="clipPath57">
      <path
         d="M 0,0 H 835.75397 V 314.03122 H 0 Z"
         transform="matrix(1,0,0,-1,-5.0833673e-6,314.03122)"
         id="path57" />
    </clipPath>
    <clipPath
       clipPathUnits="userSpaceOnUse"
       id="clipPath58">
      <path
         d="M 0,0 H 835.75397 V 314.03122 H 0 Z"
         transform="matrix(1,0,0,-1,-5.0833673e-6,314.03122)"
         id="path58" />
    </clipPath>
    <clipPath
       clipPathUnits="userSpaceOnUse"
       id="clipPath59">
      <path
         d="M 0,0 H 835.75397 V 314.03122 H 0 Z"
         transform="matrix(1,0,0,-1,-5.0833673e-6,314.03122)"
         id="path59" />
    </clipPath>
    <clipPath
       clipPathUnits="userSpaceOnUse"
       id="clipPath60">
      <path
         d="M 0,0 H 835.75397 V 314.03122 H 0 Z"
         transform="matrix(1,0,0,-1,-5.0833673e-6,314.03122)"
         id="path60" />
    </clipPath>
    <clipPath
       clipPathUnits="userSpaceOnUse"
       id="clipPath61">
      <path
         d="M 0,0 H 835.75397 V 314.03122 H 0 Z"
         transform="matrix(1,0,0,-1,-5.0833673e-6,314.03122)"
         id="path61" />
    </clipPath>
    <clipPath
       clipPathUnits="userSpaceOnUse"
       id="clipPath62">
      <path
         d="M 0,0 H 835.75397 V 314.03122 H 0 Z"
         transform="matrix(0.99700259,-0.05466655,-0.05466655,-0.99700259,17.166999,313.08994)"
         id="path62" />
    </clipPath>
    <clipPath
       clipPathUnits="userSpaceOnUse"
       id="clipPath67">
      <path
         d="M 0,0 H 835.75397 V 314.03122 H 0 Z"
         transform="matrix(0.65573333,0,0,-0.65573333,123.31867,769.64)"
         id="path67" />
    </clipPath>
    <mask
       maskUnits="userSpaceOnUse"
       x="0"
       y="0"
       width="1"
       height="1"
       id="mask62">
      <path
         id="path63"
         d="m 196,115.03122 h 69 v 58 h -69 z"
         style="fill:#000000;fill-opacity:0.312;fill-rule:nonzero;stroke:none"
         transform="matrix(0.65573333,0,0,-0.65573333,123.31867,769.64)"
         clip-path="url(#clipPath64)" />
    </mask>
    <clipPath
       clipPathUnits="userSpaceOnUse"
       id="clipPath64">
      <path
         d="m 196,115.03122 h 69 v 58 h -69 z"
         transform="translate(-5.0833673e-6)"
         id="path64" />
    </clipPath>
    <clipPath
       clipPathUnits="userSpaceOnUse"
       id="clipPath66">
      <path
         d="m 196,115.03122 h 69 v 58 h -69 z"
         transform="matrix(0.65573333,0,0,-0.65573333,123.31867,769.64)"
         id="path66" />
    </clipPath>
    <clipPath
       clipPathUnits="userSpaceOnUse"
       id="clipPath65">
      <path
         d="m 196,116 h 69 v 58 h -69 z"
         transform="matrix(1,0,0,-1,-5.0833673e-6,315)"
         id="path65" />
    </clipPath>
    <clipPath
       clipPathUnits="userSpaceOnUse"
       id="clipPath72">
      <path
         d="M 0,0 H 835.75397 V 314.03122 H 0 Z"
         transform="matrix(0.65573333,0,0,-0.65573333,123.31867,769.64)"
         id="path72" />
    </clipPath>
    <mask
       maskUnits="userSpaceOnUse"
       x="0"
       y="0"
       width="1"
       height="1"
       id="mask67">
      <path
         id="path68"
         d="m 197,137.03122 h 46 v 25 h -46 z"
         style="fill:#000000;fill-opacity:0.257;fill-rule:nonzero;stroke:none"
         transform="matrix(0.65573333,0,0,-0.65573333,123.31867,769.64)"
         clip-path="url(#clipPath69)" />
    </mask>
    <clipPath
       clipPathUnits="userSpaceOnUse"
       id="clipPath69">
      <path
         d="m 197,137.03122 h 46 v 25 h -46 z"
         transform="translate(-5.0833673e-6)"
         id="path69" />
    </clipPath>
    <clipPath
       clipPathUnits="userSpaceOnUse"
       id="clipPath71">
      <path
         d="m 197,137.03122 h 46 v 25 h -46 z"
         transform="matrix(0.65573333,0,0,-0.65573333,123.31867,769.64)"
         id="path71" />
    </clipPath>
    <clipPath
       clipPathUnits="userSpaceOnUse"
       id="clipPath70">
      <path
         d="m 197,138 h 46 v 25 h -46 z"
         transform="matrix(1,0,0,-1,-5.0833673e-6,315)"
         id="path70" />
    </clipPath>
  </defs>
  <g
     inkscape:label="Layer 1"
     inkscape:groupmode="layer"
     id="layer1">
    <path
       d="m 305.996,192.574 c 0,3.02 -0.832,5.465 -1.851,5.465 -1.024,0 -1.852,-2.445 -1.852,-5.465 0,-3.015 0.828,-5.461 1.852,-5.461 1.019,0 1.851,2.446 1.851,5.461 z"
       style="fill:none;stroke:#000000;stroke-width:0.641884;stroke-linecap:butt;stroke-linejoin:miter;stroke-miterlimit:4;stroke-dasharray:none;stroke-opacity:1"
       transform="matrix(1.4281236,0,0,1.4281236,-259.76363,-189.09703)"
       clip-path="url(#clipPath48)"
       id="path279" />
    <path
       style="fill:#137f6d;fill-opacity:0.487138;stroke:#137f6d;stroke-width:0.7;stroke-linecap:butt;stroke-linejoin:round;stroke-dasharray:none;stroke-dashoffset:0;stroke-opacity:1"
       d="m 116.15632,80.341707 c 0,0 4.23387,-1.063522 8.71167,-2.961977 1.87481,-0.794863 3.81272,-1.725003 5.51918,-2.685271 1.69226,-0.95227 3.15636,-1.934923 4.23341,-2.665488 1.7352,-1.176986 3.71258,-2.873319 5.38931,-4.613061 0.62721,-0.65078 1.19585,-1.313525 1.71758,-1.953015 0.15126,-0.185399 0.29609,-0.369034 0.44034,-0.549621 1.67465,-2.096579 2.53166,-3.932396 2.53166,-3.932396 0,0 5.33978,-4.036043 9.00592,-4.704857 3.66614,-0.668814 8.82798,3.922947 13.12321,3.139369 4.16921,-0.76059 8.7353,-5.622222 12.90452,-6.382812 2.24805,-0.410111 6.21498,0.423311 6.21498,0.423311 0,0 -0.37967,2.224397 -1.43324,4.788181 -0.96684,2.352727 -2.56207,4.980982 -3.64606,6.658922 -2.48908,3.852907 -9.17201,10.258541 -9.17201,10.258541"
       id="path16"
       sodipodi:nodetypes="cssssssccsscssc" />
    <path
       d="m 304.887,200.082 c 3.777,-3.84 2.078,-14.059 -0.137,-14.59 l -6,-0.344 c 0,0 -4.637,6.821 -0.34,14.524 z"
       style="fill:none;stroke:#000000;stroke-width:0.57633;stroke-linecap:butt;stroke-linejoin:round;stroke-miterlimit:4;stroke-dasharray:none;stroke-opacity:1"
       transform="matrix(1.4281236,0,0,1.4281236,-259.76363,-189.09703)"
       clip-path="url(#clipPath49)"
       id="path280" />
    <path
       d="m 281.922,205.641 c 4.141,-4.211 2.277,-15.418 -0.149,-16.004 l -5.56,-0.42544 c 0,0 -6.108,7.53044 -1.397,15.97944 z"
       style="fill:none;stroke:#000000;stroke-width:0.659598;stroke-linecap:butt;stroke-linejoin:miter;stroke-miterlimit:4;stroke-dasharray:none;stroke-opacity:1"
       transform="matrix(1.4281236,0,0,1.4281236,-259.76363,-189.09703)"
       clip-path="url(#clipPath50)"
       id="path281"
       sodipodi:nodetypes="ccccc" />
    <path
       d="m 283.691,197.691 c 0,3.715 -1.421,6.723 -3.171,6.723 -1.754,0 -3.176,-3.008 -3.176,-6.723 0,-3.714 1.422,-6.726 3.176,-6.726 1.75,0 3.171,3.012 3.171,6.726 z"
       style="fill:none;stroke:#000000;stroke-width:0.469246;stroke-linecap:butt;stroke-linejoin:miter;stroke-miterlimit:4;stroke-dasharray:none;stroke-opacity:1"
       transform="matrix(1.4281236,0,0,1.4281236,-259.76363,-189.09703)"
       clip-path="url(#clipPath51)"
       id="path282" />
    <path
       d="m 262.293,192.617 16.918,-4.406 c -3.059,6.184 -5.234,12.238 -3.172,16.562 l -13.746,7.754"
       style="fill:#ffffff;fill-opacity:1;fill-rule:evenodd;stroke:#000000;stroke-width:0.583531;stroke-linecap:butt;stroke-linejoin:round;stroke-miterlimit:4;stroke-dasharray:none;stroke-opacity:1"
       transform="matrix(1.4281236,0,0,1.4281236,-259.76363,-189.09703)"
       clip-path="url(#clipPath52)"
       id="path283" />
    <path
       d="m 259.305,218.211 c 5.668,-5.762 3.117,-21.094 -0.203,-21.895 l -9.004,-0.511 c 0,0 -6.957,10.23 -0.512,21.789 z"
       style="fill:none;stroke:#000000;stroke-width:0.583531;stroke-linecap:butt;stroke-linejoin:round;stroke-miterlimit:4;stroke-dasharray:none;stroke-opacity:1"
       transform="matrix(1.4281236,0,0,1.4281236,-259.76363,-189.09703)"
       clip-path="url(#clipPath53)"
       id="path284" />
    <path
       d="m 199.824,196.934 -2.91,2.113 0.531,13.746 47.578,3.613 6.43,-1.937 c 0,0 -0.66,-21.324 7.578,-19.121 l 3.215,-0.266 -0.0488,-4.7392"
       style="fill:#ffffff;fill-opacity:1;fill-rule:evenodd;stroke:#000000;stroke-width:0.583283;stroke-linecap:butt;stroke-linejoin:round;stroke-miterlimit:4;stroke-dasharray:none;stroke-opacity:1"
       transform="matrix(1.4281236,0,0,1.4281236,-259.76363,-189.09703)"
       clip-path="url(#clipPath54)"
       id="path285"
       sodipodi:nodetypes="cccccccc" />
    <path
       d="M 252.74405,143.20789 300.531,150.324 c 0,0 25.551,12.864 1.586,34.715 l -39.35353,3.74862"
       style="fill:none;stroke:#000000;stroke-width:0.583531;stroke-linecap:butt;stroke-linejoin:miter;stroke-miterlimit:4;stroke-dasharray:none;stroke-opacity:1"
       transform="matrix(1.4281236,0,0,1.4281236,-259.76363,-189.09703)"
       clip-path="url(#clipPath55)"
       id="path286"
       sodipodi:nodetypes="cccc" />
    <path
       d="m 261.73,207.332 c 0,5.082 -1.945,9.199 -4.343,9.199 -2.399,0 -4.344,-4.117 -4.344,-9.199 0,-5.082 1.945,-9.203 4.344,-9.203 2.398,0 4.343,4.121 4.343,9.203 z"
       style="fill:none;stroke:#000000;stroke-width:0.641884;stroke-linecap:butt;stroke-linejoin:miter;stroke-miterlimit:4;stroke-dasharray:none;stroke-opacity:1"
       transform="matrix(1.4281236,0,0,1.4281236,-259.76363,-189.09703)"
       clip-path="url(#clipPath56)"
       id="path287" />
    <path
       d="m 261.996,194.996 c 0,0 1.621,-0.125 2.117,3.113 0.5,3.243 -1.35214,14.26363 -1.35214,14.26363"
       style="fill:none;stroke:#000000;stroke-width:0.583531;stroke-linecap:butt;stroke-linejoin:miter;stroke-miterlimit:4;stroke-dasharray:none;stroke-opacity:1"
       transform="matrix(1.4281236,0,0,1.4281236,-259.76363,-189.09703)"
       clip-path="url(#clipPath57)"
       id="path288"
       sodipodi:nodetypes="ccc" />
    <path
       d="m 279.211,188.211 -9.55937,-0.0941"
       style="fill:none;stroke:#000000;stroke-width:0.583531;stroke-linecap:butt;stroke-linejoin:miter;stroke-miterlimit:4;stroke-dasharray:none;stroke-opacity:1"
       transform="matrix(1.4281236,0,0,1.4281236,-259.76363,-189.09703)"
       clip-path="url(#clipPath58)"
       id="path289"
       sodipodi:nodetypes="cc" />
    <path
       d="m 298.105,200.563 c 3.774,-3.84 2.075,-14.059 -0.136,-14.59 l -6,-0.344 c 0,0 -4.637,6.82 -0.344,14.527 z"
       style="fill:#ffffff;fill-opacity:1;fill-rule:evenodd;stroke:#000000;stroke-width:0.57633;stroke-linecap:butt;stroke-linejoin:round;stroke-miterlimit:4;stroke-dasharray:none;stroke-opacity:1"
       transform="matrix(1.4281236,0,0,1.4281236,-259.76363,-189.09703)"
       clip-path="url(#clipPath59)"
       id="path290" />
    <path
       d="m 298.945,192.969 c 0,3.015 -0.828,5.461 -1.851,5.461 -1.02,0 -1.848,-2.446 -1.848,-5.461 0,-3.016 0.828,-5.465 1.848,-5.465 1.023,0 1.851,2.449 1.851,5.465 z"
       style="fill:none;stroke:#000000;stroke-width:0.641884;stroke-linecap:butt;stroke-linejoin:miter;stroke-miterlimit:4;stroke-dasharray:none;stroke-opacity:1"
       transform="matrix(1.4281236,0,0,1.4281236,-259.76363,-189.09703)"
       clip-path="url(#clipPath60)"
       id="path291" />
    <path
       d="m 283.21295,175.10943 c -0.47943,0.93657 -0.24396,0.44996 -0.24396,0.44996 l 0.11086,-0.2006 c 0,0 -0.23745,0.43225 -0.32503,0.57177 -0.12829,0.20437 -0.26616,0.44181 -0.42845,0.68748 -0.52802,0.79928 -1.24053,1.72267 -1.80293,2.35247 -2.74001,3.0684 -6.30628,5.42599 -10.33959,7.24893 -2.19081,0.99018 -4.52496,1.79576 -6.95737,2.44682 -5.23333,1.40076 -10.9201,2.03612 -16.60298,1.90274 -4.49321,-0.10546 -8.95995,-0.64281 -13.21546,-1.64108 -3.92457,-0.92063 -7.67183,-2.23844 -11.04078,-3.85307 -3.10799,-1.48956 -5.89993,-3.29391 -8.26284,-5.29975 -0.93844,-0.79662 -1.80837,-1.65597 -2.60851,-2.52053 -1.1672,-1.26117 -2.12153,-2.59169 -2.92728,-4.00108 -0.68317,-1.19501 -1.22529,-2.45121 -1.60887,-3.766 -0.25104,-0.86049 -0.44306,-1.74356 -0.53134,-2.65975 0,0 19.16958,-2.17574 25.64158,0.81726 18.594,10.57 38.12395,-1.76657 51.14295,7.46443 z"
       style="fill:#137f6d;fill-opacity:0.490196;fill-rule:evenodd;stroke:#137f6d;stroke-width:0.490154;stroke-linecap:butt;stroke-linejoin:miter;stroke-miterlimit:4;stroke-dasharray:none;stroke-opacity:1"
       transform="matrix(1.4281236,0,0,1.4281236,-259.76363,-189.09703)"
       clip-path="url(#clipPath61)"
       id="path292"
       sodipodi:nodetypes="cssssssssssssssccc" />
    <path
       d="m 293.377,152.629 c 8.3e-4,5.46363 -2.98821,10.54425 -8.0537,14.57198 -7.18561,5.7135 -18.5291,9.35361 -31.2673,9.35302 -20.38115,0 -37.13775,-9.43208 -39.12643,-21.51105 -0.13054,-0.79289 -0.19745,-1.59717 -0.19757,-2.41095 -0.002,-13.214 17.606,-23.926 39.321,-23.925 21.719,0 39.326,10.711 39.324,23.922 z"
       style="fill:none;stroke:#000000;stroke-width:0.573333;stroke-linecap:butt;stroke-linejoin:miter;stroke-miterlimit:4;stroke-dasharray:none;stroke-opacity:1"
       transform="matrix(1.4281236,0.07830533,-0.07830533,1.4281236,-259.76363,-189.09703)"
       clip-path="url(#clipPath62)"
       id="path293"
       sodipodi:nodetypes="cscsscc" />
    <g
       opacity="1"
       mask="url(#mask62)"
       clip-path="url(#clipPath67)"
       id="g295"
       transform="matrix(2.1779031,0,0,2.1779031,-528.3397,-1416.8229)">
      <g
         clip-path="url(#clipPath66)"
         id="g294">
        <path
           d="m 201.496,154.023 18.856,-4.23 c 0,0 -0.086,-2.992 3.964,-3.609 l 25.465,-4.055 11.543,-0.176 3.082,47.668 -2.41,0.641 -6.976,-0.5 c 0,0 -5.297,-0.25 -5.297,7.289 l -4.735,1.183 c 0,0 -35.949,0.75 -47.722,-1.804 0,0 -2.813,-31.789 4.23,-42.407 z"
           style="fill:none;stroke:#000000;stroke-width:0.583531;stroke-linecap:butt;stroke-linejoin:miter;stroke-miterlimit:4;stroke-dasharray:none;stroke-opacity:1"
           transform="matrix(0.65573333,0,0,0.65573333,123.31867,563.71926)"
           clip-path="url(#clipPath65)"
           id="path294" />
      </g>
    </g>
    <g
       opacity="1"
       mask="url(#mask67)"
       clip-path="url(#clipPath72)"
       id="g297"
       transform="matrix(2.1779031,0,0,2.1779031,-528.3397,-1416.8229)">
      <g
         clip-path="url(#clipPath71)"
         id="g296">
        <path
           d="m 199.91,157.285 42.469,-5.023 -0.879,20.351 c 0,0 -0.973,1.852 -2.379,1.852 0,0 -36.301,1.234 -40.883,1.851 0,0 -1.5,-7.753 1.672,-19.031 z"
           style="fill:none;stroke:#000000;stroke-width:0.350119;stroke-linecap:butt;stroke-linejoin:miter;stroke-miterlimit:4;stroke-dasharray:none;stroke-opacity:1"
           transform="matrix(0.65573333,0,0,0.65573333,123.31867,563.71926)"
           clip-path="url(#clipPath70)"
           id="path295" />
      </g>
    </g>
    <path
       style="fill:none;stroke:#000000;stroke-width:0.833;stroke-linejoin:round;stroke-dasharray:none;stroke-opacity:1"
       d="M 25.56325,92.18282 53.914304,73.162744"
       id="path1"
       sodipodi:nodetypes="cc" />
    <path
       style="fill:none;stroke:#000000;stroke-width:0.833001;stroke-linejoin:round;stroke-dasharray:none;stroke-opacity:1"
       d="M 21.4539,95.166687 68.167757,79.255825"
       id="path2" />
    <path
       style="fill:none;stroke:#000000;stroke-width:0.833001;stroke-linejoin:round;stroke-dasharray:none;stroke-opacity:1"
       d="M 21.4539,95.166687 90.159498,98.26165"
       id="path3" />
    <path
       style="fill:none;stroke:#000000;stroke-width:0.833001;stroke-linejoin:round;stroke-dasharray:none;stroke-opacity:1"
       d="M 89.917269,98.324778 119.43116,79.47799"
       id="path4"
       sodipodi:nodetypes="cc" />
    <path
       style="fill:none;stroke:#000000;stroke-width:0.833001;stroke-linejoin:round;stroke-dasharray:none;stroke-opacity:1"
       d="m 159.26516,24.162272 c 20.42528,16.950149 16.99188,34.580008 0.98406,52.08456"
       id="path5"
       sodipodi:nodetypes="cc" />
    <path
       style="fill:none;stroke:#000000;stroke-width:0.833001;stroke-linecap:butt;stroke-linejoin:round;stroke-dasharray:none;stroke-opacity:1"
       d="m 143.18637,21.675933 c 20.42528,16.950149 25.72431,38.913773 1.62916,56.034108"
       id="path5-5"
       sodipodi:nodetypes="cc" />
    <ellipse
       style="fill:none;stroke:#000000;stroke-width:0.918987;stroke-linecap:butt;stroke-linejoin:round;stroke-dasharray:0.918987, 0.918987;stroke-dashoffset:0;stroke-opacity:1"
       id="path8"
       cx="91.110886"
       cy="49.843987"
       rx="26.395157"
       ry="18.02055" />
    <path
       style="fill:none;stroke:#000000;stroke-width:0.833001;stroke-linecap:butt;stroke-linejoin:round;stroke-dasharray:0.833001, 0.833001;stroke-dashoffset:0;stroke-opacity:1"
       d="M 75.585145,35.270543 60.256021,19.078098"
       id="path12"
       sodipodi:nodetypes="cc" />
    <path
       style="fill:none;stroke:#000000;stroke-width:0.833001;stroke-linecap:butt;stroke-linejoin:round;stroke-dasharray:none;stroke-dashoffset:0;stroke-opacity:1"
       d="m 89.917269,98.324777 0.242229,21.632703"
       id="path13" />
    <path
       style="fill:none;fill-opacity:0.490196;stroke:#000000;stroke-width:0.833;stroke-linecap:butt;stroke-linejoin:round;stroke-dasharray:none;stroke-dashoffset:0;stroke-opacity:1"
       d="m 150.12045,77.216785 1.56169,18.712928 4.16192,-0.914241"
       id="path14" />
  </g>
</svg>
