<?xml version="1.0" encoding="UTF-8" standalone="no"?>
<!-- Created with Inkscape (http://www.inkscape.org/) -->

<svg
   width="210mm"
   height="297mm"
   viewBox="0 0 210 297"
   version="1.1"
   id="svg1"
   inkscape:version="1.4.3 (1:1.4.3+202512261035+0d15f75042)"
   sodipodi:docname="tank_2d.svg"
   xmlns:inkscape="http://www.inkscape.org/namespaces/inkscape"
   xmlns:sodipodi="http://sodipodi.sourceforge.net/DTD/sodipodi-0.dtd"
   xmlns:xlink="http://www.w3.org/1999/xlink"
   xmlns="http://www.w3.org/2000/svg"
   xmlns:svg="http://www.w3.org/2000/svg"
   xmlns:ns4="http://www.iki.fi/pav/software/textext/">
  <sodipodi:namedview
     id="namedview1"
     pagecolor="#ffffff"
     bordercolor="#000000"
     borderopacity="0.25"
     inkscape:showpageshadow="2"
     inkscape:pageopacity="0.0"
     inkscape:pagecheckerboard="0"
     inkscape:deskcolor="#d1d1d1"
     inkscape:document-units="mm"
     inkscape:zoom="1.3772587"
     inkscape:cx="328.5512"
     inkscape:cy="446.90224"
     inkscape:window-width="1854"
     inkscape:window-height="1011"
     inkscape:window-x="66"
     inkscape:window-y="32"
     inkscape:window-maximized="1"
     inkscape:current-layer="layer1" />
  <defs
     id="defs1">
    <marker
       style="overflow:visible"
       id="marker40"
       refX="0"
       refY="0"
       orient="auto-start-reverse"
       inkscape:stockid="Wide arrow"
       markerWidth="1"
       markerHeight="1"
       viewBox="0 0 1 1"
       inkscape:isstock="true"
       inkscape:collect="always"
       preserveAspectRatio="xMidYMid">
      <path
         style="fill:none;stroke:context-stroke;stroke-width:1;stroke-linecap:butt"
         d="M 3,-3 0,0 3,3"
         transform="rotate(180,0.125,0)"
         sodipodi:nodetypes="ccc"
         id="path40" />
    </marker>
    <marker
       style="overflow:visible"
       id="marker40-7"
       refX="0"
       refY="0"
       orient="auto-start-reverse"
       inkscape:stockid="Wide arrow"
       markerWidth="1"
       markerHeight="1"
       viewBox="0 0 1 1"
       inkscape:isstock="true"
       inkscape:collect="always"
       preserveAspectRatio="xMidYMid">
      <path
         style="fill:none;stroke:context-stroke;stroke-width:1;stroke-linecap:butt"
         d="M 3,-3 0,0 3,3"
         transform="rotate(180,0.125,0)"
         sodipodi:nodetypes="ccc"
         id="path40-5" />
    </marker>
    <pattern
       inkscape:collect="always"
       xlink:href="#Strips1_5"
       preserveAspectRatio="xMidYMid"
       id="pattern33"
       patternTransform="matrix(0.51961524,-0.3,0.3,0.51961524,0.75119652,35.725676)"
       x="0"
       y="0" />
    <pattern
       inkscape:collect="always"
       patternUnits="userSpaceOnUse"
       width="6"
       height="1"
       patternTransform="translate(0,0) scale(2,2)"
       preserveAspectRatio="xMidYMid"
       id="Strips1_5"
       style="fill:#67a3d7"
       inkscape:stockid="Stripes 06 (1:5)"
       inkscape:isstock="true"
       inkscape:label="Stripes 06 (1:5)">
      <rect
         style="stroke:none"
         x="0"
         y="-0.5"
         width="1"
         height="2"
         id="rect164" />
    </pattern>
    <marker
       style="overflow:visible"
       id="ArrowWide"
       refX="0"
       refY="0"
       orient="auto-start-reverse"
       inkscape:stockid="Wide arrow"
       markerWidth="1"
       markerHeight="1"
       viewBox="0 0 1 1"
       inkscape:isstock="true"
       inkscape:collect="always"
       preserveAspectRatio="xMidYMid">
      <path
         style="fill:none;stroke:context-stroke;stroke-width:1;stroke-linecap:butt"
         d="M 3,-3 0,0 3,3"
         transform="rotate(180,0.125,0)"
         sodipodi:nodetypes="ccc"
         id="path19" />
    </marker>
    <marker
       style="overflow:visible"
       id="marker5"
       refX="0"
       refY="0"
       orient="auto-start-reverse"
       inkscape:stockid="Wide arrow"
       markerWidth="1"
       markerHeight="1"
       viewBox="0 0 1 1"
       inkscape:isstock="true"
       inkscape:collect="always"
       preserveAspectRatio="xMidYMid">
      <path
         style="fill:none;stroke:context-stroke;stroke-width:1;stroke-linecap:butt"
         d="M 3,-3 0,0 3,3"
         transform="rotate(180,0.125,0)"
         sodipodi:nodetypes="ccc"
         id="path5" />
    </marker>
    <marker
       style="overflow:visible"
       id="marker21"
       refX="0"
       refY="0"
       orient="auto-start-reverse"
       inkscape:stockid="Wide arrow"
       markerWidth="1"
       markerHeight="1"
       viewBox="0 0 1 1"
       inkscape:isstock="true"
       inkscape:collect="always"
       preserveAspectRatio="xMidYMid">
      <path
         style="fill:none;stroke:context-stroke;stroke-width:1;stroke-linecap:butt"
         d="M 3,-3 0,0 3,3"
         transform="rotate(180,0.125,0)"
         sodipodi:nodetypes="ccc"
         id="path21" />
    </marker>
    <marker
       style="overflow:visible"
       id="marker26-7"
       refX="0"
       refY="0"
       orient="auto-start-reverse"
       inkscape:stockid="Wide arrow"
       markerWidth="1"
       markerHeight="1"
       viewBox="0 0 1 1"
       inkscape:isstock="true"
       inkscape:collect="always"
       preserveAspectRatio="xMidYMid">
      <path
         style="fill:none;stroke:context-stroke;stroke-width:1;stroke-linecap:butt"
         d="M 3,-3 0,0 3,3"
         transform="rotate(180,0.125,0)"
         sodipodi:nodetypes="ccc"
         id="path26-3" />
    </marker>
    <marker
       style="overflow:visible"
       id="marker26-7-1"
       refX="0"
       refY="0"
       orient="auto-start-reverse"
       inkscape:stockid="Wide arrow"
       markerWidth="1"
       markerHeight="1"
       viewBox="0 0 1 1"
       inkscape:isstock="true"
       inkscape:collect="always"
       preserveAspectRatio="xMidYMid">
      <path
         style="fill:none;stroke:context-stroke;stroke-width:1;stroke-linecap:butt"
         d="M 3,-3 0,0 3,3"
         transform="rotate(180,0.125,0)"
         sodipodi:nodetypes="ccc"
         id="path26-3-9" />
    </marker>
    <g
       id="g9016">
      <g
         id="g27">
        <path
           d="M 3.328125,-3.015625 C 3.390625,-3.265625 3.625,-4.1875 4.3125,-4.1875 c 0.046875,0 0.296875,0 0.5,0.125 C 4.53125,-4 4.34375,-3.765625 4.34375,-3.515625 c 0,0.15625 0.109375,0.34375 0.375,0.34375 0.21875,0 0.53125,-0.171875 0.53125,-0.578125 0,-0.515625 -0.578125,-0.65625 -0.921875,-0.65625 -0.578125,0 -0.921875,0.53125 -1.046875,0.75 -0.25,-0.65625 -0.78125,-0.75 -1.078125,-0.75 -1.03125,0 -1.609375,1.28125 -1.609375,1.53125 0,0.109375 0.109375,0.109375 0.125,0.109375 0.078125,0 0.109375,-0.03125 0.125,-0.109375 0.34375,-1.0625 1,-1.3125 1.34375,-1.3125 0.1875,0 0.53125,0.09375 0.53125,0.671875 0,0.3125 -0.171875,0.96875 -0.53125,2.375 -0.15625,0.609375 -0.515625,1.03125 -0.953125,1.03125 -0.0625,0 -0.28125,0 -0.5,-0.125 0.25,-0.0625 0.46875,-0.265625 0.46875,-0.546875 0,-0.265625 -0.21875,-0.34375 -0.359375,-0.34375 -0.3125,0 -0.546875,0.25 -0.546875,0.578125 0,0.453125 0.484375,0.65625 0.921875,0.65625 0.671875,0 1.03125,-0.703125 1.046875,-0.75 0.125,0.359375 0.484375,0.75 1.078125,0.75 1.03125,0 1.59375,-1.28125 1.59375,-1.53125 0,-0.109375 -0.078125,-0.109375 -0.109375,-0.109375 -0.09375,0 -0.109375,0.046875 -0.140625,0.109375 -0.328125,1.078125 -1,1.3125 -1.3125,1.3125 -0.390625,0 -0.546875,-0.3125 -0.546875,-0.65625 0,-0.21875 0.046875,-0.4375 0.15625,-0.875 z m 0,0"
           id="path2749" />
      </g>
      <g
         id="g4985">
        <path
           d="M 1.390625,-4.84375 0.34375,-4.765625 v 0.25 c 0.46875,0 0.515625,0.0625 0.515625,0.40625 V 0 H 1.09375 l 0.25,-0.421875 C 1.609375,-0.078125 2,0.0625 2.359375,0.0625 3.28125,0.0625 4.0625,-0.625 4.0625,-1.5 c 0,-0.859375 -0.703125,-1.578125 -1.625,-1.578125 -0.421875,0 -0.796875,0.171875 -1.046875,0.421875 z m 0.03125,2.515625 C 1.609375,-2.65625 1.984375,-2.875 2.40625,-2.875 c 0.390625,0 0.671875,0.21875 0.8125,0.421875 0.140625,0.203125 0.21875,0.484375 0.21875,0.9375 0,0.15625 0,0.6875 -0.28125,1.015625 -0.28125,0.3125 -0.625,0.375 -0.828125,0.375 -0.5625,0 -0.84375,-0.4375 -0.90625,-0.578125 z m 0,0"
           id="path1781" />
      </g>
      <g
         id="g9497">
        <path
           d="m 3.109375,-1.875 c 0,-0.359375 0,-0.625 -0.328125,-0.890625 C 2.5,-3 2.171875,-3.109375 1.75,-3.109375 c -0.65625,0 -1.125,0.25 -1.125,0.671875 0,0.234375 0.15625,0.34375 0.34375,0.34375 0.1875,0 0.328125,-0.140625 0.328125,-0.328125 0,-0.109375 -0.0625,-0.265625 -0.25,-0.3125 0.25,-0.171875 0.65625,-0.171875 0.6875,-0.171875 0.390625,0 0.828125,0.25 0.828125,0.84375 v 0.203125 C 2.171875,-1.84375 1.71875,-1.8125 1.203125,-1.625 c -0.625,0.21875 -0.8125,0.609375 -0.8125,0.921875 0,0.59375 0.71875,0.765625 1.21875,0.765625 0.546875,0 0.875,-0.3125 1.03125,-0.578125 0.015625,0.28125 0.203125,0.546875 0.53125,0.546875 0.015625,0 0.6875,0 0.6875,-0.65625 V -1.015625 H 3.625 v 0.375 c 0,0.078125 0,0.40625 -0.265625,0.40625 -0.25,0 -0.25,-0.328125 -0.25,-0.40625 z M 2.5625,-0.984375 c 0,0.671875 -0.59375,0.859375 -0.90625,0.859375 -0.359375,0 -0.6875,-0.234375 -0.6875,-0.578125 0,-0.390625 0.328125,-0.921875 1.59375,-0.96875 z m 0,0"
           id="path1435" />
      </g>
      <g
         id="g374">
        <path
           d="m 5.890625,-4.84375 c -0.0625,0.015625 -0.265625,0.046875 -0.28125,0.046875 -0.015625,0 -0.03125,0 -0.0625,-0.015625 -0.25,-0.09375 -0.5625,-0.09375 -0.6875,-0.09375 -0.6875,0 -1.109375,0.203125 -1.3125,0.375 -0.1875,-0.28125 -0.53125,-0.375 -0.96875,-0.375 -0.75,0 -1.71875,0.34375 -1.71875,1.140625 V -3 h -0.59375 v 0.25 h 0.59375 v 2.203125 C 0.859375,-0.25 0.796875,-0.25 0.34375,-0.25 V 0 c 0.015625,0 0.5,-0.03125 0.78125,-0.03125 0.265625,0 0.515625,0.015625 0.78125,0.03125 v -0.25 c -0.453125,0 -0.515625,0 -0.515625,-0.296875 V -2.75 h 1.71875 v 2.203125 C 3.109375,-0.25 3.046875,-0.25 2.59375,-0.25 V 0 c 0.015625,0 0.5,-0.03125 0.78125,-0.03125 0.265625,0 0.515625,0.015625 0.78125,0.03125 v -0.25 c -0.453125,0 -0.515625,0 -0.515625,-0.296875 V -2.75 h 1.71875 v 2.203125 C 5.359375,-0.25 5.296875,-0.25 4.84375,-0.25 V 0 c 0.015625,0 0.5,-0.03125 0.78125,-0.03125 0.265625,0 0.515625,0.015625 0.78125,0.03125 v -0.25 c -0.453125,0 -0.515625,0 -0.515625,-0.296875 z M 1.359375,-3 v -0.765625 c 0,-0.671875 0.671875,-0.9375 1.203125,-0.9375 0.109375,0 0.359375,0 0.59375,0.109375 -0.03125,0 -0.203125,0.078125 -0.203125,0.296875 0,0.15625 0.109375,0.25 0.1875,0.296875 -0.03125,0.0625 -0.03125,0.203125 -0.03125,0.234375 V -3 Z m 2.25,-0.765625 c 0,-0.609375 0.578125,-0.9375 1.234375,-0.9375 0.1875,0 0.3125,0 0.5,0.046875 C 5.25,-4.609375 5.203125,-4.5 5.203125,-4.390625 c 0,0.03125 0.015625,0.1875 0.15625,0.265625 V -3 h -1.75 z m 0,0"
           id="path9412" />
      </g>
      <g
         id="g3161">
        <path
           d="m 3.0625,-1.59375 c 0.15625,0 0.203125,0 0.203125,-0.140625 0,-0.625 -0.34375,-1.375 -1.390625,-1.375 -0.90625,0 -1.609375,0.71875 -1.609375,1.578125 0,0.890625 0.78125,1.59375 1.703125,1.59375 0.9375,0 1.296875,-0.75 1.296875,-0.90625 0,-0.015625 -0.015625,-0.09375 -0.125,-0.09375 -0.09375,0 -0.109375,0.046875 -0.125,0.109375 -0.21875,0.5625 -0.75,0.671875 -1,0.671875 C 1.6875,-0.15625 1.375,-0.296875 1.171875,-0.5625 0.90625,-0.890625 0.90625,-1.3125 0.90625,-1.59375 Z M 0.90625,-1.765625 C 0.984375,-2.75 1.609375,-2.90625 1.875,-2.90625 c 0.859375,0 0.890625,0.96875 0.90625,1.140625 z m 0,0"
           id="path1831" />
      </g>
    </g>
    <g
       id="g3930">
      <g
         id="g4768">
        <path
           d="m 7.375,-4.34375 c 0,-1.609375 -1.0625,-2.6875 -2.546875,-2.6875 -2.140625,0 -4.34375,2.265625 -4.34375,4.59375 0,1.65625 1.125,2.65625 2.5625,2.65625 2.109375,0 4.328125,-2.1875 4.328125,-4.5625 z m -4.28125,4.296875 c -0.984375,0 -1.671875,-0.796875 -1.671875,-2.109375 0,-0.453125 0.140625,-1.90625 0.90625,-3.0625 0.6875,-1.046875 1.65625,-1.5625 2.453125,-1.5625 0.8125,0 1.703125,0.5625 1.703125,2.046875 0,0.71875 -0.265625,2.265625 -1.25,3.5 C 4.75,-0.625 3.9375,-0.046875 3.09375,-0.046875 Z m 0,0"
           id="path7912" />
      </g>
    </g>
    <g
       id="g3175">
      <g
         id="g1946">
        <path
           d="m 4.609375,-2.171875 c 0.21875,0 0.3125,0 0.3125,-0.265625 0,-0.3125 -0.0625,-1.046875 -0.5625,-1.546875 C 4,-4.34375 3.46875,-4.515625 2.78125,-4.515625 c -1.59375,0 -2.46875,1.03125 -2.46875,2.265625 0,1.34375 1,2.3125 2.609375,2.3125 1.578125,0 2,-1.0625 2,-1.234375 0,-0.171875 -0.1875,-0.171875 -0.234375,-0.171875 -0.171875,0 -0.1875,0.046875 -0.25,0.203125 -0.203125,0.484375 -0.78125,0.796875 -1.421875,0.796875 -1.40625,0 -1.421875,-1.328125 -1.421875,-1.828125 z M 1.59375,-2.5 C 1.609375,-2.890625 1.625,-3.3125 1.828125,-3.640625 2.09375,-4.03125 2.5,-4.15625 2.78125,-4.15625 c 1.171875,0 1.1875,1.3125 1.203125,1.65625 z m 0,0"
           id="path2465" />
      </g>
      <g
         id="g2225">
        <path
           d="m 1.171875,-0.609375 c 0.1875,-0.1875 0.3125,-0.3125 0.890625,-0.796875 0.15625,-0.109375 0.671875,-0.53125 0.875,-0.71875 0.421875,-0.421875 0.6875,-0.78125 0.6875,-0.859375 0,-0.09375 -0.078125,-0.09375 -0.109375,-0.09375 -0.0625,0 -0.09375,0.015625 -0.125,0.078125 -0.21875,0.3125 -0.359375,0.421875 -0.53125,0.421875 -0.078125,0 -0.1875,0 -0.390625,-0.203125 -0.234375,-0.25 -0.390625,-0.296875 -0.546875,-0.296875 -0.5625,0 -0.9375,0.609375 -0.9375,0.8125 0,0.078125 0.0625,0.09375 0.109375,0.09375 0.09375,0 0.109375,-0.015625 0.125,-0.09375 0.109375,-0.25 0.5,-0.265625 0.609375,-0.265625 0.171875,0 0.34375,0.046875 0.4375,0.0625 0.390625,0.078125 0.4375,0.078125 0.609375,0.078125 -0.171875,0.203125 -0.296875,0.328125 -0.96875,0.84375 -0.546875,0.4375 -0.734375,0.609375 -0.859375,0.75 -0.421875,0.40625 -0.625,0.71875 -0.625,0.78125 0,0.078125 0.09375,0.078125 0.125,0.078125 0.0625,0 0.078125,0 0.109375,-0.0625 0.1875,-0.265625 0.40625,-0.421875 0.640625,-0.421875 0.09375,0 0.1875,0 0.375,0.171875 0.21875,0.21875 0.359375,0.3125 0.59375,0.3125 C 3,0.0625 3.46875,-0.78125 3.46875,-1.015625 3.46875,-1.09375 3.390625,-1.09375 3.359375,-1.09375 3.265625,-1.09375 3.25,-1.0625 3.21875,-0.984375 3.09375,-0.640625 2.6875,-0.46875 2.34375,-0.46875 2.1875,-0.46875 2,-0.515625 1.828125,-0.546875 1.515625,-0.625 1.453125,-0.625 1.328125,-0.625 c -0.015625,0 -0.109375,0 -0.15625,0.015625 z m 0,0"
           id="path2959" />
      </g>
    </g>
    <g
       id="g7410">
      <g
         id="g5765">
        <path
           d="m 4.609375,-2.171875 c 0.21875,0 0.3125,0 0.3125,-0.265625 0,-0.3125 -0.0625,-1.046875 -0.5625,-1.546875 C 4,-4.34375 3.46875,-4.515625 2.78125,-4.515625 c -1.59375,0 -2.46875,1.03125 -2.46875,2.265625 0,1.34375 1,2.3125 2.609375,2.3125 1.578125,0 2,-1.0625 2,-1.234375 0,-0.171875 -0.1875,-0.171875 -0.234375,-0.171875 -0.171875,0 -0.1875,0.046875 -0.25,0.203125 -0.203125,0.484375 -0.78125,0.796875 -1.421875,0.796875 -1.40625,0 -1.421875,-1.328125 -1.421875,-1.828125 z M 1.59375,-2.5 C 1.609375,-2.890625 1.625,-3.3125 1.828125,-3.640625 2.09375,-4.03125 2.5,-4.15625 2.78125,-4.15625 c 1.171875,0 1.1875,1.3125 1.203125,1.65625 z m 0,0"
           id="path6132" />
      </g>
      <g
         id="g2347">
        <path
           d="M 1.734375,-0.734375 C 1.671875,-0.5 1.4375,-0.125 1.078125,-0.125 c -0.015625,0 -0.234375,0 -0.375,-0.09375 0.28125,-0.09375 0.3125,-0.34375 0.3125,-0.390625 0,-0.15625 -0.125,-0.25 -0.28125,-0.25 -0.203125,0 -0.40625,0.15625 -0.40625,0.421875 0,0.34375 0.390625,0.5 0.734375,0.5 0.328125,0 0.609375,-0.1875 0.78125,-0.484375 C 2.015625,-0.0625 2.390625,0.0625 2.671875,0.0625 c 0.8125,0 1.234375,-0.859375 1.234375,-1.0625 0,-0.09375 -0.09375,-0.09375 -0.109375,-0.09375 -0.109375,0 -0.109375,0.046875 -0.140625,0.125 -0.140625,0.484375 -0.5625,0.84375 -0.953125,0.84375 -0.28125,0 -0.421875,-0.1875 -0.421875,-0.453125 0,-0.1875 0.171875,-0.8125 0.359375,-1.59375 C 2.78125,-2.703125 3.09375,-2.875 3.328125,-2.875 c 0.015625,0 0.21875,0 0.375,0.09375 -0.21875,0.0625 -0.3125,0.265625 -0.3125,0.390625 0,0.140625 0.125,0.25 0.28125,0.25 0.15625,0 0.390625,-0.125 0.390625,-0.421875 0,-0.390625 -0.453125,-0.515625 -0.71875,-0.515625 -0.359375,0 -0.640625,0.234375 -0.78125,0.5 -0.125,-0.28125 -0.453125,-0.5 -0.84375,-0.5 C 0.9375,-3.078125 0.5,-2.21875 0.5,-2 c 0,0.078125 0.09375,0.078125 0.109375,0.078125 0.09375,0 0.09375,-0.015625 0.140625,-0.109375 C 0.921875,-2.578125 1.359375,-2.875 1.703125,-2.875 1.9375,-2.875 2.125,-2.75 2.125,-2.421875 2.125,-2.28125 2.03125,-1.9375 1.96875,-1.6875 Z m 0,0"
           id="path9516" />
      </g>
    </g>
    <g
       id="g36">
      <g
         id="g35">
        <path
           d="M 9.234375,-6.046875 C 9.328125,-6.40625 9.34375,-6.5 10.09375,-6.5 c 0.21875,0 0.3125,0 0.3125,-0.203125 0,-0.109375 -0.09375,-0.109375 -0.265625,-0.109375 h -1.3125 c -0.265625,0 -0.28125,0 -0.390625,0.1875 L 4.796875,-0.9375 4.015625,-6.578125 C 3.984375,-6.8125 3.96875,-6.8125 3.703125,-6.8125 H 2.34375 c -0.1875,0 -0.296875,0 -0.296875,0.1875 0,0.125 0.09375,0.125 0.28125,0.125 0.140625,0 0.3125,0.015625 0.4375,0.015625 0.15625,0.03125 0.21875,0.046875 0.21875,0.171875 0,0.03125 -0.015625,0.0625 -0.046875,0.1875 l -1.265625,5.0625 c -0.09375,0.40625 -0.265625,0.71875 -1.078125,0.75 -0.046875,0 -0.171875,0.015625 -0.171875,0.1875 0,0.09375 0.0625,0.125 0.140625,0.125 0.3125,0 0.65625,-0.03125 1,-0.03125 C 1.890625,-0.03125 2.25,0 2.578125,0 c 0.046875,0 0.1875,0 0.1875,-0.203125 0,-0.109375 -0.109375,-0.109375 -0.1875,-0.109375 -0.5625,0 -0.671875,-0.203125 -0.671875,-0.4375 0,-0.0625 0,-0.125 0.03125,-0.234375 L 3.296875,-6.40625 H 3.3125 l 0.859375,6.171875 C 4.1875,-0.109375 4.203125,0 4.3125,0 4.421875,0 4.484375,-0.109375 4.53125,-0.171875 l 4.03125,-6.3125 h 0.015625 l -1.4375,5.703125 c -0.09375,0.390625 -0.109375,0.46875 -0.90625,0.46875 -0.15625,0 -0.265625,0 -0.265625,0.1875 C 5.96875,0 6.078125,0 6.109375,0 6.390625,0 7.0625,-0.03125 7.34375,-0.03125 7.75,-0.03125 8.1875,0 8.59375,0 8.65625,0 8.78125,0 8.78125,-0.203125 8.78125,-0.3125 8.6875,-0.3125 8.5,-0.3125 c -0.359375,0 -0.640625,0 -0.640625,-0.171875 0,-0.046875 0,-0.0625 0.046875,-0.25 z m 0,0"
           id="path34" />
      </g>
    </g>
    <g
       id="g38">
      <g
         id="g37">
        <path
           d="m 5.140625,-6.8125 c 0,0 0,-0.109375 -0.125,-0.109375 -0.15625,0 -1.09375,0.09375 -1.265625,0.109375 -0.078125,0.015625 -0.140625,0.0625 -0.140625,0.1875 0,0.125 0.09375,0.125 0.234375,0.125 0.484375,0 0.5,0.0625 0.5,0.171875 L 4.3125,-6.125 3.71875,-3.765625 C 3.53125,-4.140625 3.25,-4.40625 2.796875,-4.40625 c -1.15625,0 -2.390625,1.46875 -2.390625,2.921875 0,0.9375 0.546875,1.59375 1.3125,1.59375 0.203125,0 0.703125,-0.046875 1.296875,-0.75 0.078125,0.421875 0.4375,0.75 0.90625,0.75 0.359375,0 0.578125,-0.234375 0.75,-0.546875 0.15625,-0.359375 0.296875,-0.96875 0.296875,-0.984375 0,-0.109375 -0.09375,-0.109375 -0.125,-0.109375 -0.09375,0 -0.109375,0.046875 -0.140625,0.1875 -0.171875,0.640625 -0.34375,1.234375 -0.75,1.234375 -0.28125,0 -0.296875,-0.265625 -0.296875,-0.453125 0,-0.25 0.015625,-0.3125 0.046875,-0.484375 z m -2.0625,5.625 C 3.015625,-1 3.015625,-0.984375 2.875,-0.8125 2.4375,-0.265625 2.03125,-0.109375 1.75,-0.109375 c -0.5,0 -0.640625,-0.546875 -0.640625,-0.9375 0,-0.5 0.3125,-1.71875 0.546875,-2.1875 0.3125,-0.578125 0.75,-0.953125 1.15625,-0.953125 0.640625,0 0.78125,0.8125 0.78125,0.875 0,0.0625 -0.015625,0.125 -0.03125,0.171875 z m 0,0"
           id="path36" />
      </g>
    </g>
    <g
       id="g6525">
      <g
         id="g134">
        <path
           d="M 2.625,-4.359375 C 1.390625,-4.0625 0.421875,-2.765625 0.421875,-1.5625 0.421875,-0.59375 1.0625,0.125 2,0.125 c 1.15625,0 1.984375,-1.578125 1.984375,-2.953125 0,-0.90625 -0.390625,-1.40625 -0.734375,-1.84375 C 2.890625,-5.125 2.296875,-5.875 2.296875,-6.3125 c 0,-0.21875 0.203125,-0.453125 0.546875,-0.453125 0.3125,0 0.5,0.125 0.71875,0.265625 0.203125,0.125 0.390625,0.25 0.546875,0.25 C 4.359375,-6.25 4.5,-6.484375 4.5,-6.65625 4.5,-6.875 4.34375,-6.890625 3.984375,-6.984375 3.46875,-7.09375 3.328125,-7.09375 3.171875,-7.09375 c -0.78125,0 -1.140625,0.4375 -1.140625,1.03125 0,0.546875 0.296875,1.09375 0.59375,1.703125 z m 0.125,0.21875 c 0.25,0.46875 0.546875,1 0.546875,1.71875 0,0.65625 -0.375,2.328125 -1.296875,2.328125 -0.546875,0 -0.96875,-0.421875 -0.96875,-1.1875 0,-0.625 0.375,-2.5 1.71875,-2.859375 z m 0,0"
           id="path3031" />
      </g>
      <g
         id="g7109">
        <path
           d="m 1.4375,-0.84375 c -0.25,0.390625 -0.46875,0.5625 -0.875,0.59375 -0.078125,0 -0.171875,0 -0.171875,0.140625 C 0.390625,-0.03125 0.453125,0 0.5,0 0.671875,0 0.90625,-0.03125 1.09375,-0.03125 1.3125,-0.03125 1.609375,0 1.8125,0 1.84375,0 1.953125,0 1.953125,-0.15625 1.953125,-0.25 1.859375,-0.25 1.828125,-0.25 1.78125,-0.265625 1.53125,-0.265625 1.53125,-0.453125 c 0,-0.09375 0.0625,-0.203125 0.09375,-0.265625 l 0.5625,-0.875 h 2 L 4.34375,-0.4375 C 4.328125,-0.359375 4.28125,-0.25 3.875,-0.25 c -0.09375,0 -0.1875,0 -0.1875,0.15625 C 3.6875,-0.0625 3.703125,0 3.796875,0 4,0 4.5,-0.03125 4.703125,-0.03125 c 0.125,0 0.28125,0.015625 0.40625,0.015625 C 5.234375,-0.015625 5.375,0 5.5,0 5.59375,0 5.640625,-0.0625 5.640625,-0.140625 5.640625,-0.25 5.5625,-0.25 5.453125,-0.25 c -0.40625,0 -0.421875,-0.0625 -0.4375,-0.21875 l -0.625,-4.3125 C 4.375,-4.921875 4.359375,-4.96875 4.234375,-4.96875 4.09375,-4.96875 4.0625,-4.90625 4,-4.8125 Z m 0.921875,-1 L 3.8125,-4.125 4.140625,-1.84375 Z m 0,0"
           id="path9499" />
      </g>
    </g>
    <g
       id="g2766">
      <g
         id="g9960">
        <path
           d="M 1.78125,-1.140625 C 1.390625,-0.484375 1,-0.34375 0.5625,-0.3125 0.4375,-0.296875 0.34375,-0.296875 0.34375,-0.109375 0.34375,-0.046875 0.40625,0 0.484375,0 0.75,0 1.0625,-0.03125 1.328125,-0.03125 c 0.34375,0 0.6875,0.03125 1,0.03125 0.0625,0 0.1875,0 0.1875,-0.1875 0,-0.109375 -0.078125,-0.125 -0.15625,-0.125 -0.21875,-0.015625 -0.46875,-0.09375 -0.46875,-0.34375 0,-0.125 0.0625,-0.234375 0.140625,-0.375 l 0.765625,-1.265625 h 2.5 c 0.015625,0.203125 0.15625,1.5625 0.15625,1.65625 0,0.296875 -0.515625,0.328125 -0.71875,0.328125 C 4.59375,-0.3125 4.5,-0.3125 4.5,-0.109375 4.5,0 4.609375,0 4.640625,0 5.046875,0 5.46875,-0.03125 5.875,-0.03125 6.125,-0.03125 6.765625,0 7.015625,0 7.0625,0 7.1875,0 7.1875,-0.203125 7.1875,-0.3125 7.09375,-0.3125 6.953125,-0.3125 6.34375,-0.3125 6.34375,-0.375 6.3125,-0.671875 l -0.609375,-6.21875 c -0.015625,-0.203125 -0.015625,-0.25 -0.1875,-0.25 -0.15625,0 -0.203125,0.078125 -0.265625,0.171875 z M 2.984375,-2.609375 4.9375,-5.90625 5.265625,-2.609375 Z m 0,0"
           id="path8800" />
      </g>
    </g>
    <g
       id="g4573">
      <g
         id="g6054">
        <path
           d="m 5.046875,-3.75 c 0.0625,-0.140625 0.09375,-0.203125 0.734375,-0.203125 v -0.46875 C 5.53125,-4.40625 5.25,-4.390625 5,-4.390625 c -0.25,0 -0.703125,-0.03125 -0.90625,-0.03125 v 0.46875 c 0.1875,0 0.46875,0.03125 0.46875,0.109375 0,0 0,0.03125 -0.046875,0.109375 l -1.15625,2.5 -1.265625,-2.71875 H 2.625 v -0.46875 c -0.328125,0.015625 -1.21875,0.03125 -1.234375,0.03125 -0.28125,0 -0.71875,-0.03125 -1.125,-0.03125 v 0.46875 h 0.625 l 1.75,3.75 c 0.125,0.25 0.25,0.25 0.375,0.25 0.171875,0 0.28125,-0.03125 0.375,-0.25 z m 0,0"
           id="path5062" />
      </g>
      <g
         id="g8860">
        <path
           d="M 3.59375,-2.21875 C 3.59375,-2.984375 3.5,-3.546875 3.1875,-4.03125 2.96875,-4.34375 2.53125,-4.625 1.984375,-4.625 c -1.625,0 -1.625,1.90625 -1.625,2.40625 0,0.5 0,2.359375 1.625,2.359375 1.609375,0 1.609375,-1.859375 1.609375,-2.359375 z M 1.984375,-0.0625 c -0.328125,0 -0.75,-0.1875 -0.890625,-0.75 C 1,-1.21875 1,-1.796875 1,-2.3125 1,-2.828125 1,-3.359375 1.09375,-3.734375 1.25,-4.28125 1.6875,-4.4375 1.984375,-4.4375 c 0.375,0 0.734375,0.234375 0.859375,0.640625 0.109375,0.375 0.125,0.875 0.125,1.484375 0,0.515625 0,1.03125 -0.09375,1.46875 -0.140625,0.640625 -0.609375,0.78125 -0.890625,0.78125 z m 0,0"
           id="path1000" />
      </g>
    </g>
    <clipPath
       clipPathUnits="userSpaceOnUse"
       id="clipPath417-5">
      <path
         d="M 8.2850002,-3.3972322e-6 H 172.34 V 143.45301 H 8.2850002 Z"
         id="path417-4"
         style="stroke-width:1" />
    </clipPath>
    <marker
       style="overflow:visible"
       id="ArrowTriangleStylized-2"
       refX="0"
       refY="0"
       orient="auto-start-reverse"
       inkscape:stockid="Stylized triangle arrow"
       markerWidth="1"
       markerHeight="1"
       viewBox="0 0 1 1"
       inkscape:isstock="true"
       inkscape:collect="always"
       preserveAspectRatio="xMidYMid">
      <path
         transform="scale(0.5)"
         style="fill:context-stroke;fill-rule:evenodd;stroke:context-stroke;stroke-width:1pt"
         d="m 6,0 c -3,1 -7,3 -9,5 0,0 0,-4 2,-5 -2,-1 -2,-5 -2,-5 2,2 6,4 9,5 z"
         id="path257-5" />
    </marker>
    <marker
       style="overflow:visible"
       id="ArrowTriangleStylized-2-6"
       refX="0"
       refY="0"
       orient="auto-start-reverse"
       inkscape:stockid="Stylized triangle arrow"
       markerWidth="1"
       markerHeight="1"
       viewBox="0 0 1 1"
       inkscape:isstock="true"
       inkscape:collect="always"
       preserveAspectRatio="xMidYMid">
      <path
         transform="scale(0.5)"
         style="fill:context-stroke;fill-rule:evenodd;stroke:context-stroke;stroke-width:1pt"
         d="m 6,0 c -3,1 -7,3 -9,5 0,0 0,-4 2,-5 -2,-1 -2,-5 -2,-5 2,2 6,4 9,5 z"
         id="path257-5-6" />
    </marker>
  </defs>
  <g
     inkscape:label="Layer 1"
     inkscape:groupmode="layer"
     id="layer1">
    <g
       id="g1"
       transform="translate(-24.994807,-42.654181)">
      <path
         style="fill:none;fill-opacity:1;stroke:#e6710a;stroke-width:0.499999;stroke-dasharray:none;stroke-opacity:1;marker-end:url(#marker40-7)"
         d="M 43.743667,72.358682 43.606076,54.89545"
         id="path4-6" />
      <g
         id="g7030"
         transform="matrix(0.705556,0,0,0.705556,46.457364,52.074564)"
         ns4:version="1.12.0"
         ns4:texconverter="pdflatex"
         ns4:pdfconverter="inkscape"
         ns4:text="$\\delta_A$"
         ns4:preamble="/home/bouvet/.config/inkscape/extensions/textext/default_packages.tex"
         ns4:scale="2.0"
         ns4:alignment="middle center"
         ns4:inkscapeversion="1.4.2"
         ns4:jacobian_sqrt="0.705556"
         style="fill:#e6710a;fill-opacity:1;stroke-width:1.00063;stroke-dasharray:none">
        <defs
           id="defs6975">
          <g
             id="g43">
            <g
               id="g41">
              <path
                 d="M 2.625,-4.359375 C 1.390625,-4.0625 0.421875,-2.765625 0.421875,-1.5625 0.421875,-0.59375 1.0625,0.125 2,0.125 c 1.15625,0 1.984375,-1.578125 1.984375,-2.953125 0,-0.90625 -0.390625,-1.40625 -0.734375,-1.84375 C 2.890625,-5.125 2.296875,-5.875 2.296875,-6.3125 c 0,-0.21875 0.203125,-0.453125 0.546875,-0.453125 0.3125,0 0.5,0.125 0.71875,0.265625 0.203125,0.125 0.390625,0.25 0.546875,0.25 C 4.359375,-6.25 4.5,-6.484375 4.5,-6.65625 4.5,-6.875 4.34375,-6.890625 3.984375,-6.984375 3.46875,-7.09375 3.328125,-7.09375 3.171875,-7.09375 c -0.78125,0 -1.140625,0.4375 -1.140625,1.03125 0,0.546875 0.296875,1.09375 0.59375,1.703125 z m 0.125,0.21875 c 0.25,0.46875 0.546875,1 0.546875,1.71875 0,0.65625 -0.375,2.328125 -1.296875,2.328125 -0.546875,0 -0.96875,-0.421875 -0.96875,-1.1875 0,-0.625 0.375,-2.5 1.71875,-2.859375 z m 0,0"
                 id="path39" />
            </g>
            <g
               id="g42">
              <path
                 d="m 1.4375,-0.84375 c -0.25,0.390625 -0.46875,0.5625 -0.875,0.59375 -0.078125,0 -0.171875,0 -0.171875,0.140625 C 0.390625,-0.03125 0.453125,0 0.5,0 0.671875,0 0.90625,-0.03125 1.09375,-0.03125 1.3125,-0.03125 1.609375,0 1.8125,0 1.84375,0 1.953125,0 1.953125,-0.15625 1.953125,-0.25 1.859375,-0.25 1.828125,-0.25 1.78125,-0.265625 1.53125,-0.265625 1.53125,-0.453125 c 0,-0.09375 0.0625,-0.203125 0.09375,-0.265625 l 0.5625,-0.875 h 2 L 4.34375,-0.4375 C 4.328125,-0.359375 4.28125,-0.25 3.875,-0.25 c -0.09375,0 -0.1875,0 -0.1875,0.15625 C 3.6875,-0.0625 3.703125,0 3.796875,0 4,0 4.5,-0.03125 4.703125,-0.03125 c 0.125,0 0.28125,0.015625 0.40625,0.015625 C 5.234375,-0.015625 5.375,0 5.5,0 5.59375,0 5.640625,-0.0625 5.640625,-0.140625 5.640625,-0.25 5.5625,-0.25 5.453125,-0.25 c -0.40625,0 -0.421875,-0.0625 -0.4375,-0.21875 l -0.625,-4.3125 C 4.375,-4.921875 4.359375,-4.96875 4.234375,-4.96875 4.09375,-4.96875 4.0625,-4.90625 4,-4.8125 Z m 0.921875,-1 L 3.8125,-4.125 4.140625,-1.84375 Z m 0,0"
                 id="path41" />
            </g>
          </g>
        </defs>
        <g
           fill="#000000"
           fill-opacity="1"
           id="g775"
           transform="translate(-149.134,-127.671)"
           style="fill:#e6710a;fill-opacity:1;stroke-width:1.00063;stroke-dasharray:none">
          <g
             transform="translate(148.712,134.765)"
             id="g5144"
             style="fill:#e6710a;fill-opacity:1;stroke-width:1.00063;stroke-dasharray:none">
            <path
               d="M 2.625,-4.359375 C 1.390625,-4.0625 0.421875,-2.765625 0.421875,-1.5625 0.421875,-0.59375 1.0625,0.125 2,0.125 c 1.15625,0 1.984375,-1.578125 1.984375,-2.953125 0,-0.90625 -0.390625,-1.40625 -0.734375,-1.84375 C 2.890625,-5.125 2.296875,-5.875 2.296875,-6.3125 c 0,-0.21875 0.203125,-0.453125 0.546875,-0.453125 0.3125,0 0.5,0.125 0.71875,0.265625 0.203125,0.125 0.390625,0.25 0.546875,0.25 C 4.359375,-6.25 4.5,-6.484375 4.5,-6.65625 4.5,-6.875 4.34375,-6.890625 3.984375,-6.984375 3.46875,-7.09375 3.328125,-7.09375 3.171875,-7.09375 c -0.78125,0 -1.140625,0.4375 -1.140625,1.03125 0,0.546875 0.296875,1.09375 0.59375,1.703125 z m 0.125,0.21875 c 0.25,0.46875 0.546875,1 0.546875,1.71875 0,0.65625 -0.375,2.328125 -1.296875,2.328125 -0.546875,0 -0.96875,-0.421875 -0.96875,-1.1875 0,-0.625 0.375,-2.5 1.71875,-2.859375 z m 0,0"
               id="path1521"
               style="fill:#e6710a;fill-opacity:1;stroke-width:1.00063;stroke-dasharray:none" />
          </g>
        </g>
        <g
           fill="#000000"
           fill-opacity="1"
           id="g1720"
           transform="translate(-149.134,-127.671)"
           style="fill:#e6710a;fill-opacity:1;stroke-width:1.00063;stroke-dasharray:none">
          <g
             transform="translate(153.14,136.259)"
             id="g4237"
             style="fill:#e6710a;fill-opacity:1;stroke-width:1.00063;stroke-dasharray:none">
            <path
               d="m 1.4375,-0.84375 c -0.25,0.390625 -0.46875,0.5625 -0.875,0.59375 -0.078125,0 -0.171875,0 -0.171875,0.140625 C 0.390625,-0.03125 0.453125,0 0.5,0 0.671875,0 0.90625,-0.03125 1.09375,-0.03125 1.3125,-0.03125 1.609375,0 1.8125,0 1.84375,0 1.953125,0 1.953125,-0.15625 1.953125,-0.25 1.859375,-0.25 1.828125,-0.25 1.78125,-0.265625 1.53125,-0.265625 1.53125,-0.453125 c 0,-0.09375 0.0625,-0.203125 0.09375,-0.265625 l 0.5625,-0.875 h 2 L 4.34375,-0.4375 C 4.328125,-0.359375 4.28125,-0.25 3.875,-0.25 c -0.09375,0 -0.1875,0 -0.1875,0.15625 C 3.6875,-0.0625 3.703125,0 3.796875,0 4,0 4.5,-0.03125 4.703125,-0.03125 c 0.125,0 0.28125,0.015625 0.40625,0.015625 C 5.234375,-0.015625 5.375,0 5.5,0 5.59375,0 5.640625,-0.0625 5.640625,-0.140625 5.640625,-0.25 5.5625,-0.25 5.453125,-0.25 c -0.40625,0 -0.421875,-0.0625 -0.4375,-0.21875 l -0.625,-4.3125 C 4.375,-4.921875 4.359375,-4.96875 4.234375,-4.96875 4.09375,-4.96875 4.0625,-4.90625 4,-4.8125 Z m 0.921875,-1 L 3.8125,-4.125 4.140625,-1.84375 Z m 0,0"
               id="path1901"
               style="fill:#e6710a;fill-opacity:1;stroke-width:1.00063;stroke-dasharray:none" />
          </g>
        </g>
      </g>
      <g
         id="g6233"
         transform="matrix(0.705556,0,0,0.705556,37.61821,66.648551)"
         ns4:version="1.12.0"
         ns4:texconverter="pdflatex"
         ns4:pdfconverter="inkscape"
         ns4:text="$A$"
         ns4:preamble="/home/bouvet/.config/inkscape/extensions/textext/default_packages.tex"
         ns4:scale="2.0"
         ns4:alignment="middle center"
         ns4:inkscapeversion="1.4.2"
         ns4:jacobian_sqrt="0.705556"
         style="fill:#e6710a;fill-opacity:1">
        <defs
           id="defs9832">
          <g
             id="g45">
            <g
               id="g44">
              <path
                 d="M 1.78125,-1.140625 C 1.390625,-0.484375 1,-0.34375 0.5625,-0.3125 0.4375,-0.296875 0.34375,-0.296875 0.34375,-0.109375 0.34375,-0.046875 0.40625,0 0.484375,0 0.75,0 1.0625,-0.03125 1.328125,-0.03125 c 0.34375,0 0.6875,0.03125 1,0.03125 0.0625,0 0.1875,0 0.1875,-0.1875 0,-0.109375 -0.078125,-0.125 -0.15625,-0.125 -0.21875,-0.015625 -0.46875,-0.09375 -0.46875,-0.34375 0,-0.125 0.0625,-0.234375 0.140625,-0.375 l 0.765625,-1.265625 h 2.5 c 0.015625,0.203125 0.15625,1.5625 0.15625,1.65625 0,0.296875 -0.515625,0.328125 -0.71875,0.328125 C 4.59375,-0.3125 4.5,-0.3125 4.5,-0.109375 4.5,0 4.609375,0 4.640625,0 5.046875,0 5.46875,-0.03125 5.875,-0.03125 6.125,-0.03125 6.765625,0 7.015625,0 7.0625,0 7.1875,0 7.1875,-0.203125 7.1875,-0.3125 7.09375,-0.3125 6.953125,-0.3125 6.34375,-0.3125 6.34375,-0.375 6.3125,-0.671875 l -0.609375,-6.21875 c -0.015625,-0.203125 -0.015625,-0.25 -0.1875,-0.25 -0.15625,0 -0.203125,0.078125 -0.265625,0.171875 z M 2.984375,-2.609375 4.9375,-5.90625 5.265625,-2.609375 Z m 0,0"
                 id="path43" />
            </g>
          </g>
        </defs>
        <g
           fill="#000000"
           fill-opacity="1"
           id="g2194"
           transform="translate(-149.056,-127.624)"
           style="fill:#e6710a;fill-opacity:1">
          <g
             transform="translate(148.712,134.765)"
             id="g1156"
             style="fill:#e6710a;fill-opacity:1">
            <path
               d="M 1.78125,-1.140625 C 1.390625,-0.484375 1,-0.34375 0.5625,-0.3125 0.4375,-0.296875 0.34375,-0.296875 0.34375,-0.109375 0.34375,-0.046875 0.40625,0 0.484375,0 0.75,0 1.0625,-0.03125 1.328125,-0.03125 c 0.34375,0 0.6875,0.03125 1,0.03125 0.0625,0 0.1875,0 0.1875,-0.1875 0,-0.109375 -0.078125,-0.125 -0.15625,-0.125 -0.21875,-0.015625 -0.46875,-0.09375 -0.46875,-0.34375 0,-0.125 0.0625,-0.234375 0.140625,-0.375 l 0.765625,-1.265625 h 2.5 c 0.015625,0.203125 0.15625,1.5625 0.15625,1.65625 0,0.296875 -0.515625,0.328125 -0.71875,0.328125 C 4.59375,-0.3125 4.5,-0.3125 4.5,-0.109375 4.5,0 4.609375,0 4.640625,0 5.046875,0 5.46875,-0.03125 5.875,-0.03125 6.125,-0.03125 6.765625,0 7.015625,0 7.0625,0 7.1875,0 7.1875,-0.203125 7.1875,-0.3125 7.09375,-0.3125 6.953125,-0.3125 6.34375,-0.3125 6.34375,-0.375 6.3125,-0.671875 l -0.609375,-6.21875 c -0.015625,-0.203125 -0.015625,-0.25 -0.1875,-0.25 -0.15625,0 -0.203125,0.078125 -0.265625,0.171875 z M 2.984375,-2.609375 4.9375,-5.90625 5.265625,-2.609375 Z m 0,0"
               id="path1246"
               style="fill:#e6710a;fill-opacity:1" />
          </g>
        </g>
      </g>
      <path
         d="m 28.117,43.129 c 0,1.117 -0.906,2.023 -2.019,2.023 -1.114,0 -2.016,-0.906 -2.016,-2.023 0,-1.113 0.902,-2.02 2.016,-2.02 1.113,0 2.019,0.907 2.019,2.02"
         style="fill:#e6710a;fill-opacity:1;fill-rule:evenodd;stroke:#e6710a;stroke-opacity:1"
         transform="matrix(0.55303192,0,0,0.55303192,29.301729,48.908628)"
         clip-path="url(#clipPath417-5)"
         id="path187-2" />
    </g>
    <path
       style="fill:#137f6d;fill-opacity:0.490196;stroke:#137f6d;stroke-width:0.5;stroke-dasharray:none;stroke-opacity:1"
       d="m 43.030275,76.750715 0.197815,58.195775 h 117.45546 l 0.11774,-57.502265 c 0,0 -4.79253,-6.051998 -9.64985,-6.432167 -0.47226,-0.03696 -0.9622,-0.09077 -1.90905,0.148158 -0.98804,0.24932 -1.60851,0.661578 -2.26948,1.234838 -7.23204,6.272395 -16.57982,7.125936 -16.57982,7.125936 l 0.0324,-6.963939 c 0,0 -11.16711,10.137353 -21.11814,-0.202087 -11.170835,-11.606853 -24.985704,0 -24.985704,0 0,0 -11.445774,8.489204 -20.860384,0 -9.661808,-8.712104 -20.37646,3.884772 -20.37646,3.884772 z"
       id="path22"
       sodipodi:nodetypes="ccccsssccscscc" />
    <path
       style="fill:none;fill-opacity:1;stroke:#cf007f;stroke-width:0.668679;stroke-dasharray:none;stroke-opacity:1;marker-end:url(#ArrowTriangleStylized-2-6)"
       d="M 170.08738,90.219696 186.53755,78.929164"
       id="path254-4" />
    <path
       style="fill:url(#pattern33);fill-opacity:1;stroke:#12304d;stroke-width:0.8;stroke-dasharray:none;stroke-opacity:1"
       d="m 33.824529,72.75952 -0.0025,71.45834 136.268371,-0.005 -0.004,-71.454718 -9.27258,0.0029 0.0103,62.183458 -117.732344,-0.007 10e-4,-62.177083 z"
       id="path2"
       sodipodi:nodetypes="ccccccccc" />
    <path
       style="fill:none;stroke:#12304d;stroke-width:0.8;stroke-dasharray:none;stroke-opacity:1"
       d="M 130.38979,64.684331 V 134.94546"
       id="path3" />
    <path
       style="fill:none;fill-opacity:1;stroke:#000000;stroke-width:0.525592;stroke-dasharray:none;stroke-opacity:1;marker-end:url(#ArrowWide)"
       d="m 102.08765,134.94442 h 80.69736"
       id="path18" />
    <path
       style="fill:none;fill-opacity:1;stroke:#c31b31;stroke-width:0.5;stroke-dasharray:none;stroke-opacity:1;marker-end:url(#marker5)"
       d="m 102.08568,137.8537 h 27.83638"
       id="path6" />
    <path
       style="fill:none;fill-opacity:1;stroke:#000000;stroke-width:0.5;stroke-dasharray:none;stroke-opacity:1"
       d="m 102.08558,133.8901 v 2.11466"
       id="path7" />
    <g
       id="g7056"
       transform="matrix(0.705556,0,0,0.705556,112.906,139.173)"
       ns4:version="1.12.0"
       ns4:texconverter="pdflatex"
       ns4:pdfconverter="inkscape"
       ns4:text="$x_{\\text{b}}$"
       ns4:preamble="C:\Users\hippo\AppData\Roaming\inkscape\extensions\textext\default_packages.tex"
       ns4:scale="2.0"
       ns4:alignment="middle center"
       ns4:inkscapeversion="1.4.2"
       ns4:jacobian_sqrt="0.705556"
       style="fill:#c31b31;fill-opacity:1">
      <defs
         id="defs8873">
        <g
           id="g8175">
          <g
             id="g1944">
            <path
               d="M 3.328125,-3.015625 C 3.390625,-3.265625 3.625,-4.1875 4.3125,-4.1875 c 0.046875,0 0.296875,0 0.5,0.125 C 4.53125,-4 4.34375,-3.765625 4.34375,-3.515625 c 0,0.15625 0.109375,0.34375 0.375,0.34375 0.21875,0 0.53125,-0.171875 0.53125,-0.578125 0,-0.515625 -0.578125,-0.65625 -0.921875,-0.65625 -0.578125,0 -0.921875,0.53125 -1.046875,0.75 -0.25,-0.65625 -0.78125,-0.75 -1.078125,-0.75 -1.03125,0 -1.609375,1.28125 -1.609375,1.53125 0,0.109375 0.109375,0.109375 0.125,0.109375 0.078125,0 0.109375,-0.03125 0.125,-0.109375 0.34375,-1.0625 1,-1.3125 1.34375,-1.3125 0.1875,0 0.53125,0.09375 0.53125,0.671875 0,0.3125 -0.171875,0.96875 -0.53125,2.375 -0.15625,0.609375 -0.515625,1.03125 -0.953125,1.03125 -0.0625,0 -0.28125,0 -0.5,-0.125 0.25,-0.0625 0.46875,-0.265625 0.46875,-0.546875 0,-0.265625 -0.21875,-0.34375 -0.359375,-0.34375 -0.3125,0 -0.546875,0.25 -0.546875,0.578125 0,0.453125 0.484375,0.65625 0.921875,0.65625 0.671875,0 1.03125,-0.703125 1.046875,-0.75 0.125,0.359375 0.484375,0.75 1.078125,0.75 1.03125,0 1.59375,-1.28125 1.59375,-1.53125 0,-0.109375 -0.078125,-0.109375 -0.109375,-0.109375 -0.09375,0 -0.109375,0.046875 -0.140625,0.109375 -0.328125,1.078125 -1,1.3125 -1.3125,1.3125 -0.390625,0 -0.546875,-0.3125 -0.546875,-0.65625 0,-0.21875 0.046875,-0.4375 0.15625,-0.875 z m 0,0"
               id="path2033" />
          </g>
          <g
             id="g1007">
            <path
               d="M 1.390625,-4.84375 0.34375,-4.765625 v 0.25 c 0.46875,0 0.515625,0.0625 0.515625,0.40625 V 0 H 1.09375 l 0.25,-0.421875 C 1.609375,-0.078125 2,0.0625 2.359375,0.0625 3.28125,0.0625 4.0625,-0.625 4.0625,-1.5 c 0,-0.859375 -0.703125,-1.578125 -1.625,-1.578125 -0.421875,0 -0.796875,0.171875 -1.046875,0.421875 z m 0.03125,2.515625 C 1.609375,-2.65625 1.984375,-2.875 2.40625,-2.875 c 0.390625,0 0.671875,0.21875 0.8125,0.421875 0.140625,0.203125 0.21875,0.484375 0.21875,0.9375 0,0.15625 0,0.6875 -0.28125,1.015625 -0.28125,0.3125 -0.625,0.375 -0.828125,0.375 -0.5625,0 -0.84375,-0.4375 -0.90625,-0.578125 z m 0,0"
               id="path730" />
          </g>
        </g>
      </defs>
      <g
         fill="#000000"
         fill-opacity="1"
         id="g4569"
         transform="translate(-149.009,-130.359)"
         style="fill:#c31b31;fill-opacity:1">
        <g
           transform="translate(148.712,134.765)"
           id="g2476"
           style="fill:#c31b31;fill-opacity:1">
          <path
             d="M 3.328125,-3.015625 C 3.390625,-3.265625 3.625,-4.1875 4.3125,-4.1875 c 0.046875,0 0.296875,0 0.5,0.125 C 4.53125,-4 4.34375,-3.765625 4.34375,-3.515625 c 0,0.15625 0.109375,0.34375 0.375,0.34375 0.21875,0 0.53125,-0.171875 0.53125,-0.578125 0,-0.515625 -0.578125,-0.65625 -0.921875,-0.65625 -0.578125,0 -0.921875,0.53125 -1.046875,0.75 -0.25,-0.65625 -0.78125,-0.75 -1.078125,-0.75 -1.03125,0 -1.609375,1.28125 -1.609375,1.53125 0,0.109375 0.109375,0.109375 0.125,0.109375 0.078125,0 0.109375,-0.03125 0.125,-0.109375 0.34375,-1.0625 1,-1.3125 1.34375,-1.3125 0.1875,0 0.53125,0.09375 0.53125,0.671875 0,0.3125 -0.171875,0.96875 -0.53125,2.375 -0.15625,0.609375 -0.515625,1.03125 -0.953125,1.03125 -0.0625,0 -0.28125,0 -0.5,-0.125 0.25,-0.0625 0.46875,-0.265625 0.46875,-0.546875 0,-0.265625 -0.21875,-0.34375 -0.359375,-0.34375 -0.3125,0 -0.546875,0.25 -0.546875,0.578125 0,0.453125 0.484375,0.65625 0.921875,0.65625 0.671875,0 1.03125,-0.703125 1.046875,-0.75 0.125,0.359375 0.484375,0.75 1.078125,0.75 1.03125,0 1.59375,-1.28125 1.59375,-1.53125 0,-0.109375 -0.078125,-0.109375 -0.109375,-0.109375 -0.09375,0 -0.109375,0.046875 -0.140625,0.109375 -0.328125,1.078125 -1,1.3125 -1.3125,1.3125 -0.390625,0 -0.546875,-0.3125 -0.546875,-0.65625 0,-0.21875 0.046875,-0.4375 0.15625,-0.875 z m 0,0"
             id="path831"
             style="fill:#c31b31;fill-opacity:1" />
        </g>
      </g>
      <g
         fill="#000000"
         fill-opacity="1"
         id="g1993"
         transform="translate(-149.009,-130.359)"
         style="fill:#c31b31;fill-opacity:1">
        <g
           transform="translate(154.406,136.259)"
           id="g8545"
           style="fill:#c31b31;fill-opacity:1">
          <path
             d="M 1.390625,-4.84375 0.34375,-4.765625 v 0.25 c 0.46875,0 0.515625,0.0625 0.515625,0.40625 V 0 H 1.09375 l 0.25,-0.421875 C 1.609375,-0.078125 2,0.0625 2.359375,0.0625 3.28125,0.0625 4.0625,-0.625 4.0625,-1.5 c 0,-0.859375 -0.703125,-1.578125 -1.625,-1.578125 -0.421875,0 -0.796875,0.171875 -1.046875,0.421875 z m 0.03125,2.515625 C 1.609375,-2.65625 1.984375,-2.875 2.40625,-2.875 c 0.390625,0 0.671875,0.21875 0.8125,0.421875 0.140625,0.203125 0.21875,0.484375 0.21875,0.9375 0,0.15625 0,0.6875 -0.28125,1.015625 -0.28125,0.3125 -0.625,0.375 -0.828125,0.375 -0.5625,0 -0.84375,-0.4375 -0.90625,-0.578125 z m 0,0"
             id="path7215"
             style="fill:#c31b31;fill-opacity:1" />
        </g>
      </g>
    </g>
    <g
       id="g8750"
       transform="matrix(0.529167,0,0,0.529167,97.542972,135.7885)"
       ns4:version="1.12.0"
       ns4:texconverter="pdflatex"
       ns4:pdfconverter="inkscape"
       ns4:text="$O$"
       ns4:preamble="/home/bouvet/.config/inkscape/extensions/textext/default_packages.tex"
       ns4:scale="1.5"
       ns4:alignment="middle center"
       ns4:inkscapeversion="1.4.2"
       ns4:jacobian_sqrt="0.529167">
      <defs
         id="defs4115">
        <g
           id="g15">
          <g
             id="g14">
            <path
               d="m 7.375,-4.34375 c 0,-1.609375 -1.0625,-2.6875 -2.546875,-2.6875 -2.140625,0 -4.34375,2.265625 -4.34375,4.59375 0,1.65625 1.125,2.65625 2.5625,2.65625 2.109375,0 4.328125,-2.1875 4.328125,-4.5625 z m -4.28125,4.296875 c -0.984375,0 -1.671875,-0.796875 -1.671875,-2.109375 0,-0.453125 0.140625,-1.90625 0.90625,-3.0625 0.6875,-1.046875 1.65625,-1.5625 2.453125,-1.5625 0.8125,0 1.703125,0.5625 1.703125,2.046875 0,0.71875 -0.265625,2.265625 -1.25,3.5 C 4.75,-0.625 3.9375,-0.046875 3.09375,-0.046875 Z m 0,0"
               id="path13" />
          </g>
        </g>
      </defs>
      <g
         fill="#000000"
         fill-opacity="1"
         id="g1585"
         transform="translate(-149.196,-127.734)">
        <g
           transform="translate(148.712,134.765)"
           id="g5060">
          <path
             d="m 7.375,-4.34375 c 0,-1.609375 -1.0625,-2.6875 -2.546875,-2.6875 -2.140625,0 -4.34375,2.265625 -4.34375,4.59375 0,1.65625 1.125,2.65625 2.5625,2.65625 2.109375,0 4.328125,-2.1875 4.328125,-4.5625 z m -4.28125,4.296875 c -0.984375,0 -1.671875,-0.796875 -1.671875,-2.109375 0,-0.453125 0.140625,-1.90625 0.90625,-3.0625 0.6875,-1.046875 1.65625,-1.5625 2.453125,-1.5625 0.8125,0 1.703125,0.5625 1.703125,2.046875 0,0.71875 -0.265625,2.265625 -1.25,3.5 C 4.75,-0.625 3.9375,-0.046875 3.09375,-0.046875 Z m 0,0"
             id="path2783" />
        </g>
      </g>
    </g>
    <path
       style="fill:none;fill-opacity:1;stroke:#000000;stroke-width:0.5;stroke-dasharray:none;stroke-opacity:1;marker-end:url(#marker21)"
       d="M 102.08558,134.94442 V 53.486726"
       id="path20" />
    <g
       id="g4254"
       transform="matrix(0.705556,0,0,0.705556,105.2662,52.200976)"
       ns4:version="1.12.0"
       ns4:texconverter="pdflatex"
       ns4:pdfconverter="inkscape"
       ns4:text="$\\mathbf{e}_z$"
       ns4:preamble="/home/bouvet/.config/inkscape/extensions/textext/default_packages.tex"
       ns4:scale="2.0"
       ns4:alignment="middle center"
       ns4:inkscapeversion="1.4.2"
       ns4:jacobian_sqrt="0.705556">
      <defs
         id="defs796">
        <g
           id="g18">
          <g
             id="g16">
            <path
               d="m 4.609375,-2.171875 c 0.21875,0 0.3125,0 0.3125,-0.265625 0,-0.3125 -0.0625,-1.046875 -0.5625,-1.546875 C 4,-4.34375 3.46875,-4.515625 2.78125,-4.515625 c -1.59375,0 -2.46875,1.03125 -2.46875,2.265625 0,1.34375 1,2.3125 2.609375,2.3125 1.578125,0 2,-1.0625 2,-1.234375 0,-0.171875 -0.1875,-0.171875 -0.234375,-0.171875 -0.171875,0 -0.1875,0.046875 -0.25,0.203125 -0.203125,0.484375 -0.78125,0.796875 -1.421875,0.796875 -1.40625,0 -1.421875,-1.328125 -1.421875,-1.828125 z M 1.59375,-2.5 C 1.609375,-2.890625 1.625,-3.3125 1.828125,-3.640625 2.09375,-4.03125 2.5,-4.15625 2.78125,-4.15625 c 1.171875,0 1.1875,1.3125 1.203125,1.65625 z m 0,0"
               id="path15" />
          </g>
          <g
             id="g17">
            <path
               d="m 1.171875,-0.609375 c 0.1875,-0.1875 0.3125,-0.3125 0.890625,-0.796875 0.15625,-0.109375 0.671875,-0.53125 0.875,-0.71875 0.421875,-0.421875 0.6875,-0.78125 0.6875,-0.859375 0,-0.09375 -0.078125,-0.09375 -0.109375,-0.09375 -0.0625,0 -0.09375,0.015625 -0.125,0.078125 -0.21875,0.3125 -0.359375,0.421875 -0.53125,0.421875 -0.078125,0 -0.1875,0 -0.390625,-0.203125 -0.234375,-0.25 -0.390625,-0.296875 -0.546875,-0.296875 -0.5625,0 -0.9375,0.609375 -0.9375,0.8125 0,0.078125 0.0625,0.09375 0.109375,0.09375 0.09375,0 0.109375,-0.015625 0.125,-0.09375 0.109375,-0.25 0.5,-0.265625 0.609375,-0.265625 0.171875,0 0.34375,0.046875 0.4375,0.0625 0.390625,0.078125 0.4375,0.078125 0.609375,0.078125 -0.171875,0.203125 -0.296875,0.328125 -0.96875,0.84375 -0.546875,0.4375 -0.734375,0.609375 -0.859375,0.75 -0.421875,0.40625 -0.625,0.71875 -0.625,0.78125 0,0.078125 0.09375,0.078125 0.125,0.078125 0.0625,0 0.078125,0 0.109375,-0.0625 0.1875,-0.265625 0.40625,-0.421875 0.640625,-0.421875 0.09375,0 0.1875,0 0.375,0.171875 0.21875,0.21875 0.359375,0.3125 0.59375,0.3125 C 3,0.0625 3.46875,-0.78125 3.46875,-1.015625 3.46875,-1.09375 3.390625,-1.09375 3.359375,-1.09375 3.265625,-1.09375 3.25,-1.0625 3.21875,-0.984375 3.09375,-0.640625 2.6875,-0.46875 2.34375,-0.46875 2.1875,-0.46875 2,-0.515625 1.828125,-0.546875 1.515625,-0.625 1.453125,-0.625 1.328125,-0.625 c -0.015625,0 -0.109375,0 -0.15625,0.015625 z m 0,0"
               id="path16" />
          </g>
        </g>
      </defs>
      <g
         fill="#000000"
         fill-opacity="1"
         id="g8239"
         transform="translate(-149.025,-130.249)">
        <g
           transform="translate(148.712,134.765)"
           id="g6656">
          <path
             d="m 4.609375,-2.171875 c 0.21875,0 0.3125,0 0.3125,-0.265625 0,-0.3125 -0.0625,-1.046875 -0.5625,-1.546875 C 4,-4.34375 3.46875,-4.515625 2.78125,-4.515625 c -1.59375,0 -2.46875,1.03125 -2.46875,2.265625 0,1.34375 1,2.3125 2.609375,2.3125 1.578125,0 2,-1.0625 2,-1.234375 0,-0.171875 -0.1875,-0.171875 -0.234375,-0.171875 -0.171875,0 -0.1875,0.046875 -0.25,0.203125 -0.203125,0.484375 -0.78125,0.796875 -1.421875,0.796875 -1.40625,0 -1.421875,-1.328125 -1.421875,-1.828125 z M 1.59375,-2.5 C 1.609375,-2.890625 1.625,-3.3125 1.828125,-3.640625 2.09375,-4.03125 2.5,-4.15625 2.78125,-4.15625 c 1.171875,0 1.1875,1.3125 1.203125,1.65625 z m 0,0"
             id="path7375" />
        </g>
      </g>
      <g
         fill="#000000"
         fill-opacity="1"
         id="g6784"
         transform="translate(-149.025,-130.249)">
        <g
           transform="translate(153.963,136.259)"
           id="g8347">
          <path
             d="m 1.171875,-0.609375 c 0.1875,-0.1875 0.3125,-0.3125 0.890625,-0.796875 0.15625,-0.109375 0.671875,-0.53125 0.875,-0.71875 0.421875,-0.421875 0.6875,-0.78125 0.6875,-0.859375 0,-0.09375 -0.078125,-0.09375 -0.109375,-0.09375 -0.0625,0 -0.09375,0.015625 -0.125,0.078125 -0.21875,0.3125 -0.359375,0.421875 -0.53125,0.421875 -0.078125,0 -0.1875,0 -0.390625,-0.203125 -0.234375,-0.25 -0.390625,-0.296875 -0.546875,-0.296875 -0.5625,0 -0.9375,0.609375 -0.9375,0.8125 0,0.078125 0.0625,0.09375 0.109375,0.09375 0.09375,0 0.109375,-0.015625 0.125,-0.09375 0.109375,-0.25 0.5,-0.265625 0.609375,-0.265625 0.171875,0 0.34375,0.046875 0.4375,0.0625 0.390625,0.078125 0.4375,0.078125 0.609375,0.078125 -0.171875,0.203125 -0.296875,0.328125 -0.96875,0.84375 -0.546875,0.4375 -0.734375,0.609375 -0.859375,0.75 -0.421875,0.40625 -0.625,0.71875 -0.625,0.78125 0,0.078125 0.09375,0.078125 0.125,0.078125 0.0625,0 0.078125,0 0.109375,-0.0625 0.1875,-0.265625 0.40625,-0.421875 0.640625,-0.421875 0.09375,0 0.1875,0 0.375,0.171875 0.21875,0.21875 0.359375,0.3125 0.59375,0.3125 C 3,0.0625 3.46875,-0.78125 3.46875,-1.015625 3.46875,-1.09375 3.390625,-1.09375 3.359375,-1.09375 3.265625,-1.09375 3.25,-1.0625 3.21875,-0.984375 3.09375,-0.640625 2.6875,-0.46875 2.34375,-0.46875 2.1875,-0.46875 2,-0.515625 1.828125,-0.546875 1.515625,-0.625 1.453125,-0.625 1.328125,-0.625 c -0.015625,0 -0.109375,0 -0.15625,0.015625 z m 0,0"
             id="path4430" />
        </g>
      </g>
    </g>
    <g
       id="g3329"
       transform="matrix(0.705556,0,0,0.705556,180.18066,138.23429)"
       ns4:version="1.12.0"
       ns4:texconverter="pdflatex"
       ns4:pdfconverter="inkscape"
       ns4:text="$\\mathbf{e}_x$"
       ns4:preamble="/home/bouvet/.config/inkscape/extensions/textext/default_packages.tex"
       ns4:scale="2.0"
       ns4:alignment="middle center"
       ns4:inkscapeversion="1.4.2"
       ns4:jacobian_sqrt="0.705556">
      <defs
         id="defs8984">
        <g
           id="g25">
          <g
             id="g23">
            <path
               d="m 4.609375,-2.171875 c 0.21875,0 0.3125,0 0.3125,-0.265625 0,-0.3125 -0.0625,-1.046875 -0.5625,-1.546875 C 4,-4.34375 3.46875,-4.515625 2.78125,-4.515625 c -1.59375,0 -2.46875,1.03125 -2.46875,2.265625 0,1.34375 1,2.3125 2.609375,2.3125 1.578125,0 2,-1.0625 2,-1.234375 0,-0.171875 -0.1875,-0.171875 -0.234375,-0.171875 -0.171875,0 -0.1875,0.046875 -0.25,0.203125 -0.203125,0.484375 -0.78125,0.796875 -1.421875,0.796875 -1.40625,0 -1.421875,-1.328125 -1.421875,-1.828125 z M 1.59375,-2.5 C 1.609375,-2.890625 1.625,-3.3125 1.828125,-3.640625 2.09375,-4.03125 2.5,-4.15625 2.78125,-4.15625 c 1.171875,0 1.1875,1.3125 1.203125,1.65625 z m 0,0"
               id="path23" />
          </g>
          <g
             id="g24">
            <path
               d="M 1.734375,-0.734375 C 1.671875,-0.5 1.4375,-0.125 1.078125,-0.125 c -0.015625,0 -0.234375,0 -0.375,-0.09375 0.28125,-0.09375 0.3125,-0.34375 0.3125,-0.390625 0,-0.15625 -0.125,-0.25 -0.28125,-0.25 -0.203125,0 -0.40625,0.15625 -0.40625,0.421875 0,0.34375 0.390625,0.5 0.734375,0.5 0.328125,0 0.609375,-0.1875 0.78125,-0.484375 C 2.015625,-0.0625 2.390625,0.0625 2.671875,0.0625 c 0.8125,0 1.234375,-0.859375 1.234375,-1.0625 0,-0.09375 -0.09375,-0.09375 -0.109375,-0.09375 -0.109375,0 -0.109375,0.046875 -0.140625,0.125 -0.140625,0.484375 -0.5625,0.84375 -0.953125,0.84375 -0.28125,0 -0.421875,-0.1875 -0.421875,-0.453125 0,-0.1875 0.171875,-0.8125 0.359375,-1.59375 C 2.78125,-2.703125 3.09375,-2.875 3.328125,-2.875 c 0.015625,0 0.21875,0 0.375,0.09375 -0.21875,0.0625 -0.3125,0.265625 -0.3125,0.390625 0,0.140625 0.125,0.25 0.28125,0.25 0.15625,0 0.390625,-0.125 0.390625,-0.421875 0,-0.390625 -0.453125,-0.515625 -0.71875,-0.515625 -0.359375,0 -0.640625,0.234375 -0.78125,0.5 -0.125,-0.28125 -0.453125,-0.5 -0.84375,-0.5 C 0.9375,-3.078125 0.5,-2.21875 0.5,-2 c 0,0.078125 0.09375,0.078125 0.109375,0.078125 0.09375,0 0.09375,-0.015625 0.140625,-0.109375 C 0.921875,-2.578125 1.359375,-2.875 1.703125,-2.875 1.9375,-2.875 2.125,-2.75 2.125,-2.421875 2.125,-2.28125 2.03125,-1.9375 1.96875,-1.6875 Z m 0,0"
               id="path24" />
          </g>
        </g>
      </defs>
      <g
         fill="#000000"
         fill-opacity="1"
         id="g1321"
         transform="translate(-149.025,-130.249)">
        <g
           transform="translate(148.712,134.765)"
           id="g3272">
          <path
             d="m 4.609375,-2.171875 c 0.21875,0 0.3125,0 0.3125,-0.265625 0,-0.3125 -0.0625,-1.046875 -0.5625,-1.546875 C 4,-4.34375 3.46875,-4.515625 2.78125,-4.515625 c -1.59375,0 -2.46875,1.03125 -2.46875,2.265625 0,1.34375 1,2.3125 2.609375,2.3125 1.578125,0 2,-1.0625 2,-1.234375 0,-0.171875 -0.1875,-0.171875 -0.234375,-0.171875 -0.171875,0 -0.1875,0.046875 -0.25,0.203125 -0.203125,0.484375 -0.78125,0.796875 -1.421875,0.796875 -1.40625,0 -1.421875,-1.328125 -1.421875,-1.828125 z M 1.59375,-2.5 C 1.609375,-2.890625 1.625,-3.3125 1.828125,-3.640625 2.09375,-4.03125 2.5,-4.15625 2.78125,-4.15625 c 1.171875,0 1.1875,1.3125 1.203125,1.65625 z m 0,0"
             id="path1441" />
        </g>
      </g>
      <g
         fill="#000000"
         fill-opacity="1"
         id="g1788"
         transform="translate(-149.025,-130.249)">
        <g
           transform="translate(153.963,136.259)"
           id="g5334">
          <path
             d="M 1.734375,-0.734375 C 1.671875,-0.5 1.4375,-0.125 1.078125,-0.125 c -0.015625,0 -0.234375,0 -0.375,-0.09375 0.28125,-0.09375 0.3125,-0.34375 0.3125,-0.390625 0,-0.15625 -0.125,-0.25 -0.28125,-0.25 -0.203125,0 -0.40625,0.15625 -0.40625,0.421875 0,0.34375 0.390625,0.5 0.734375,0.5 0.328125,0 0.609375,-0.1875 0.78125,-0.484375 C 2.015625,-0.0625 2.390625,0.0625 2.671875,0.0625 c 0.8125,0 1.234375,-0.859375 1.234375,-1.0625 0,-0.09375 -0.09375,-0.09375 -0.109375,-0.09375 -0.109375,0 -0.109375,0.046875 -0.140625,0.125 -0.140625,0.484375 -0.5625,0.84375 -0.953125,0.84375 -0.28125,0 -0.421875,-0.1875 -0.421875,-0.453125 0,-0.1875 0.171875,-0.8125 0.359375,-1.59375 C 2.78125,-2.703125 3.09375,-2.875 3.328125,-2.875 c 0.015625,0 0.21875,0 0.375,0.09375 -0.21875,0.0625 -0.3125,0.265625 -0.3125,0.390625 0,0.140625 0.125,0.25 0.28125,0.25 0.15625,0 0.390625,-0.125 0.390625,-0.421875 0,-0.390625 -0.453125,-0.515625 -0.71875,-0.515625 -0.359375,0 -0.640625,0.234375 -0.78125,0.5 -0.125,-0.28125 -0.453125,-0.5 -0.84375,-0.5 C 0.9375,-3.078125 0.5,-2.21875 0.5,-2 c 0,0.078125 0.09375,0.078125 0.109375,0.078125 0.09375,0 0.09375,-0.015625 0.140625,-0.109375 C 0.921875,-2.578125 1.359375,-2.875 1.703125,-2.875 1.9375,-2.875 2.125,-2.75 2.125,-2.421875 2.125,-2.28125 2.03125,-1.9375 1.96875,-1.6875 Z m 0,0"
             id="path8783" />
        </g>
      </g>
    </g>
    <path
       id="path22-5"
       d="m 64.254448,64.140344 h -3.660069 v 0.220486 h 0.1651 c 0.540456,0 0.562328,0.07726 0.562328,0.330906 v 3.681941 c 0,0.253647 -0.02187,0.330906 -0.562328,0.330906 h -0.1651 v 0.220486 c 0.242358,-0.02223 0.79375,-0.02223 1.069269,-0.02223 0.286456,0 0.926042,0 1.179689,0.02223 v -0.220486 h -0.231775 c -0.661458,0 -0.661458,-0.08819 -0.661458,-0.330906 V 64.63635 c 0,-0.231423 0.01129,-0.27552 0.341842,-0.27552 h 0.72778 c 1.002947,0 1.146528,0.4191 1.256594,1.367014 h 0.176389 z"
       style="fill:#000000;fill-opacity:1;fill-rule:nonzero;stroke:none;stroke-width:0.352778" />
    <path
       id="path27"
       d="m 46.853444,109.23834 c 0.06597,-0.066 0.06597,-0.0991 0.06597,-0.11007 0,-0.0332 -0.02187,-0.0773 -0.0441,-0.0995 l -1.443919,-2.0835 h 1.620308 c 1.190625,0 1.543403,0.25364 1.686983,1.36701 h 0.176389 l -0.198614,-1.5875 h -3.902425 c -0.165453,0 -0.176389,0 -0.176389,0.16545 l 1.7526,2.54671 -1.675695,1.90711 c -0.0769,0.0773 -0.0769,0.0882 -0.0769,0.11007 0,0.0773 0.0769,0.0773 0.176389,0.0773 h 3.902427 l 0.198614,-1.66478 h -0.176389 c -0.121355,1.17969 -0.606425,1.36701 -1.708855,1.36701 H 45.08956 Z"
       style="fill:#000000;fill-opacity:1;fill-rule:nonzero;stroke:none;stroke-width:0.352778" />
    <g
       id="g22"
       transform="translate(52.761847,30.459656)">
      <path
         id="path18-2"
         d="m 66.200864,89.499369 c -0.06597,-0.440973 -0.352778,-0.837848 -0.903816,-0.837848 -0.430037,0 -0.881945,0.121356 -1.433336,0.661459 -0.5842,0.5842 -0.628298,1.245658 -0.628298,1.455208 0,0.440972 0.308681,1.256947 1.289756,1.256947 1.675694,0 2.403475,-2.359378 2.403475,-3.373614 0,-1.113366 -0.650522,-1.818922 -1.521531,-1.818922 -1.014236,0 -1.344789,0.915106 -1.344789,1.113367 0,0.09913 0.06597,0.242711 0.27552,0.242711 0.231422,0 0.375003,-0.20955 0.375003,-0.364067 0,-0.253294 -0.220486,-0.253294 -0.330906,-0.253294 0.308681,-0.518231 0.815975,-0.562328 1.014236,-0.562328 0.518231,0 1.0033,0.363714 1.0033,1.278819 0,0.27552 -0.0441,0.628298 -0.187325,1.201562 z m -1.653469,2.337152 c -0.771878,0 -0.771878,-0.727428 -0.771878,-0.79375 0,-0.187325 0.176389,-1.1684 0.463197,-1.598436 0.27552,-0.396875 0.628297,-0.628297 1.058334,-0.628297 0.771525,0 0.782813,0.79375 0.782813,0.936978 0,0.506941 -0.452261,2.083505 -1.532466,2.083505 z"
         style="fill:#000000;fill-opacity:1;fill-rule:nonzero;stroke:none;stroke-width:0.352778" />
      <path
         id="path19-7"
         d="m 71.834372,90.745027 h -0.176389 c -0.03316,0.176389 -0.06597,0.341841 -0.132291,0.507294 -0.03316,0.110067 -0.05503,0.176389 -0.462845,0.176389 H 70.50052 c 0.09913,-0.396875 0.30868,-0.738717 0.628297,-1.201561 0.330905,-0.496358 0.617361,-0.981428 0.617361,-1.543403 0,-0.970138 -0.947914,-1.763888 -2.138539,-1.763888 -1.201914,0 -2.138892,0.804686 -2.138892,1.763888 0,0.561975 0.286809,1.047045 0.617362,1.543403 0.30868,0.462844 0.529166,0.804686 0.628297,1.201561 h -0.561975 c -0.408164,0 -0.430036,-0.06632 -0.463197,-0.165453 -0.06597,-0.165452 -0.09913,-0.341841 -0.132292,-0.51823 h -0.176389 l 0.231422,1.135591 h 1.124656 c 0.154164,0 0.176389,0 0.176389,-0.143227 0,-0.496006 -0.220486,-1.113367 -0.375003,-1.565628 -0.154164,-0.407811 -0.352778,-0.95885 -0.352778,-1.488017 0,-1.124655 0.782814,-1.609725 1.4224,-1.609725 0.672394,0 1.422047,0.507295 1.422047,1.609725 0,0.529167 -0.198614,1.058334 -0.396875,1.631598 -0.110419,0.297391 -0.330905,0.936977 -0.330905,1.422047 0,0.143227 0.02222,0.143227 0.176389,0.143227 h 1.124655 z"
         style="fill:#000000;fill-opacity:1;fill-rule:nonzero;stroke:none;stroke-width:0.352778" />
      <path
         id="path20-0"
         d="m 73.833917,87.742535 h 0.51823 c 0.37465,0 0.440972,0.06597 0.440972,0.220486 0,0.07691 0,0.08819 -0.03316,0.231423 -0.01094,0.02187 -0.02187,0.0441 -0.02187,0.05503 0,0.0441 0.0441,0.07726 0.08819,0.07726 0.06597,0 0.06597,-0.03316 0.09913,-0.121355 l 0.264583,-1.036109 c 0,-0.02222 0.01094,-0.08819 0.01094,-0.09948 0,-0.05503 -0.03316,-0.0769 -0.07726,-0.0769 -0.06597,0 -0.0769,0.03281 -0.09913,0.121002 -0.09913,0.385939 -0.242359,0.452261 -0.661459,0.452261 h -0.485069 l 0.30868,-1.234722 c 0.03316,-0.14358 0.0441,-0.165453 0.242711,-0.165453 h 0.760589 c 0.650522,0 0.771525,0.154164 0.771525,0.573264 0,0.154164 -0.02187,0.264584 -0.02187,0.297745 0,0.0441 0.02187,0.08819 0.08819,0.08819 0.07726,0 0.07726,-0.0441 0.08819,-0.132291 l 0.08819,-0.849137 c 0.01094,-0.154163 -0.02222,-0.154163 -0.143227,-0.154163 h -2.623961 c -0.09913,0 -0.154164,0 -0.154164,0.110066 0,0.06632 0.05503,0.06632 0.154164,0.06632 0,0 0.09913,0 0.187325,0.01094 0.09948,0.01094 0.110419,0.02223 0.110419,0.06632 0,0.03281 -0.01094,0.08819 -0.02223,0.110066 l -0.639233,2.568575 c -0.05503,0.198614 -0.05503,0.231775 -0.440972,0.231775 -0.07726,0 -0.143228,0 -0.143228,0.09913 0,0.05503 0.03281,0.07726 0.07691,0.07726 0.143581,0 0.507295,-0.02222 0.650523,-0.02222 l 0.375002,0.01094 c 0.132292,0 0.264584,0.01129 0.385586,0.01129 0.03316,0 0.11042,0 0.11042,-0.110419 0,-0.06597 -0.05503,-0.06597 -0.165453,-0.06597 -0.01094,0 -0.132292,0 -0.264583,-0.01129 -0.09913,-0.01094 -0.143228,-0.01094 -0.143228,-0.08819 0,-0.01094 0,-0.03281 0.01094,-0.08819 z"
         style="fill:#000000;fill-opacity:1;fill-rule:nonzero;stroke:none;stroke-width:0.352778" />
      <path
         id="path21-9"
         d="m 75.641903,90.421177 c 0,-0.02187 -0.02187,-0.06597 -0.06597,-0.06597 -0.03316,0 -0.03316,0.01094 -0.09948,0.07726 l -0.242358,0.275519 c -0.187325,-0.264583 -0.496006,-0.352778 -0.79375,-0.352778 -0.69462,0 -1.311981,0.562328 -1.311981,1.135592 0,0.06597 0.02223,0.264583 0.165453,0.451908 0.165453,0.187325 0.352778,0.231423 0.68333,0.319617 0.09948,0.02222 0.341842,0.07726 0.4191,0.09913 0.154164,0.03316 0.451909,0.14358 0.451909,0.507294 0,0.396875 -0.418748,0.871008 -0.970139,0.871008 -0.440972,0 -0.959203,-0.154516 -0.959203,-0.694619 0,-0.05503 0.01129,-0.165453 0.03316,-0.253647 0,-0.02187 0,-0.02187 0,-0.02187 0,-0.06632 -0.05503,-0.06632 -0.07726,-0.06632 -0.06597,0 -0.07691,0.01094 -0.08819,0.09913 l -0.253294,0.981427 c -0.01129,0.02187 -0.02223,0.0441 -0.02223,0.07691 0,0.02223 0.02223,0.05539 0.07726,0.05539 0.02187,0 0.03316,-0.01129 0.09913,-0.06632 0.05503,-0.06597 0.176389,-0.220486 0.231422,-0.27552 0.264583,0.286456 0.639586,0.341842 0.937331,0.341842 0.749652,0 1.344788,-0.639586 1.344788,-1.223786 0,-0.20955 -0.08819,-0.407811 -0.198261,-0.51823 -0.165452,-0.176389 -0.242711,-0.198262 -0.881944,-0.352778 -0.09948,-0.02187 -0.264583,-0.05503 -0.308681,-0.07726 -0.121355,-0.0441 -0.330905,-0.1651 -0.330905,-0.440972 0,-0.396875 0.440972,-0.782461 0.948266,-0.782461 0.540103,0 0.79375,0.297392 0.79375,0.760589 0,0.06597 -0.02223,0.176389 -0.02223,0.220486 0,0.07726 0.05503,0.07726 0.08819,0.07726 0.06632,0 0.07726,-0.03316 0.08819,-0.110419 z"
         style="fill:#000000;fill-opacity:1;fill-rule:nonzero;stroke:none;stroke-width:0.352778" />
    </g>
    <g
       id="g34"
       transform="translate(-147.28318,14.426718)">
      <path
         id="path75"
         d="m 167.41013,69.717397 c -0.0744,-0.264583 -0.36371,-0.396875 -0.65299,-0.396875 -0.1905,0 -0.33902,0.107598 -0.45508,0.297745 -0.1323,0.214841 -0.20673,0.496005 -0.20673,0.521053 0,0.07444 0.0829,0.07444 0.13264,0.07444 0.0579,0 0.0741,0 0.0991,-0.02505 0.0166,-0.0081 0.0166,-0.02469 0.0494,-0.156986 0.0995,-0.405341 0.2152,-0.521052 0.3556,-0.521052 0.0829,0 0.12418,0.04974 0.12418,0.190147 0,0.09102 -0.025,0.173919 -0.0744,0.388761 -0.0413,0.148872 -0.091,0.3556 -0.11571,0.471311 l -0.19015,0.744008 c -0.0166,0.06632 -0.0416,0.173567 -0.0416,0.206728 0,0.107597 0.0829,0.231422 0.24836,0.231422 0.27269,0 0.33055,-0.239536 0.37183,-0.396875 0.0497,-0.198261 0.091,-0.363714 0.14887,-0.595136 0.0166,-0.06632 0.14887,-0.611716 0.16545,-0.628297 0,-0.03316 0.14887,-0.264583 0.32244,-0.413456 0.14887,-0.115711 0.32244,-0.198613 0.54575,-0.198613 0.13229,0 0.26458,0.04974 0.26458,0.306211 0,0.305858 -0.23142,0.917575 -0.3309,1.182158 -0.066,0.140758 -0.0744,0.182033 -0.0744,0.27305 0,0.305858 0.30621,0.470958 0.59548,0.470958 0.55387,0 0.81845,-0.719314 0.81845,-0.818444 0,-0.07444 -0.0744,-0.07444 -0.12383,-0.07444 -0.0663,0 -0.0995,0 -0.12417,0.06632 -0.17357,0.587022 -0.45474,0.636411 -0.53728,0.636411 -0.0416,0 -0.091,0 -0.091,-0.107244 0,-0.124178 0.0494,-0.25647 0.0991,-0.388761 0.091,-0.214842 0.3309,-0.835025 0.3309,-1.124303 0,-0.487892 -0.40534,-0.61207 -0.78563,-0.61207 -0.1076,0 -0.49601,0 -0.86819,0.396875 z"
         style="fill:#000000;fill-opacity:1;fill-rule:nonzero;stroke:none;stroke-width:0.352778" />
      <path
         id="path76"
         d="m 170.95308,71.302075 h 0.38876 c 0.28081,0 0.33055,0.04974 0.33055,0.165453 0,0.05786 0,0.06632 -0.0247,0.173566 -0.008,0.01658 -0.0166,0.03316 -0.0166,0.04163 0,0.03281 0.0332,0.05786 0.066,0.05786 0.0497,0 0.0497,-0.02505 0.0744,-0.09102 l 0.19862,-0.777169 c 0,-0.01658 0.008,-0.06632 0.008,-0.07444 0,-0.04127 -0.0247,-0.05786 -0.0579,-0.05786 -0.0494,0 -0.0579,0.0247 -0.0744,0.09102 -0.0744,0.289277 -0.18168,0.338666 -0.49601,0.338666 h -0.36371 l 0.23142,-0.926041 c 0.0247,-0.107245 0.0332,-0.123825 0.18204,-0.123825 h 0.57044 c 0.48789,0 0.57855,0.115711 0.57855,0.430036 0,0.115711 -0.0162,0.198261 -0.0162,0.222955 0,0.03316 0.0162,0.06632 0.066,0.06632 0.0579,0 0.0579,-0.03316 0.0663,-0.09913 l 0.066,-0.636764 c 0.008,-0.115711 -0.0166,-0.115711 -0.10759,-0.115711 h -1.9678 c -0.0744,0 -0.11571,0 -0.11571,0.08255 0,0.04974 0.0413,0.04974 0.11571,0.04974 0,0 0.0744,0 0.14076,0.0081 0.0744,0.0085 0.0825,0.01658 0.0825,0.04974 0,0.02469 -0.008,0.06597 -0.0166,0.08255 l -0.47943,1.92652 c -0.0413,0.148872 -0.0413,0.173566 -0.3309,0.173566 -0.0579,0 -0.10725,0 -0.10725,0.07444 0,0.04163 0.0247,0.05786 0.0579,0.05786 0.10725,0 0.3803,-0.01623 0.4879,-0.01623 l 0.28081,0.0081 c 0.0995,0 0.19861,0.0081 0.28963,0.0081 0.0247,0 0.0825,0 0.0825,-0.08255 0,-0.04974 -0.0413,-0.04974 -0.12383,-0.04974 -0.008,0 -0.0995,0 -0.19861,-0.0081 -0.0744,-0.0081 -0.1076,-0.0081 -0.1076,-0.06597 0,-0.0085 0,-0.02505 0.008,-0.06632 z"
         style="fill:#000000;fill-opacity:1;fill-rule:nonzero;stroke:none;stroke-width:0.352778" />
    </g>
    <path
       id="path33-2"
       d="m 43.492263,89.059321 -19.065902,-0.0193"
       style="fill:none;stroke:#000000;stroke-width:0.499999;stroke-linecap:butt;stroke-linejoin:miter;stroke-miterlimit:4;stroke-dasharray:none;stroke-opacity:1;marker-end:url(#marker26-7)" />
    <path
       id="path33-2-0"
       d="m 130.79002,96.648731 19.0659,0.0193"
       style="fill:none;stroke:#000000;stroke-width:0.499999;stroke-linecap:butt;stroke-linejoin:miter;stroke-miterlimit:4;stroke-dasharray:none;stroke-opacity:1;marker-end:url(#marker40)" />
    <path
       id="path33-2-8"
       d="m 33.423046,118.94913 -19.065902,-0.0193"
       style="fill:none;stroke:#000000;stroke-width:0.499999;stroke-linecap:butt;stroke-linejoin:miter;stroke-miterlimit:4;stroke-dasharray:none;stroke-opacity:1;marker-end:url(#marker26-7-1)" />
    <g
       id="g33"
       transform="translate(-36.794186,-17.003429)">
      <path
         id="path77"
         d="m 48.408591,130.85804 c -0.0744,-0.26459 -0.36371,-0.39723 -0.65299,-0.39723 -0.19015,0 -0.33902,0.1076 -0.45473,0.29774 -0.13229,0.2152 -0.20673,0.49601 -0.20673,0.52106 0,0.0744 0.0826,0.0744 0.13229,0.0744 0.0579,0 0.0744,0 0.0991,-0.025 0.0166,-0.008 0.0166,-0.0247 0.0497,-0.15699 0.0991,-0.40499 0.21484,-0.5207 0.35524,-0.5207 0.0829,0 0.12418,0.0494 0.12418,0.19015 0,0.0907 -0.0247,0.17356 -0.0744,0.3884 -0.0413,0.14888 -0.091,0.3556 -0.11572,0.47132 l -0.19014,0.74436 c -0.0166,0.066 -0.0413,0.17356 -0.0413,0.20637 0,0.1076 0.0825,0.23178 0.248,0.23178 0.2727,0 0.33056,-0.23989 0.37183,-0.39688 0.0497,-0.19861 0.091,-0.36406 0.14887,-0.59549 0.0166,-0.066 0.14888,-0.61171 0.16546,-0.62829 0,-0.0332 0.14887,-0.26459 0.32244,-0.41346 0.14887,-0.11571 0.32244,-0.19826 0.54574,-0.19826 0.1323,0 0.26459,0.0494 0.26459,0.30586 0,0.30586 -0.23143,0.91757 -0.33091,1.18216 -0.066,0.14075 -0.0741,0.18203 -0.0741,0.27305 0,0.30585 0.30586,0.47131 0.59513,0.47131 0.55386,0 0.81845,-0.71932 0.81845,-0.8188 0,-0.0744 -0.0744,-0.0744 -0.12383,-0.0744 -0.0663,0 -0.0991,0 -0.12417,0.0663 -0.17357,0.58702 -0.45473,0.63676 -0.53728,0.63676 -0.0413,0 -0.091,0 -0.091,-0.1076 0,-0.12418 0.0497,-0.25647 0.0991,-0.38876 0.091,-0.21484 0.3309,-0.83502 0.3309,-1.1243 0,-0.48789 -0.40534,-0.61207 -0.78563,-0.61207 -0.1076,0 -0.49601,0 -0.86819,0.39723 z"
         style="fill:#000000;fill-opacity:1;fill-rule:nonzero;stroke:none;stroke-width:0.352778" />
      <path
         id="path78"
         d="m 53.307621,131.08664 c 0,-0.0166 -0.0166,-0.0497 -0.0497,-0.0497 -0.0247,0 -0.0247,0.008 -0.0744,0.0579 l -0.18168,0.20673 c -0.14076,-0.19826 -0.37218,-0.26458 -0.59549,-0.26458 -0.5207,0 -0.9839,0.42192 -0.9839,0.8516 0,0.0497 0.0166,0.19861 0.12418,0.33902 0.12383,0.14076 0.26458,0.17357 0.51259,0.23989 0.0744,0.0166 0.25611,0.0579 0.31397,0.0744 0.11606,0.0247 0.33902,0.10759 0.33902,0.38029 0,0.29774 -0.31397,0.65334 -0.72743,0.65334 -0.33091,0 -0.71931,-0.11606 -0.71931,-0.52105 0,-0.0413 0.008,-0.12418 0.0247,-0.19015 0,-0.0166 0,-0.0166 0,-0.0166 0,-0.0494 -0.0413,-0.0494 -0.0579,-0.0494 -0.0494,0 -0.0579,0.008 -0.066,0.0741 l -0.19015,0.73589 c -0.008,0.0166 -0.0166,0.0332 -0.0166,0.0579 0,0.0166 0.0166,0.0416 0.0579,0.0416 0.0166,0 0.0247,-0.008 0.0744,-0.0498 0.0413,-0.0497 0.13229,-0.16545 0.17357,-0.20672 0.19826,0.21484 0.47942,0.25647 0.70273,0.25647 0.56233,0 1.00859,-0.47978 1.00859,-0.91793 0,-0.15699 -0.066,-0.30586 -0.14852,-0.38876 -0.12418,-0.13194 -0.18203,-0.14852 -0.66146,-0.26459 -0.0744,-0.0162 -0.19861,-0.0413 -0.23177,-0.0579 -0.091,-0.0328 -0.248,-0.12383 -0.248,-0.33055 0,-0.29775 0.3309,-0.58703 0.7112,-0.58703 0.40498,0 0.59513,0.22331 0.59513,0.57044 0,0.0497 -0.0166,0.1323 -0.0166,0.16546 0,0.0579 0.0416,0.0579 0.0663,0.0579 0.0498,0 0.0579,-0.0247 0.066,-0.0829 z"
         style="fill:#000000;fill-opacity:1;fill-rule:nonzero;stroke:none;stroke-width:0.352778" />
    </g>
    <g
       id="g28"
       transform="translate(16.466645,12.152504)">
      <path
         id="path14"
         d="m 58.164235,88.492189 h -0.176389 c -0.03281,0.176389 -0.06597,0.341841 -0.132291,0.507294 -0.03281,0.110067 -0.05503,0.176389 -0.462845,0.176389 h -0.562327 c 0.09913,-0.396875 0.30868,-0.738717 0.628297,-1.201914 0.330905,-0.496005 0.617361,-0.981075 0.617361,-1.543403 0,-0.970138 -0.947914,-1.763888 -2.138539,-1.763888 -1.201561,0 -2.138891,0.805039 -2.138891,1.763888 0,0.562328 0.286808,1.047398 0.617361,1.543403 0.30868,0.463197 0.529166,0.805039 0.62865,1.201914 h -0.562328 c -0.407811,0 -0.430036,-0.06632 -0.463197,-0.165453 -0.06597,-0.165453 -0.09913,-0.341841 -0.132292,-0.51823 h -0.176389 l 0.231775,1.135591 h 1.124303 c 0.154517,0 0.176389,0 0.176389,-0.143227 0,-0.496359 -0.220486,-1.11372 -0.37465,-1.565628 -0.154517,-0.407811 -0.352778,-0.959203 -0.352778,-1.48837 0,-1.124302 0.782461,-1.609372 1.422047,-1.609372 0.672395,0 1.422047,0.506942 1.422047,1.609372 0,0.529167 -0.198261,1.058334 -0.396875,1.631598 -0.110066,0.297744 -0.330552,0.93733 -0.330552,1.4224 0,0.143227 0.02187,0.143227 0.176388,0.143227 h 1.124303 z"
         style="fill:#000000;fill-opacity:1;fill-rule:nonzero;stroke:none;stroke-width:0.352778" />
      <path
         id="path25"
         d="m 60.166602,89.092969 h 0.51823 c 0.37465,0 0.440973,0.06632 0.440973,0.220486 0,0.07726 0,0.08819 -0.03316,0.231423 -0.01094,0.02223 -0.02187,0.0441 -0.02187,0.05539 0,0.0441 0.0441,0.07691 0.08819,0.07691 0.06597,0 0.06597,-0.03281 0.09913,-0.121003 l 0.264584,-1.036461 c 0,-0.02187 0.01094,-0.08819 0.01094,-0.09913 0,-0.05503 -0.03316,-0.07726 -0.07726,-0.07726 -0.06597,0 -0.0769,0.03316 -0.09913,0.121356 -0.09913,0.385939 -0.242358,0.451908 -0.661458,0.451908 h -0.48507 l 0.308681,-1.234722 c 0.03316,-0.143228 0.0441,-0.165453 0.242711,-0.165453 h 0.760589 c 0.650522,0 0.771525,0.154517 0.771525,0.573264 0,0.154517 -0.02187,0.264584 -0.02187,0.297745 0,0.0441 0.02187,0.08819 0.08819,0.08819 0.07726,0 0.07726,-0.0441 0.08819,-0.132292 l 0.08819,-0.848783 c 0.01094,-0.154516 -0.02222,-0.154516 -0.143228,-0.154516 h -2.623961 c -0.09913,0 -0.154164,0 -0.154164,0.110419 0,0.06597 0.05503,0.06597 0.154164,0.06597 0,0 0.09913,0 0.187325,0.01129 0.09948,0.01094 0.110419,0.02187 0.110419,0.06597 0,0.03316 -0.01094,0.08819 -0.02222,0.110419 l -0.639233,2.568575 c -0.05503,0.198261 -0.05503,0.231422 -0.440972,0.231422 -0.07726,0 -0.143228,0 -0.143228,0.09913 0,0.05539 0.03281,0.07726 0.07691,0.07726 0.14358,0 0.507294,-0.02187 0.650522,-0.02187 l 0.375003,0.01094 c 0.132291,0 0.264583,0.01094 0.385586,0.01094 0.03316,0 0.110419,0 0.110419,-0.110067 0,-0.06632 -0.05503,-0.06632 -0.165453,-0.06632 -0.01094,0 -0.132291,0 -0.264583,-0.01094 -0.09913,-0.01094 -0.143228,-0.01094 -0.143228,-0.08819 0,-0.01094 0,-0.03316 0.01094,-0.08819 z"
         style="fill:#000000;fill-opacity:1;fill-rule:nonzero;stroke:none;stroke-width:0.352778" />
    </g>
    <g
       id="g29"
       transform="translate(7.0654385,36.24017)">
      <path
         id="path28"
         d="m 55.782986,104.36719 h -0.176389 c -0.03281,0.17639 -0.06597,0.34184 -0.132291,0.50729 -0.03281,0.11007 -0.05503,0.17639 -0.462845,0.17639 h -0.562327 c 0.09913,-0.39687 0.30868,-0.73872 0.628297,-1.20191 0.330905,-0.49601 0.617361,-0.98108 0.617361,-1.54341 0,-0.97013 -0.947914,-1.76388 -2.138539,-1.76388 -1.201561,0 -2.138891,0.80503 -2.138891,1.76388 0,0.56233 0.286808,1.0474 0.617361,1.54341 0.30868,0.46319 0.529166,0.80504 0.62865,1.20191 h -0.562328 c -0.407811,0 -0.430036,-0.0663 -0.463197,-0.16545 -0.06597,-0.16545 -0.09913,-0.34184 -0.132292,-0.51823 h -0.176389 l 0.231775,1.13559 h 1.124303 c 0.154516,0 0.176389,0 0.176389,-0.14323 0,-0.49636 -0.220486,-1.11372 -0.37465,-1.56563 -0.154517,-0.40781 -0.352778,-0.9592 -0.352778,-1.48837 0,-1.1243 0.782461,-1.60937 1.422047,-1.60937 0.672395,0 1.422047,0.50694 1.422047,1.60937 0,0.52917 -0.198261,1.05834 -0.396875,1.6316 -0.110066,0.29775 -0.330552,0.93733 -0.330552,1.4224 0,0.14323 0.02187,0.14323 0.176388,0.14323 h 1.124303 z"
         style="fill:#000000;fill-opacity:1;fill-rule:nonzero;stroke:none;stroke-width:0.352778" />
      <path
         id="path17"
         d="m 59.591928,103.16139 c 0,-0.0219 -0.02187,-0.066 -0.06597,-0.066 -0.03316,0 -0.03316,0.0109 -0.09913,0.0769 l -0.242711,0.27587 c -0.187325,-0.26458 -0.496006,-0.35278 -0.79375,-0.35278 -0.69462,0 -1.311981,0.56198 -1.311981,1.13524 0,0.0663 0.02222,0.26459 0.165453,0.45226 0.165453,0.18733 0.352778,0.23143 0.683683,0.31962 0.09913,0.0219 0.341489,0.0773 0.418748,0.0991 0.154163,0.0332 0.451908,0.14323 0.451908,0.5073 0,0.39687 -0.418747,0.87065 -0.970139,0.87065 -0.440972,0 -0.95885,-0.15416 -0.95885,-0.69427 0,-0.0554 0.01094,-0.16545 0.03281,-0.25364 0,-0.0222 0,-0.0222 0,-0.0222 0,-0.066 -0.05503,-0.066 -0.07726,-0.066 -0.06597,0 -0.07691,0.0109 -0.08819,0.0991 l -0.253295,0.98108 c -0.01129,0.0222 -0.02222,0.0441 -0.02222,0.0773 0,0.0222 0.02222,0.055 0.07726,0.055 0.02187,0 0.03316,-0.0109 0.09913,-0.066 0.05539,-0.0663 0.176389,-0.22049 0.231775,-0.27552 0.264583,0.28646 0.639233,0.34149 0.936978,0.34149 0.749653,0 1.344789,-0.63923 1.344789,-1.22343 0,-0.20955 -0.08819,-0.40817 -0.198261,-0.51823 -0.165453,-0.17639 -0.242712,-0.19862 -0.881945,-0.35278 -0.09948,-0.0222 -0.264583,-0.055 -0.30868,-0.0773 -0.121356,-0.0441 -0.330906,-0.16545 -0.330906,-0.44097 0,-0.39688 0.440972,-0.78282 0.948267,-0.78282 0.540102,0 0.79375,0.29775 0.79375,0.76095 0,0.066 -0.02222,0.17638 -0.02222,0.22048 0,0.0769 0.05503,0.0769 0.08819,0.0769 0.06632,0 0.07726,-0.0328 0.08819,-0.11007 z"
         style="fill:#000000;fill-opacity:1;fill-rule:nonzero;stroke:none;stroke-width:0.352778" />
    </g>
    <g
       id="g4128"
       transform="matrix(0.705556,0,0,0.705556,149.77501,89.476761)"
       ns4:version="1.12.0"
       ns4:texconverter="pdflatex"
       ns4:pdfconverter="inkscape"
       ns4:text="$M$"
       ns4:preamble="/home/bouvet/.config/inkscape/extensions/textext/default_packages.tex"
       ns4:scale="2.0"
       ns4:alignment="middle center"
       ns4:inkscapeversion="1.4.2"
       ns4:jacobian_sqrt="0.705556">
      <defs
         id="defs6842">
        <g
           id="g31">
          <g
             id="g30">
            <path
               d="M 9.234375,-6.046875 C 9.328125,-6.40625 9.34375,-6.5 10.09375,-6.5 c 0.21875,0 0.3125,0 0.3125,-0.203125 0,-0.109375 -0.09375,-0.109375 -0.265625,-0.109375 h -1.3125 c -0.265625,0 -0.28125,0 -0.390625,0.1875 L 4.796875,-0.9375 4.015625,-6.578125 C 3.984375,-6.8125 3.96875,-6.8125 3.703125,-6.8125 H 2.34375 c -0.1875,0 -0.296875,0 -0.296875,0.1875 0,0.125 0.09375,0.125 0.28125,0.125 0.140625,0 0.3125,0.015625 0.4375,0.015625 0.15625,0.03125 0.21875,0.046875 0.21875,0.171875 0,0.03125 -0.015625,0.0625 -0.046875,0.1875 l -1.265625,5.0625 c -0.09375,0.40625 -0.265625,0.71875 -1.078125,0.75 -0.046875,0 -0.171875,0.015625 -0.171875,0.1875 0,0.09375 0.0625,0.125 0.140625,0.125 0.3125,0 0.65625,-0.03125 1,-0.03125 C 1.890625,-0.03125 2.25,0 2.578125,0 c 0.046875,0 0.1875,0 0.1875,-0.203125 0,-0.109375 -0.109375,-0.109375 -0.1875,-0.109375 -0.5625,0 -0.671875,-0.203125 -0.671875,-0.4375 0,-0.0625 0,-0.125 0.03125,-0.234375 L 3.296875,-6.40625 H 3.3125 l 0.859375,6.171875 C 4.1875,-0.109375 4.203125,0 4.3125,0 4.421875,0 4.484375,-0.109375 4.53125,-0.171875 l 4.03125,-6.3125 h 0.015625 l -1.4375,5.703125 c -0.09375,0.390625 -0.109375,0.46875 -0.90625,0.46875 -0.15625,0 -0.265625,0 -0.265625,0.1875 C 5.96875,0 6.078125,0 6.109375,0 6.390625,0 7.0625,-0.03125 7.34375,-0.03125 7.75,-0.03125 8.1875,0 8.59375,0 8.65625,0 8.78125,0 8.78125,-0.203125 8.78125,-0.3125 8.6875,-0.3125 8.5,-0.3125 c -0.359375,0 -0.640625,0 -0.640625,-0.171875 0,-0.046875 0,-0.0625 0.046875,-0.25 z m 0,0"
               id="path29" />
          </g>
        </g>
      </defs>
      <g
         fill="#000000"
         fill-opacity="1"
         id="g5262"
         transform="translate(-149.134,-127.953)">
        <g
           transform="translate(148.712,134.765)"
           id="g3218">
          <path
             d="M 9.234375,-6.046875 C 9.328125,-6.40625 9.34375,-6.5 10.09375,-6.5 c 0.21875,0 0.3125,0 0.3125,-0.203125 0,-0.109375 -0.09375,-0.109375 -0.265625,-0.109375 h -1.3125 c -0.265625,0 -0.28125,0 -0.390625,0.1875 L 4.796875,-0.9375 4.015625,-6.578125 C 3.984375,-6.8125 3.96875,-6.8125 3.703125,-6.8125 H 2.34375 c -0.1875,0 -0.296875,0 -0.296875,0.1875 0,0.125 0.09375,0.125 0.28125,0.125 0.140625,0 0.3125,0.015625 0.4375,0.015625 0.15625,0.03125 0.21875,0.046875 0.21875,0.171875 0,0.03125 -0.015625,0.0625 -0.046875,0.1875 l -1.265625,5.0625 c -0.09375,0.40625 -0.265625,0.71875 -1.078125,0.75 -0.046875,0 -0.171875,0.015625 -0.171875,0.1875 0,0.09375 0.0625,0.125 0.140625,0.125 0.3125,0 0.65625,-0.03125 1,-0.03125 C 1.890625,-0.03125 2.25,0 2.578125,0 c 0.046875,0 0.1875,0 0.1875,-0.203125 0,-0.109375 -0.109375,-0.109375 -0.1875,-0.109375 -0.5625,0 -0.671875,-0.203125 -0.671875,-0.4375 0,-0.0625 0,-0.125 0.03125,-0.234375 L 3.296875,-6.40625 H 3.3125 l 0.859375,6.171875 C 4.1875,-0.109375 4.203125,0 4.3125,0 4.421875,0 4.484375,-0.109375 4.53125,-0.171875 l 4.03125,-6.3125 h 0.015625 l -1.4375,5.703125 c -0.09375,0.390625 -0.109375,0.46875 -0.90625,0.46875 -0.15625,0 -0.265625,0 -0.265625,0.1875 C 5.96875,0 6.078125,0 6.109375,0 6.390625,0 7.0625,-0.03125 7.34375,-0.03125 7.75,-0.03125 8.1875,0 8.59375,0 8.65625,0 8.78125,0 8.78125,-0.203125 8.78125,-0.3125 8.6875,-0.3125 8.5,-0.3125 c -0.359375,0 -0.640625,0 -0.640625,-0.171875 0,-0.046875 0,-0.0625 0.046875,-0.25 z m 0,0"
             id="path4110" />
        </g>
      </g>
    </g>
    <g
       id="g9161"
       transform="matrix(0.705556,0,0,0.705556,138.60011,93.410261)"
       ns4:version="1.12.0"
       ns4:texconverter="pdflatex"
       ns4:pdfconverter="inkscape"
       ns4:text="$d$"
       ns4:preamble="/home/bouvet/.config/inkscape/extensions/textext/default_packages.tex"
       ns4:scale="2.0"
       ns4:alignment="middle center"
       ns4:inkscapeversion="1.4.2"
       ns4:jacobian_sqrt="0.705556">
      <defs
         id="defs1368">
        <g
           id="g39">
          <g
             id="g32">
            <path
               d="m 5.140625,-6.8125 c 0,0 0,-0.109375 -0.125,-0.109375 -0.15625,0 -1.09375,0.09375 -1.265625,0.109375 -0.078125,0.015625 -0.140625,0.0625 -0.140625,0.1875 0,0.125 0.09375,0.125 0.234375,0.125 0.484375,0 0.5,0.0625 0.5,0.171875 L 4.3125,-6.125 3.71875,-3.765625 C 3.53125,-4.140625 3.25,-4.40625 2.796875,-4.40625 c -1.15625,0 -2.390625,1.46875 -2.390625,2.921875 0,0.9375 0.546875,1.59375 1.3125,1.59375 0.203125,0 0.703125,-0.046875 1.296875,-0.75 0.078125,0.421875 0.4375,0.75 0.90625,0.75 0.359375,0 0.578125,-0.234375 0.75,-0.546875 0.15625,-0.359375 0.296875,-0.96875 0.296875,-0.984375 0,-0.109375 -0.09375,-0.109375 -0.125,-0.109375 -0.09375,0 -0.109375,0.046875 -0.140625,0.1875 -0.171875,0.640625 -0.34375,1.234375 -0.75,1.234375 -0.28125,0 -0.296875,-0.265625 -0.296875,-0.453125 0,-0.25 0.015625,-0.3125 0.046875,-0.484375 z m -2.0625,5.625 C 3.015625,-1 3.015625,-0.984375 2.875,-0.8125 2.4375,-0.265625 2.03125,-0.109375 1.75,-0.109375 c -0.5,0 -0.640625,-0.546875 -0.640625,-0.9375 0,-0.5 0.3125,-1.71875 0.546875,-2.1875 0.3125,-0.578125 0.75,-0.953125 1.15625,-0.953125 0.640625,0 0.78125,0.8125 0.78125,0.875 0,0.0625 -0.015625,0.125 -0.03125,0.171875 z m 0,0"
               id="path31" />
          </g>
        </g>
      </defs>
      <g
         fill="#000000"
         fill-opacity="1"
         id="g1573"
         transform="translate(-149.118,-127.843)">
        <g
           transform="translate(148.712,134.765)"
           id="g2717">
          <path
             d="m 5.5539866,-11.850632 c 0,0 0,-0.109375 -0.125,-0.109375 -0.15625,0 -1.09375,0.09375 -1.265625,0.109375 -0.078125,0.01563 -0.140625,0.0625 -0.140625,0.1875 0,0.125 0.09375,0.125 0.234375,0.125 0.484375,0 0.5,0.0625 0.5,0.171875 l -0.03125,0.203125 -0.59375,2.3593744 c -0.1875,-0.375 -0.46875,-0.640625 -0.921875,-0.640625 -1.15625,0 -2.39062497,1.46875 -2.39062497,2.921875 0,0.9375 0.54687497,1.59375 1.31249997,1.59375 0.203125,0 0.703125,-0.046875 1.296875,-0.75 0.078125,0.421875 0.4375,0.75 0.90625,0.75 0.359375,0 0.578125,-0.234375 0.75,-0.546875 0.15625,-0.359375 0.296875,-0.96875 0.296875,-0.984375 0,-0.109375 -0.09375,-0.109375 -0.125,-0.109375 -0.09375,0 -0.109375,0.046875 -0.140625,0.1875 -0.171875,0.640625 -0.34375,1.234375 -0.75,1.234375 -0.28125,0 -0.296875,-0.265625 -0.296875,-0.453125 0,-0.25 0.015625,-0.3125 0.046875,-0.484375 z m -2.0625,5.6249994 c -0.0625,0.1875 -0.0625,0.203125 -0.203125,0.375 -0.4375,0.546875 -0.84375,0.703125 -1.125,0.703125 -0.5,0 -0.640625,-0.546875 -0.640625,-0.9375 0,-0.5 0.3125,-1.71875 0.546875,-2.1875 0.3125,-0.578125 0.75,-0.953125 1.15625,-0.953125 0.640625,0 0.78125,0.8125 0.78125,0.875 0,0.0625 -0.015625,0.125 -0.03125,0.171875 z m 0,0"
             id="path2915" />
        </g>
      </g>
    </g>
    <g
       id="g51"
       transform="matrix(1.4079792,0,0,1.4079792,45.63683,-53.24064)">
      <g
         id="g40"
         transform="translate(-0.41694101,-0.02936204)">
        <path
           style="fill:none;stroke:#000000;stroke-width:0.4;stroke-dasharray:none;stroke-dashoffset:0"
           d="m 74.063727,105.82203 1.321313,1.333"
           id="path50" />
        <path
           style="fill:none;stroke:#000000;stroke-width:0.4;stroke-dasharray:none;stroke-dashoffset:0"
           d="m 75.38504,105.82203 -1.306698,1.33885"
           id="path51" />
      </g>
    </g>
    <path
       id="path50-5"
       d="m 150.2811,134.96094 -0.003,-38.302419 -48.12937,0.001"
       style="fill:none;stroke:#000000;stroke-width:0.381186;stroke-linecap:butt;stroke-linejoin:miter;stroke-miterlimit:4;stroke-dasharray:0.381186, 0.762372;stroke-dashoffset:0;stroke-opacity:1" />
    <path
       style="fill:none;fill-opacity:1;stroke:#000000;stroke-width:0.710241;stroke-dasharray:none;stroke-opacity:1;marker-end:url(#ArrowTriangleStylized-2)"
       d="m 180.90825,92.075751 0.0354,16.607499"
       id="path259-1" />
    <g
       id="g48"
       transform="translate(0.38421729,-0.14408151)">
      <path
         id="path246-1"
         d="m 188.17497,71.164991 c 0,-0.15968 -0.13843,-0.34102 -0.34103,-0.34102 -0.19158,0 -0.341,0.14945 -0.341,0.34102 0,0.19236 0.14945,0.34098 0.341,0.34098 0.20257,0 0.34103,-0.18074 0.34103,-0.34098 z m 1.31084,0 c 0,-0.1916 -0.14945,-0.34102 -0.34101,-0.34102 -0.20258,0 -0.34102,0.18134 -0.34102,0.34102 0,0.16027 0.13842,0.34098 0.34102,0.34098 0.19158,0 0.34101,-0.14865 0.34101,-0.34098 z"
         style="fill:#cf007f;fill-opacity:1;fill-rule:nonzero;stroke:none;stroke-width:0.68202;stroke-opacity:1" />
      <path
         id="path247-15"
         d="m 189.29141,74.991121 v 0.53535 l 1.20377,-0.0429 v -0.31918 c -0.41536,0 -0.46854,0 -0.46854,-0.26935 v -2.48051 l -1.23651,0.0532 v 0.32263 c 0.41605,0 0.46923,0 0.46923,0.26661 v 1.30544 c 0,0.55377 -0.35191,0.91934 -0.84229,0.91934 -0.53267,0 -0.5538,-0.17321 -0.5538,-0.54631 v -2.32089 l -1.23854,0.0531 v 0.32259 c 0.41534,0 0.46854,0 0.46854,0.26668 v 1.59317 c 0,0.72705 0.54631,0.87641 1.22832,0.87641 0.1705,0 0.66088,0 0.96982,-0.53539 z"
         style="fill:#cf007f;fill-opacity:1;fill-rule:nonzero;stroke:none;stroke-width:0.68202;stroke-opacity:1" />
      <path
         id="path248-9"
         d="m 193.1114,74.988371 c 0,-0.52517 -0.0642,-0.90842 -0.27691,-1.24124 -0.14944,-0.21349 -0.44739,-0.40515 -0.82046,-0.40515 -1.111,0 -1.111,1.30266 -1.111,1.64639 0,0.341 0,1.61435 1.111,1.61435 1.09737,0 1.09737,-1.27335 1.09737,-1.61435 z m -1.09737,1.4759 c -0.22642,0 -0.51423,-0.1309 -0.61039,-0.51425 -0.0635,-0.27689 -0.0635,-0.67384 -0.0635,-1.02574 0,-0.35395 0,-0.71681 0.0635,-0.97259 0.1071,-0.37509 0.40512,-0.48214 0.61039,-0.48214 0.25578,0 0.5006,0.16027 0.58587,0.43715 0.0751,0.25847 0.0853,0.59949 0.0853,1.01758 0,0.3519 0,0.70588 -0.0635,1.0046 -0.0961,0.43647 -0.41601,0.53539 -0.60768,0.53539 z"
         style="fill:#cf007f;fill-opacity:1;fill-rule:nonzero;stroke:none;stroke-width:0.68202;stroke-opacity:1" />
    </g>
    <path
       d="m 187.92792,100.00866 c 0.0115,-0.0347 0.0232,-0.0809 0.0232,-0.12713 0,-0.12714 -0.0809,-0.19648 -0.20802,-0.19648 -0.0694,0 -0.2774,0.0461 -0.30052,0.31205 -0.13868,-0.26582 -0.39294,-0.46231 -0.69345,-0.46231 -0.83213,0 -1.74519,1.02863 -1.74519,2.09192 0,0.72814 0.4392,1.16732 0.97084,1.16732 0.43917,0 0.78591,-0.34673 0.85525,-0.42763 l 0.0115,0.0115 c -0.15022,0.64723 -0.2427,0.95929 -0.2427,0.97084 -0.0346,0.0694 -0.27738,0.79748 -1.06329,0.79748 -0.13869,0 -0.3814,-0.0115 -0.58943,-0.0809 0.21959,-0.0579 0.30049,-0.25426 0.30049,-0.3814 0,-0.11557 -0.0809,-0.25427 -0.27738,-0.25427 -0.16181,0 -0.39296,0.12713 -0.39296,0.42763 0,0.3005 0.26583,0.45075 0.97085,0.45075 0.92458,0 1.45624,-0.57788 1.57182,-1.01707 z m -0.94771,1.83765 c -0.0461,0.19647 -0.21958,0.3814 -0.38141,0.52009 -0.15024,0.12713 -0.38138,0.26583 -0.60098,0.26583 -0.36985,0 -0.47386,-0.3814 -0.47386,-0.68191 0,-0.34672 0.20803,-1.2251 0.41606,-1.59493 0.19649,-0.35829 0.50854,-0.65879 0.82061,-0.65879 0.4854,0 0.58942,0.60099 0.58942,0.63567 0,0.0347 -0.0115,0.0809 -0.0231,0.10401 z m 0,0"
       id="path8327-5"
       style="fill:#000000;fill-opacity:1;stroke-width:0.739681" />
  </g>
</svg>
