<?xml version="1.0" encoding="UTF-8" standalone="no"?>
<!-- Created with Inkscape (http://www.inkscape.org/) -->

<svg
   width="210mm"
   height="297mm"
   viewBox="0 0 210 297"
   version="1.1"
   id="svg1"
   inkscape:version="1.4.2 (f4327f4, 2025-05-13)"
   sodipodi:docname="tank_param_3d.svg"
   xmlns:inkscape="http://www.inkscape.org/namespaces/inkscape"
   xmlns:sodipodi="http://sodipodi.sourceforge.net/DTD/sodipodi-0.dtd"
   xmlns:xlink="http://www.w3.org/1999/xlink"
   xmlns="http://www.w3.org/2000/svg"
   xmlns:svg="http://www.w3.org/2000/svg">
  <sodipodi:namedview
     id="namedview1"
     pagecolor="#ffffff"
     bordercolor="#000000"
     borderopacity="0.25"
     inkscape:showpageshadow="2"
     inkscape:pageopacity="0.0"
     inkscape:pagecheckerboard="0"
     inkscape:deskcolor="#d1d1d1"
     inkscape:document-units="mm"
     inkscape:zoom="0.97386897"
     inkscape:cx="362.47176"
     inkscape:cy="745.99358"
     inkscape:window-width="1920"
     inkscape:window-height="991"
     inkscape:window-x="-9"
     inkscape:window-y="-9"
     inkscape:window-maximized="1"
     inkscape:current-layer="layer1" />
  <defs
     id="defs1">
    <inkscape:perspective
       sodipodi:type="inkscape:persp3d"
       inkscape:vp_x="0 : 148.5 : 1"
       inkscape:vp_y="0 : 1000 : 0"
       inkscape:vp_z="210 : 148.5 : 1"
       inkscape:persp3d-origin="105 : 99 : 1"
       id="perspective31" />
    <clipPath
       clipPathUnits="userSpaceOnUse"
       id="clipPath409-7">
      <path
         d="M 8.309255,3.3972322e-6 H 172.84453 V -143.45301 H 8.309255 Z"
         id="path409-5"
         style="stroke-width:1.00146" />
    </clipPath>
    <clipPath
       clipPathUnits="userSpaceOnUse"
       id="clipPath396-1">
      <path
         d="M 8.309255,3.3972322e-6 H 172.84453 V -143.45301 H 8.309255 Z"
         id="path396-3"
         style="stroke-width:1.00146" />
    </clipPath>
    <marker
       style="overflow:visible"
       id="ArrowTriangleStylized-2"
       refX="0"
       refY="0"
       orient="auto-start-reverse"
       inkscape:stockid="Stylized triangle arrow"
       markerWidth="1"
       markerHeight="1"
       viewBox="0 0 1 1"
       inkscape:isstock="true"
       inkscape:collect="always"
       preserveAspectRatio="xMidYMid">
      <path
         transform="scale(0.5)"
         style="fill:context-stroke;fill-rule:evenodd;stroke:context-stroke;stroke-width:1pt"
         d="m 6,0 c -3,1 -7,3 -9,5 0,0 0,-4 2,-5 -2,-1 -2,-5 -2,-5 2,2 6,4 9,5 z"
         id="path257-5" />
    </marker>
    <clipPath
       clipPathUnits="userSpaceOnUse"
       id="clipPath398-3">
      <path
         d="M 8.309255,3.3972322e-6 H 172.84453 V -143.45301 H 8.309255 Z"
         id="path398-5"
         style="stroke-width:1.00146" />
    </clipPath>
    <clipPath
       clipPathUnits="userSpaceOnUse"
       id="clipPath397-1">
      <path
         d="M 8.309255,3.3972322e-6 H 172.84453 V -143.45301 H 8.309255 Z"
         id="path397-2"
         style="stroke-width:1.00146" />
    </clipPath>
    <clipPath
       clipPathUnits="userSpaceOnUse"
       id="clipPath409-0">
      <path
         d="M 8.309255,3.3972322e-6 H 172.84453 V -143.45301 H 8.309255 Z"
         id="path409-3"
         style="stroke-width:1.00146" />
    </clipPath>
    <clipPath
       clipPathUnits="userSpaceOnUse"
       id="clipPath410-4">
      <path
         d="M 8.309255,3.3972322e-6 H 172.84453 V -143.45301 H 8.309255 Z"
         id="path410-0"
         style="stroke-width:1.00146" />
    </clipPath>
    <clipPath
       clipPathUnits="userSpaceOnUse"
       id="clipPath407-1">
      <path
         d="M 8.309255,3.3972322e-6 H 172.84453 V -143.45301 H 8.309255 Z"
         id="path407-0"
         style="stroke-width:1.00146" />
    </clipPath>
    <clipPath
       clipPathUnits="userSpaceOnUse"
       id="clipPath405-6">
      <path
         d="M 8.309255,3.3972322e-6 H 172.84453 V -143.45301 H 8.309255 Z"
         id="path405-7"
         style="stroke-width:1.00146" />
    </clipPath>
    <clipPath
       clipPathUnits="userSpaceOnUse"
       id="clipPath435-5">
      <path
         d="M 8.309255,3.3972322e-6 H 172.84453 V -143.45301 H 8.309255 Z"
         id="path435-0"
         style="stroke-width:1.00146" />
    </clipPath>
    <clipPath
       clipPathUnits="userSpaceOnUse"
       id="clipPath411-0">
      <path
         d="M 8.309255,3.3972322e-6 H 172.84453 V -143.45301 H 8.309255 Z"
         id="path411-4"
         style="stroke-width:1.00146" />
    </clipPath>
    <clipPath
       clipPathUnits="userSpaceOnUse"
       id="clipPath402-5">
      <path
         d="M 8.309255,3.3972322e-6 H 172.84453 V -143.45301 H 8.309255 Z"
         id="path402-4"
         style="stroke-width:1.00146" />
    </clipPath>
    <clipPath
       clipPathUnits="userSpaceOnUse"
       id="clipPath400-9">
      <path
         d="M 8.309255,3.3972322e-6 H 172.84453 V -143.45301 H 8.309255 Z"
         id="path400-5"
         style="stroke-width:1.00146" />
    </clipPath>
    <clipPath
       clipPathUnits="userSpaceOnUse"
       id="clipPath403-6">
      <path
         d="M 8.309255,3.3972322e-6 H 172.84453 V -143.45301 H 8.309255 Z"
         id="path403-4"
         style="stroke-width:1.00146" />
    </clipPath>
    <clipPath
       clipPathUnits="userSpaceOnUse"
       id="clipPath436-82">
      <path
         d="M 8.309255,3.3972322e-6 H 172.84453 V -143.45301 H 8.309255 Z"
         id="path436-16"
         style="stroke-width:1.00146" />
    </clipPath>
    <clipPath
       clipPathUnits="userSpaceOnUse"
       id="clipPath404-8">
      <path
         d="M 8.309255,3.3972322e-6 H 172.84453 V -143.45301 H 8.309255 Z"
         id="path404-3"
         style="stroke-width:1.00146" />
    </clipPath>
    <clipPath
       clipPathUnits="userSpaceOnUse"
       id="clipPath413-1">
      <path
         d="M 8.309255,3.3972322e-6 H 172.84453 V -143.45301 H 8.309255 Z"
         id="path413-4"
         style="stroke-width:1.00146" />
    </clipPath>
    <clipPath
       clipPathUnits="userSpaceOnUse"
       id="clipPath401-8">
      <path
         d="M 25.907625,3.3972322e-6 H 155.73159 V -119.32 H 25.907625 Z"
         id="path401-49"
         style="stroke-width:1.00146" />
    </clipPath>
    <clipPath
       clipPathUnits="userSpaceOnUse"
       id="clipPath391-20">
      <path
         d="M 25.907625,2.3162949e-7 H 155.73159 V -119.32002 H 25.907625 Z"
         id="path391-7"
         style="stroke-width:1.00146" />
    </clipPath>
    <clipPath
       clipPathUnits="userSpaceOnUse"
       id="clipPath437-0">
      <path
         d="M 8.309255,3.3972322e-6 H 172.84453 V -143.45301 H 8.309255 Z"
         id="path437-60"
         style="stroke-width:1.00146" />
    </clipPath>
    <clipPath
       clipPathUnits="userSpaceOnUse"
       id="clipPath415-7">
      <path
         d="M 8.309255,3.3972322e-6 H 172.84453 V -143.45301 H 8.309255 Z"
         id="path415-0"
         style="stroke-width:1.00146" />
    </clipPath>
    <clipPath
       clipPathUnits="userSpaceOnUse"
       id="clipPath422-56">
      <path
         d="M 8.309255,3.3972322e-6 H 172.84453 V -143.45301 H 8.309255 Z"
         id="path422-7"
         style="stroke-width:1.00146" />
    </clipPath>
    <clipPath
       clipPathUnits="userSpaceOnUse"
       id="clipPath438-3">
      <path
         d="M 8.3092548,-9.2651777e-7 H 172.84453 V -143.453 H 8.3092548 Z"
         id="path438-8"
         style="stroke-width:1.00146" />
    </clipPath>
    <clipPath
       clipPathUnits="userSpaceOnUse"
       id="clipPath393-49">
      <path
         d="M 8.3092548,-9.2651777e-7 H 172.84453 V -143.453 H 8.3092548 Z"
         id="path393-2"
         style="stroke-width:1.00146" />
    </clipPath>
    <clipPath
       clipPathUnits="userSpaceOnUse"
       id="clipPath392-6">
      <path
         d="M 8.3092545,4.2465403e-6 H 172.84454 V -143.45301 H 8.3092545 Z"
         id="path392-5"
         style="stroke-width:1.00146" />
    </clipPath>
    <clipPath
       clipPathUnits="userSpaceOnUse"
       id="clipPath421-7">
      <path
         d="M 8.3092547,-4.1693303e-6 H 172.84453 V -143.453 H 8.3092547 Z"
         id="path421-7"
         style="stroke-width:1.00146" />
    </clipPath>
    <clipPath
       clipPathUnits="userSpaceOnUse"
       id="clipPath416-79">
      <path
         d="M 8.309255,3.3972322e-6 H 172.84453 V -143.45301 H 8.309255 Z"
         id="path416-8"
         style="stroke-width:1.00146" />
    </clipPath>
    <linearGradient
       inkscape:collect="always"
       xlink:href="#linearGradient382"
       id="linearGradient1"
       gradientUnits="userSpaceOnUse"
       x1="67.954391"
       y1="-50.583622"
       x2="109.52562"
       y2="-70.859268" />
    <linearGradient
       id="linearGradient382"
       inkscape:collect="always">
      <stop
         style="stop-color:#12304d;stop-opacity:1;"
         offset="0"
         id="stop382" />
      <stop
         style="stop-color:#12304d;stop-opacity:0;"
         offset="1"
         id="stop383" />
    </linearGradient>
    <clipPath
       clipPathUnits="userSpaceOnUse"
       id="clipPath379-2">
      <path
         d="M 8.309255,3.3972322e-6 H 172.84453 V -143.45301 H 8.309255 Z"
         id="path380-23"
         style="stroke-width:1.00146" />
    </clipPath>
    <clipPath
       clipPathUnits="userSpaceOnUse"
       id="clipPath418-6">
      <path
         d="M 8.309255,3.3972322e-6 H 172.84453 V -143.45301 H 8.309255 Z"
         id="path418-7"
         style="stroke-width:1.00146" />
    </clipPath>
    <clipPath
       clipPathUnits="userSpaceOnUse"
       id="clipPath419-1">
      <path
         d="M 8.309255,3.3972322e-6 H 172.84453 V -143.45301 H 8.309255 Z"
         id="path419-5"
         style="stroke-width:1.00146" />
    </clipPath>
    <clipPath
       clipPathUnits="userSpaceOnUse"
       id="clipPath417-5">
      <path
         d="M 8.2850002,-3.3972322e-6 H 172.34 V 143.45301 H 8.2850002 Z"
         id="path417-4"
         style="stroke-width:1" />
    </clipPath>
    <clipPath
       clipPathUnits="userSpaceOnUse"
       id="clipPath193-2-2">
      <path
         d="M 8.285,0 H 172.34 V 143.453 H 8.285 Z"
         transform="scale(1.0029276,1)"
         id="path193-1-6" />
    </clipPath>
    <clipPath
       clipPathUnits="userSpaceOnUse"
       id="clipPath195-9-0">
      <path
         d="M 8.285,0 H 172.34 V 143.453 H 8.285 Z"
         transform="scale(1.0029276,1)"
         id="path195-1-6" />
    </clipPath>
    <marker
       style="overflow:visible"
       id="ArrowWide-1"
       refX="0"
       refY="0"
       orient="auto-start-reverse"
       inkscape:stockid="Wide arrow"
       markerWidth="1"
       markerHeight="1"
       viewBox="0 0 1 1"
       inkscape:isstock="true"
       inkscape:collect="always"
       preserveAspectRatio="xMidYMid">
      <path
         style="fill:none;stroke:context-stroke;stroke-width:1;stroke-linecap:butt"
         d="M 3,-3 0,0 3,3"
         transform="rotate(180,0.125,0)"
         sodipodi:nodetypes="ccc"
         id="path126-1" />
    </marker>
    <marker
       style="overflow:visible"
       id="marker128-1"
       refX="0"
       refY="0"
       orient="auto-start-reverse"
       inkscape:stockid="Wide arrow"
       markerWidth="1"
       markerHeight="1"
       viewBox="0 0 1 1"
       inkscape:isstock="true"
       inkscape:collect="always"
       preserveAspectRatio="xMidYMid">
      <path
         style="fill:none;stroke:context-stroke;stroke-width:1;stroke-linecap:butt"
         d="M 3,-3 0,0 3,3"
         transform="rotate(180,0.125,0)"
         sodipodi:nodetypes="ccc"
         id="path128-7" />
    </marker>
    <clipPath
       clipPathUnits="userSpaceOnUse"
       id="clipPath395-6">
      <path
         d="M 8.309255,-2.8567634e-6 H 172.84453 V -143.453 H 8.309255 Z"
         id="path395-4"
         style="stroke-width:1.00146" />
    </clipPath>
    <clipPath
       clipPathUnits="userSpaceOnUse"
       id="clipPath394-0">
      <path
         d="M 8.3092546,-2.0074553e-6 H 172.84453 V -143.45301 H 8.3092546 Z"
         id="path394-7"
         style="stroke-width:1.00146" />
    </clipPath>
    <clipPath
       clipPathUnits="userSpaceOnUse"
       id="clipPath397-1-9">
      <path
         d="M 8.309255,3.3972322e-6 H 172.84453 V -143.45301 H 8.309255 Z"
         id="path397-2-1"
         style="stroke-width:1.00146" />
    </clipPath>
    <clipPath
       clipPathUnits="userSpaceOnUse"
       id="clipPath398-3-8">
      <path
         d="M 8.309255,3.3972322e-6 H 172.84453 V -143.45301 H 8.309255 Z"
         id="path398-5-2"
         style="stroke-width:1.00146" />
    </clipPath>
    <clipPath
       clipPathUnits="userSpaceOnUse"
       id="clipPath419-1-8">
      <path
         d="M 8.309255,3.3972322e-6 H 172.84453 V -143.45301 H 8.309255 Z"
         id="path419-5-0"
         style="stroke-width:1.00146" />
    </clipPath>
    <clipPath
       clipPathUnits="userSpaceOnUse"
       id="clipPath396-1-1">
      <path
         d="M 8.309255,3.3972322e-6 H 172.84453 V -143.45301 H 8.309255 Z"
         id="path396-3-8"
         style="stroke-width:1.00146" />
    </clipPath>
    <clipPath
       clipPathUnits="userSpaceOnUse"
       id="clipPath418-6-4">
      <path
         d="M 8.309255,3.3972322e-6 H 172.84453 V -143.45301 H 8.309255 Z"
         id="path418-7-8"
         style="stroke-width:1.00146" />
    </clipPath>
    <clipPath
       clipPathUnits="userSpaceOnUse"
       id="clipPath416-79-6">
      <path
         d="M 8.309255,3.3972322e-6 H 172.84453 V -143.45301 H 8.309255 Z"
         id="path416-8-0"
         style="stroke-width:1.00146" />
    </clipPath>
    <clipPath
       clipPathUnits="userSpaceOnUse"
       id="clipPath396-1-2">
      <path
         d="M 8.309255,3.3972322e-6 H 172.84453 V -143.45301 H 8.309255 Z"
         id="path396-3-5"
         style="stroke-width:1.00146" />
    </clipPath>
    <clipPath
       clipPathUnits="userSpaceOnUse"
       id="clipPath398-3-6">
      <path
         d="M 8.309255,3.3972322e-6 H 172.84453 V -143.45301 H 8.309255 Z"
         id="path398-5-6"
         style="stroke-width:1.00146" />
    </clipPath>
    <clipPath
       clipPathUnits="userSpaceOnUse"
       id="clipPath396-1-25">
      <path
         d="M 8.309255,3.3972322e-6 H 172.84453 V -143.45301 H 8.309255 Z"
         id="path396-3-3"
         style="stroke-width:1.00146" />
    </clipPath>
    <clipPath
       clipPathUnits="userSpaceOnUse"
       id="clipPath396-1-4">
      <path
         d="M 8.309255,3.3972322e-6 H 172.84453 V -143.45301 H 8.309255 Z"
         id="path396-3-6"
         style="stroke-width:1.00146" />
    </clipPath>
    <clipPath
       clipPathUnits="userSpaceOnUse"
       id="clipPath419-1-5">
      <path
         d="M 8.309255,3.3972322e-6 H 172.84453 V -143.45301 H 8.309255 Z"
         id="path419-5-1"
         style="stroke-width:1.00146" />
    </clipPath>
    <clipPath
       clipPathUnits="userSpaceOnUse"
       id="clipPath437-0-3">
      <path
         d="M 8.309255,3.3972322e-6 H 172.84453 V -143.45301 H 8.309255 Z"
         id="path437-60-3"
         style="stroke-width:1.00146" />
    </clipPath>
    <clipPath
       clipPathUnits="userSpaceOnUse"
       id="clipPath415-7-6">
      <path
         d="M 8.309255,3.3972322e-6 H 172.84453 V -143.45301 H 8.309255 Z"
         id="path415-0-2"
         style="stroke-width:1.00146" />
    </clipPath>
    <clipPath
       clipPathUnits="userSpaceOnUse"
       id="clipPath422-56-8">
      <path
         d="M 8.309255,3.3972322e-6 H 172.84453 V -143.45301 H 8.309255 Z"
         id="path422-7-2"
         style="stroke-width:1.00146" />
    </clipPath>
    <clipPath
       clipPathUnits="userSpaceOnUse"
       id="clipPath379-2-0">
      <path
         d="M 8.309255,3.3972322e-6 H 172.84453 V -143.45301 H 8.309255 Z"
         id="path380-23-5"
         style="stroke-width:1.00146" />
    </clipPath>
    <clipPath
       clipPathUnits="userSpaceOnUse"
       id="clipPath395-6-9">
      <path
         d="M 8.309255,-2.8567634e-6 H 172.84453 V -143.453 H 8.309255 Z"
         id="path395-4-2"
         style="stroke-width:1.00146" />
    </clipPath>
    <clipPath
       clipPathUnits="userSpaceOnUse"
       id="clipPath394-0-1">
      <path
         d="M 8.3092546,-2.0074553e-6 H 172.84453 V -143.45301 H 8.3092546 Z"
         id="path394-7-9"
         style="stroke-width:1.00146" />
    </clipPath>
    <linearGradient
       inkscape:collect="always"
       xlink:href="#linearGradient382"
       id="linearGradient1-9"
       gradientUnits="userSpaceOnUse"
       x1="67.954391"
       y1="-50.583622"
       x2="109.52562"
       y2="-70.859268" />
    <clipPath
       clipPathUnits="userSpaceOnUse"
       id="clipPath379-2-8">
      <path
         d="M 8.309255,3.3972322e-6 H 172.84453 V -143.45301 H 8.309255 Z"
         id="path380-23-9"
         style="stroke-width:1.00146" />
    </clipPath>
    <clipPath
       clipPathUnits="userSpaceOnUse"
       id="clipPath395-6-2">
      <path
         d="M 8.309255,-2.8567634e-6 H 172.84453 V -143.453 H 8.309255 Z"
         id="path395-4-8"
         style="stroke-width:1.00146" />
    </clipPath>
    <clipPath
       clipPathUnits="userSpaceOnUse"
       id="clipPath394-0-7">
      <path
         d="M 8.3092546,-2.0074553e-6 H 172.84453 V -143.45301 H 8.3092546 Z"
         id="path394-7-0"
         style="stroke-width:1.00146" />
    </clipPath>
    <clipPath
       clipPathUnits="userSpaceOnUse"
       id="clipPath435-5-7">
      <path
         d="M 8.309255,3.3972322e-6 H 172.84453 V -143.45301 H 8.309255 Z"
         id="path435-0-9"
         style="stroke-width:1.00146" />
    </clipPath>
    <clipPath
       clipPathUnits="userSpaceOnUse"
       id="clipPath411-0-8">
      <path
         d="M 8.309255,3.3972322e-6 H 172.84453 V -143.45301 H 8.309255 Z"
         id="path411-4-0"
         style="stroke-width:1.00146" />
    </clipPath>
    <clipPath
       clipPathUnits="userSpaceOnUse"
       id="clipPath402-5-1">
      <path
         d="M 8.309255,3.3972322e-6 H 172.84453 V -143.45301 H 8.309255 Z"
         id="path402-4-4"
         style="stroke-width:1.00146" />
    </clipPath>
    <clipPath
       clipPathUnits="userSpaceOnUse"
       id="clipPath437-0-5">
      <path
         d="M 8.309255,3.3972322e-6 H 172.84453 V -143.45301 H 8.309255 Z"
         id="path437-60-9"
         style="stroke-width:1.00146" />
    </clipPath>
    <clipPath
       clipPathUnits="userSpaceOnUse"
       id="clipPath415-7-0">
      <path
         d="M 8.309255,3.3972322e-6 H 172.84453 V -143.45301 H 8.309255 Z"
         id="path415-0-8"
         style="stroke-width:1.00146" />
    </clipPath>
    <clipPath
       clipPathUnits="userSpaceOnUse"
       id="clipPath422-56-3">
      <path
         d="M 8.309255,3.3972322e-6 H 172.84453 V -143.45301 H 8.309255 Z"
         id="path422-7-8"
         style="stroke-width:1.00146" />
    </clipPath>
  </defs>
  <g
     inkscape:label="Layer 1"
     inkscape:groupmode="layer"
     id="layer1">
    <path
       d="m 139.928,-77.258 32.09264,-32.29993"
       style="display:inline;fill:none;stroke:#000000;stroke-width:0.47342;stroke-linecap:butt;stroke-linejoin:miter;stroke-miterlimit:10;stroke-dasharray:1.89368, 1.89368;stroke-dashoffset:0;stroke-opacity:1"
       transform="matrix(1.4465973,0,0,-1.4508324,207.26238,-51.91901)"
       clip-path="url(#clipPath410-4)"
       id="path33-6"
       sodipodi:nodetypes="cc" />
    <path
       d="m 54.613,-119.914 -17.062,-8.531"
       style="display:inline;fill:none;stroke:#000000;stroke-width:0.485644;stroke-linecap:butt;stroke-linejoin:miter;stroke-miterlimit:10;stroke-dasharray:1.94257, 1.94257;stroke-dashoffset:0;stroke-opacity:1"
       transform="matrix(1.4101877,0,0,-1.4143162,319.92087,-139.19448)"
       clip-path="url(#clipPath400-9)"
       id="path55-1" />
    <path
       d="M 26.174,-91.477 9.113,-100.008"
       style="display:inline;fill:none;stroke:#000000;stroke-width:0.485644;stroke-linecap:butt;stroke-linejoin:miter;stroke-miterlimit:10;stroke-dasharray:1.94257, 1.94257;stroke-dashoffset:0;stroke-opacity:1"
       transform="matrix(1.4101877,0,0,-1.4143162,325.71429,-149.07479)"
       clip-path="url(#clipPath403-6)"
       id="path58-9" />
    <g
       id="g17"
       transform="matrix(0.68585046,0,0,0.68585046,326.79599,-319.5808)"
       style="display:inline">
      <path
         d="M 43.24,-125.602 14.801,-97.164"
         style="fill:none;stroke:#000000;stroke-width:0.492325;stroke-linecap:butt;stroke-linejoin:miter;stroke-miterlimit:10;stroke-dasharray:none;stroke-opacity:1"
         transform="matrix(1.926801,0,0,-1.9324418,21.486089,250.77789)"
         clip-path="url(#clipPath436-82)"
         id="path63-1" />
      <path
         d="m 40.771,-120.418 1.963,-4.676 -4.678,1.957"
         style="fill:none;stroke:#000000;stroke-width:0.473966;stroke-linecap:butt;stroke-linejoin:miter;stroke-miterlimit:10;stroke-dasharray:none;stroke-opacity:1"
         transform="matrix(2.0561154,0,0,-2.0621349,17.615125,236.21375)"
         clip-path="url(#clipPath404-8)"
         id="path68-2" />
      <path
         d="m 17.265,-102.344 -1.959,4.676 4.678,-1.961"
         style="fill:none;stroke:#000000;stroke-width:0.473966;stroke-linecap:butt;stroke-linejoin:miter;stroke-miterlimit:10;stroke-dasharray:none;stroke-opacity:1"
         transform="matrix(2.0561154,0,0,-2.0621349,17.615125,236.21375)"
         clip-path="url(#clipPath413-1)"
         id="path71-7" />
    </g>
    <g
       id="g16"
       transform="matrix(0.68585046,0,0,0.68585046,235.05114,-189.37054)"
       style="display:inline">
      <path
         d="M 159.959,-97.414 74.08,-138.934"
         style="fill:none;stroke:#000000;stroke-width:0.467348;stroke-linecap:butt;stroke-linejoin:miter;stroke-miterlimit:10;stroke-dasharray:none;stroke-opacity:1"
         transform="matrix(2.0297795,0,0,-2.0357218,36.721101,256.25622)"
         clip-path="url(#clipPath438-3)"
         id="path92-3" />
      <path
         d="m 154.271,-98.047 5.057,0.317 -3.412,-3.731"
         style="fill:none;stroke:#000000;stroke-width:0.473966;stroke-linecap:butt;stroke-linejoin:miter;stroke-miterlimit:10;stroke-dasharray:none;stroke-opacity:1"
         transform="matrix(2.0561154,0,0,-2.0621349,34.607475,252.66359)"
         clip-path="url(#clipPath393-49)"
         id="path97-9" />
      <path
         d="m 79.764,-138.305 -5.054,-0.312 3.413,3.726"
         style="fill:none;stroke:#000000;stroke-width:0.473966;stroke-linecap:butt;stroke-linejoin:miter;stroke-miterlimit:10;stroke-dasharray:none;stroke-opacity:1"
         transform="matrix(2.0561154,0,0,-2.0621349,33.45027,253.26007)"
         clip-path="url(#clipPath392-6)"
         id="path100-9" />
    </g>
    <path
       d="m 370.9538,6.5285045 c -0.26519,-0.53037 -0.66296,-0.90601 -1.30383,-0.90601 -1.6353,0 -3.3811,2.07724 -3.3811,4.13239 0,1.3260195 0.77345,2.2541195 1.85629,2.2541195 0.28729,0 0.99444,-0.0665 1.83419,-1.06074 0.1105,0.59669 0.61877,1.06074 1.28173,1.06074 0.50827,0 0.81765,-0.33148 1.06074,-0.77344 0.22099,-0.50828 0.41987,-1.3701895 0.41987,-1.3922095 0,-0.15466 -0.13259,-0.15466 -0.17679,-0.15466 -0.13259,0 -0.15469,0.0665 -0.19889,0.26515 -0.24308,0.9060095 -0.48617,1.7457695 -1.06073,1.7457695 -0.39778,0 -0.41988,-0.37571 -0.41988,-0.64086 0,-0.30939 0.0221,-0.44196 0.17679,-1.0607395 0.15469,-0.5746 0.17679,-0.72926 0.30938,-1.25956 l 0.50827,-1.96681 c 0.0884,-0.3978 0.0884,-0.41988 0.0884,-0.4862 0,-0.24307 -0.15468,-0.37571 -0.39778,-0.37571 -0.35357,0 -0.55246,0.30945 -0.59666,0.61877 z m -0.90605,3.6463295 c -0.0884,0.26515 -0.0884,0.2873 -0.28728,0.53036 -0.61877,0.77344 -1.19333,0.99442 -1.59111,0.99442 -0.70716,0 -0.90605,-0.77344 -0.90605,-1.32596 0,-0.7071095 0.44198,-2.4307895 0.77346,-3.0937295 0.44197,-0.81767 1.06074,-1.34804 1.6353,-1.34804 0.90605,0 1.10494,1.14907 1.10494,1.23755 0,0.0883 -0.0221,0.17674 -0.0442,0.24306 z m 0,0"
       id="path5731-8"
       style="display:inline;fill:#000000;fill-opacity:1;stroke-width:1.41432" />
    <path
       d="m 446.09335,165.87948 c 0,0 0,-0.15473 -0.1768,-0.15473 -0.30938,0 -1.34801,0.11049 -1.72369,0.15473 -0.11049,0 -0.26519,0.0219 -0.26519,0.26514 0,0.17682 0.1326,0.17682 0.35358,0.17682 0.66296,0 0.68507,0.0883 0.68507,0.24306 0,0.0884 -0.1105,0.57454 -0.1768,0.86184 l -1.17123,4.5965 c -0.15469,0.70725 -0.22098,0.95025 -0.22098,1.43645 0,1.32595 0.75135,2.20988 1.78999,2.20988 1.6574,0 3.4032,-2.09932 3.4032,-4.13246 0,-1.28171 -0.75136,-2.25404 -1.87839,-2.25404 -0.64086,0 -1.23752,0.41987 -1.6574,0.83975 z m -1.30383,5.32576 c 0.0663,-0.30939 0.0663,-0.33147 0.19889,-0.48613 0.68507,-0.90608 1.32592,-1.12706 1.7016,-1.12706 0.50828,0 0.88396,0.41988 0.88396,1.32589 0,0.83975 -0.46408,2.45294 -0.72927,2.98338 -0.46407,0.95024 -1.10494,1.45846 -1.6574,1.45846 -0.48618,0 -0.95025,-0.37571 -0.95025,-1.41429 0,-0.2873 0,-0.55245 0.221,-1.43638 z m 0,0"
       id="path2907-1"
       style="display:inline;fill:#000000;fill-opacity:1;stroke-width:1.41432" />
    <g
       id="g1"
       transform="translate(0,1.0583361)">
      <g
         id="g69"
         transform="translate(6.7091961,-121.46364)">
        <path
           d="M 151.301,-23.223 V -71.57"
           style="fill:none;stroke:#000000;stroke-width:0.473966;stroke-linecap:butt;stroke-linejoin:miter;stroke-miterlimit:10;stroke-dasharray:none;stroke-opacity:1"
           transform="matrix(0.92742935,0,0,-0.90542385,13.593547,158.13898)"
           clip-path="url(#clipPath435-5-7)"
           id="path45-6-5" />
        <path
           d="m 149.405,-28.66 1.896,4.742 1.896,-4.742"
           style="fill:none;stroke:#000000;stroke-width:0.473966;stroke-linecap:butt;stroke-linejoin:miter;stroke-miterlimit:10;stroke-dasharray:none;stroke-opacity:1"
           transform="matrix(0.92742935,0,0,-0.93014451,13.597914,156.70508)"
           clip-path="url(#clipPath411-0-8)"
           id="path49-7-0" />
        <path
           d="m 153.197,-66.133 -1.896,-4.742 -1.896,4.742"
           style="fill:none;stroke:#000000;stroke-width:0.473966;stroke-linecap:butt;stroke-linejoin:miter;stroke-miterlimit:10;stroke-dasharray:none;stroke-opacity:1"
           transform="matrix(0.92742935,0,0,-0.93014451,13.593547,157.33909)"
           clip-path="url(#clipPath402-5-1)"
           id="path52-7-9" />
      </g>
      <path
         d="m 111.49,-91.477 v 28.438 L 92.128096,-30.195071 65.99,-71.57 l 45.5,-19.907"
         style="display:inline;fill:url(#linearGradient1-9);fill-opacity:1;fill-rule:evenodd;stroke:#12304d;stroke-width:0.75228;stroke-linecap:round;stroke-linejoin:round;stroke-miterlimit:10;stroke-dasharray:none;stroke-opacity:1"
         transform="matrix(0.92742935,0,0,-0.93014451,24.332862,33.33284)"
         clip-path="url(#clipPath379-2-8)"
         id="path175-6-5"
         sodipodi:nodetypes="ccccc" />
      <path
         style="fill:none;stroke:#12304d;stroke-width:0.880612;stroke-dasharray:none"
         d="m 48.830817,118.44431 79.124553,-39.6809 26.37424,26.45517"
         id="path1" />
      <path
         d="m 54.613,-71.57 85.315,42.66"
         style="fill:none;stroke:#137f6d;stroke-width:0.947931;stroke-linecap:round;stroke-linejoin:round;stroke-miterlimit:10;stroke-dasharray:none;stroke-opacity:1"
         transform="matrix(0.92742935,0,0,-0.93014451,24.556283,33.29187)"
         clip-path="url(#clipPath419-1-5)"
         id="path181-4-5" />
      <path
         style="display:inline;fill:none;stroke:#12304d;stroke-width:0.880612;stroke-dasharray:none"
         d="M 127.95537,78.76341 V 9.42559"
         id="path2-4" />
      <path
         style="fill:#137f6d;fill-opacity:0.488746;stroke:none;stroke-width:0.880612;stroke-linecap:round;stroke-linejoin:round;stroke-dasharray:none;stroke-opacity:1"
         d="M 48.830817,73.29289 75.205982,99.86232 154.32962,60.18235 127.95538,33.61664 Z"
         id="path57"
         inkscape:label="path57" />
      <path
         style="fill:#137f6d;fill-opacity:0.488746;stroke:none;stroke-width:0.880612;stroke-linecap:round;stroke-linejoin:round;stroke-dasharray:none;stroke-opacity:1"
         d="m 75.205982,99.86232 v 45.03251 L 154.32962,105.21858 V 60.18235 Z"
         id="path56" />
      <path
         d="m 166.24021,77.50605 c 0,0 0,-0.10172 -0.11627,-0.10172 -0.21801,0 -0.88654,0.0727 -1.13361,0.10172 -0.0727,0 -0.17441,0.0146 -0.17441,0.17441 0,0.11627 0.0872,0.11627 0.218,0.11627 0.45054,0 0.46508,0.0581 0.46508,0.15986 l -0.0291,0.18894 -1.33708,5.33381 c -0.0436,0.13079 -0.0436,0.14533 -0.0436,0.20346 0,0.218 0.18894,0.2616 0.27614,0.2616 0.14534,0 0.29067,-0.11627 0.33427,-0.24707 l 0.1744,-0.6976 0.20347,-0.82841 c 0.0581,-0.218 0.11627,-0.42148 0.15988,-0.62494 0.0145,-0.0581 0.10173,-0.36335 0.10173,-0.42148 0.0291,-0.0872 0.31973,-0.59587 0.63947,-0.85748 0.20347,-0.14533 0.47961,-0.31973 0.88654,-0.31973 0.39241,0 0.49414,0.31973 0.49414,0.65401 0,0.49414 -0.3488,1.51148 -0.5668,2.07829 -0.0727,0.20347 -0.13081,0.31974 -0.13081,0.50867 0,0.43601 0.33428,0.75574 0.77028,0.75574 0.87201,0 1.20628,-1.35161 1.20628,-1.42428 0,-0.10173 -0.0727,-0.10173 -0.10173,-0.10173 -0.10174,0 -0.10174,0.0291 -0.14533,0.1744 -0.13081,0.49414 -0.43602,1.14815 -0.94469,1.14815 -0.15986,0 -0.218,-0.0872 -0.218,-0.30521 0,-0.23254 0.0727,-0.45054 0.15987,-0.65401 0.14533,-0.40694 0.5668,-1.51148 0.5668,-2.04922 0,-0.59588 -0.36333,-0.98828 -1.06094,-0.98828 -0.58134,0 -1.03188,0.29067 -1.38068,0.71214 z m 0,0"
         id="path9493-47-5"
         style="fill:#000000;fill-opacity:1;stroke-width:0.930147" />
      <path
         style="fill:#137f6d;fill-opacity:0.488746;stroke:none;stroke-width:0.880612;stroke-linecap:round;stroke-linejoin:round;stroke-dasharray:none;stroke-opacity:1"
         d="m 48.830817,73.29289 v 45.15142 l 26.375165,26.45052 V 99.86232 Z"
         id="path55" />
      <path
         style="fill:none;fill-opacity:1;stroke:#12304d;stroke-width:0.344718;stroke-dasharray:0.344718, 0.344718;stroke-dashoffset:0;stroke-opacity:1"
         d="M 48.83037,91.9695 75.205541,118.42373 154.32916,78.74377 127.95493,52.29326 Z"
         id="path373-8-3" />
      <path
         style="fill:none;stroke:#137f6d;stroke-width:0.880612;stroke-linejoin:round;stroke-dasharray:none;stroke-opacity:1"
         d="m 127.95538,33.61664 26.37423,26.56571"
         id="path4" />
      <path
         style="fill:none;stroke:#137f6d;stroke-width:0.880612;stroke-linejoin:round;stroke-dasharray:none;stroke-opacity:1"
         d="M 48.830824,73.29289 75.205982,99.86232"
         id="path5" />
      <path
         d="M 26.174,-43.129 111.49,-0.473"
         style="fill:none;stroke:#137f6d;stroke-width:0.947931;stroke-linecap:round;stroke-linejoin:round;stroke-miterlimit:10;stroke-dasharray:none;stroke-opacity:1"
         transform="matrix(0.92742935,0,0,-0.93014451,24.55629,33.17668)"
         clip-path="url(#clipPath398-3-6)"
         id="path14-5-4" />
      <path
         d="m 26.174,-91.477 28.439,-28.437 85.315,42.656"
         style="fill:none;stroke:#12304d;stroke-width:0.948132;stroke-linecap:round;stroke-linejoin:round;stroke-miterlimit:10;stroke-dasharray:none;stroke-opacity:1"
         transform="matrix(0.92742935,0,0,-0.93014451,24.556283,33.35747)"
         clip-path="url(#clipPath418-6-4)"
         id="path178-4-6" />
      <path
         style="fill:none;stroke:#12304d;stroke-width:0.880612;stroke-dasharray:none"
         d="M 48.830824,118.44431 V 49.10648"
         id="path2" />
      <path
         style="fill:none;stroke:#12304d;stroke-width:0.880612;stroke-linecap:round;stroke-linejoin:round;stroke-dasharray:none"
         d="M 48.830817,49.10647 75.316193,75.09712 154.32962,35.88075 127.95538,9.42559 Z"
         id="path6" />
      <path
         style="fill:none;stroke:#12304d;stroke-width:0.880612;stroke-dasharray:none"
         d="M 154.32961,105.21858 V 35.88075"
         id="path2-4-5" />
      <path
         style="fill:none;stroke:#12304d;stroke-width:0.880612;stroke-dasharray:none"
         d="M 75.316186,144.43495 V 75.09712"
         id="path2-4-4" />
      <path
         style="fill:#137f6d;fill-opacity:0.488746;stroke:#12304d;stroke-width:0.880612;stroke-linecap:butt;stroke-linejoin:round;stroke-dasharray:none;stroke-opacity:1"
         d="m 127.73196,91.96822 v 26.82653"
         id="path58"
         sodipodi:nodetypes="cc" />
      <g
         id="g68"
         transform="translate(5.6607024,-119.72871)">
        <path
           d="M 117.178,-60.195 V -88.633"
           style="fill:none;stroke:#000000;stroke-width:0.479317;stroke-linecap:butt;stroke-linejoin:miter;stroke-miterlimit:10;stroke-dasharray:none;stroke-opacity:1"
           transform="matrix(0.92742935,0,0,-0.8617607,19.005785,158.04603)"
           clip-path="url(#clipPath437-0-5)"
           id="path79-6-9" />
        <path
           d="m 115.282,-65.629 1.896,4.742 1.896,-4.742"
           style="fill:none;stroke:#000000;stroke-width:0.473966;stroke-linecap:butt;stroke-linejoin:miter;stroke-miterlimit:10;stroke-dasharray:none;stroke-opacity:1"
           transform="matrix(0.92742935,0,0,-0.93014451,19.005785,153.07772)"
           clip-path="url(#clipPath415-7-0)"
           id="path84-5-3" />
        <path
           d="m 119.074,-83.195 -1.896,-4.743 -1.896,4.743"
           style="fill:none;stroke:#000000;stroke-width:0.473966;stroke-linecap:butt;stroke-linejoin:miter;stroke-miterlimit:10;stroke-dasharray:none;stroke-opacity:1"
           transform="matrix(0.92742935,0,0,-0.93014451,19.005785,153.07772)"
           clip-path="url(#clipPath422-56-3)"
           id="path87-1-8" />
      </g>
      <path
         d="m 137.66902,102.30232 c 0.27614,0 0.95922,-0.0289 1.42428,-0.21801 0.65402,-0.27613 0.69761,-0.82841 0.69761,-0.95922 0,-0.40694 -0.3488,-0.7848 -0.98828,-0.7848 -1.03188,0 -2.44162,0.90109 -2.44162,2.52883 0,0.94469 0.55226,1.67135 1.46788,1.67135 1.32255,0 2.09283,-0.98827 2.09283,-1.08998 0,-0.0581 -0.0436,-0.13081 -0.10174,-0.13081 -0.0581,0 -0.0727,0.0289 -0.1308,0.10171 -0.72667,0.91561 -1.74402,0.91561 -1.84576,0.91561 -0.72667,0 -0.81387,-0.7848 -0.81387,-1.07546 0,-0.11629 0.0145,-0.39242 0.14533,-0.95922 z m -0.436,-0.20348 c 0.36334,-1.40974 1.32254,-1.55507 1.56961,-1.55507 0.42148,0 0.68308,0.27614 0.68308,0.58132 0,0.97375 -1.48242,0.97375 -1.87482,0.97375 z m 0,0"
         id="path247-1-3-8"
         style="fill:#000000;fill-opacity:1;stroke-width:0.930147" />
      <path
         style="fill:#137f6d;fill-opacity:0.488746;stroke:#12304d;stroke-width:0.880612;stroke-linecap:butt;stroke-linejoin:round;stroke-dasharray:none;stroke-opacity:1"
         d="m 127.95537,32.20691 v 2.46796"
         id="path64"
         sodipodi:nodetypes="cc" />
    </g>
    <g
       id="g2">
      <path
         d="M 111.49,-48.816 V -0.473 L 139.928,-28.91 V -77.258"
         style="fill:none;stroke:#12304d;stroke-width:0.947931;stroke-linecap:round;stroke-linejoin:round;stroke-miterlimit:10;stroke-dasharray:none;stroke-opacity:1"
         transform="matrix(0.92742935,0,0,-0.93014451,24.556283,152.42016)"
         clip-path="url(#clipPath396-1)"
         id="path13-1" />
      <path
         d="M 26.174,-43.129 111.49,-0.473"
         style="fill:none;stroke:#137f6d;stroke-width:0.947931;stroke-linecap:round;stroke-linejoin:round;stroke-miterlimit:10;stroke-dasharray:none;stroke-opacity:1"
         transform="matrix(0.92742935,0,0,-0.93014451,24.556283,152.42016)"
         clip-path="url(#clipPath398-3)"
         id="path14-5" />
      <path
         style="fill:none;fill-opacity:1;stroke:#000000;stroke-width:1.04641;stroke-dasharray:none;stroke-opacity:1;marker-end:url(#ArrowTriangleStylized-2)"
         d="m 191.72711,159.10602 0.0522,24.46809"
         id="path259-1" />
      <path
         d="m 81.76584,158.69369 c 0.05813,-0.23254 0.276138,-1.09001 0.915609,-1.09001 0.04362,0 0.276139,0 0.465074,0.11627 -0.261605,0.0581 -0.436003,0.27613 -0.436003,0.50867 0,0.14534 0.101732,0.31973 0.348804,0.31973 0.203468,0 0.494139,-0.15986 0.494139,-0.53774 0,-0.4796 -0.537738,-0.6104 -0.857481,-0.6104 -0.537739,0 -0.857476,0.49414 -0.973741,0.69761 -0.232539,-0.61041 -0.726679,-0.69761 -1.002813,-0.69761 -0.959213,0 -1.496952,1.19175 -1.496952,1.42428 0,0.10174 0.101733,0.10174 0.116266,0.10174 0.07267,0 0.101731,-0.0291 0.116269,-0.10174 0.319737,-0.98827 0.930142,-1.22081 1.249884,-1.22081 0.174398,0 0.494135,0.0872 0.494135,0.62494 0,0.29067 -0.159864,0.90108 -0.494135,2.20909 -0.145335,0.56681 -0.479606,0.95921 -0.886547,0.95921 -0.05813,0 -0.261605,0 -0.465073,-0.11627 0.232538,-0.0581 0.436006,-0.24706 0.436006,-0.50867 0,-0.24707 -0.203468,-0.31973 -0.33427,-0.31973 -0.290671,0 -0.508673,0.23253 -0.508673,0.53774 0,0.42147 0.450536,0.61041 0.857476,0.61041 0.624938,0 0.959214,-0.65402 0.973747,-0.69761 0.116265,0.33427 0.45054,0.69761 1.002813,0.69761 0.959212,0 1.482418,-1.19175 1.482418,-1.42429 0,-0.10173 -0.07267,-0.10173 -0.101736,-0.10173 -0.0872,0 -0.101732,0.0436 -0.130798,0.10173 -0.305209,1.00282 -0.930147,1.22081 -1.220818,1.22081 -0.363337,0 -0.508673,-0.29066 -0.508673,-0.6104 0,-0.20347 0.04362,-0.40694 0.145336,-0.81388 z m 0,0"
         id="path9173-5"
         style="fill:#d10000;fill-opacity:1;stroke:#c31b31;stroke-width:0;stroke-opacity:1" />
      <path
         style="fill:#137f6d;fill-opacity:0.488746;stroke:#137f6d;stroke-width:0.880612;stroke-linecap:butt;stroke-linejoin:round;stroke-dasharray:none;stroke-opacity:1"
         d="m 127.95538,152.86011 26.37423,26.45052"
         id="path65" />
      <g
         id="g19"
         transform="matrix(0.45105899,0,0,0.45105899,16.610823,45.873824)">
        <path
           id="path241-2"
           d="m -124.99515,165.50575 -42.88886,-42.8996"
           style="fill:#ffffff;fill-opacity:1;fill-rule:nonzero;stroke:#000000;stroke-width:1.33046;stroke-linecap:butt;stroke-linejoin:miter;stroke-miterlimit:4;stroke-dasharray:none;stroke-opacity:1"
           transform="matrix(0.88028489,0,0,0.88028489,181.26176,279.0625)" />
        <path
           id="path242-4"
           d="m 31.090904,384.59856 5.646764,1.50612 -4.130033,4.14903 z"
           style="fill:#000000;fill-opacity:1;fill-rule:evenodd;stroke:#000000;stroke-width:0.780788;stroke-linecap:butt;stroke-linejoin:miter;stroke-miterlimit:4;stroke-dasharray:none;stroke-opacity:1" />
      </g>
      <g
         id="g20"
         transform="matrix(0.45105899,0,0,0.45105899,16.610823,45.873824)">
        <path
           id="path237-8"
           d="m 129.90576,385.00303 -0.0965,-32.02905"
           style="fill:#ffffff;fill-opacity:1;fill-rule:nonzero;stroke:#000000;stroke-width:1.171;stroke-linecap:butt;stroke-linejoin:miter;stroke-miterlimit:4;stroke-dasharray:none;stroke-opacity:1" />
        <path
           id="path238-5"
           d="m 129.80065,349.59212 2.94054,5.05815 -5.84758,0.0176 z"
           style="fill:#000000;fill-opacity:1;fill-rule:evenodd;stroke:#000000;stroke-width:0.781;stroke-linecap:butt;stroke-linejoin:miter;stroke-miterlimit:4;stroke-dasharray:none;stroke-opacity:1" />
      </g>
      <g
         id="g22"
         transform="matrix(0.45105899,0,0,0.45105899,16.610823,45.873824)">
        <path
           id="path240-3"
           d="m 376.55527,359.77965 -3.21463,4.89817 -2.6156,-5.24294 z"
           style="fill:#000000;fill-opacity:1;fill-rule:evenodd;stroke:#000000;stroke-width:0.780788;stroke-linecap:butt;stroke-linejoin:miter;stroke-miterlimit:4;stroke-dasharray:none;stroke-opacity:1" />
        <path
           id="path239-8"
           d="M 305.32324,395.53017 372.91391,361.5771"
           style="fill:#ffffff;fill-opacity:1;fill-rule:nonzero;stroke:#000000;stroke-width:1.17118;stroke-linecap:butt;stroke-linejoin:miter;stroke-miterlimit:4;stroke-dasharray:none;stroke-opacity:1" />
      </g>
      <path
         d="m 102.36079,-82.073692 31.55642,-31.253458"
         style="display:inline;fill:none;stroke:#000000;stroke-width:0.509253;stroke-linecap:butt;stroke-linejoin:miter;stroke-miterlimit:10;stroke-dasharray:2.03701, 2.03701;stroke-dashoffset:0;stroke-opacity:1"
         transform="matrix(0.88443339,0,0,-0.88702268,-23.442393,182.88413)"
         clip-path="url(#clipPath409-7)"
         id="path30-3"
         sodipodi:nodetypes="cc" />
      <path
         style="fill:none;fill-opacity:1;stroke:#cf007f;stroke-width:1.04641;stroke-dasharray:none;stroke-opacity:1;marker-end:url(#ArrowTriangleStylized-2)"
         d="M 75.093342,263.8924 89.490454,236.18705"
         id="path254-4" />
      <path
         d="m 26.174,-91.477 v 48.348 L 54.613,-71.57 v -48.344"
         style="fill:none;stroke:#12304d;stroke-width:0.947931;stroke-linecap:round;stroke-linejoin:round;stroke-miterlimit:10;stroke-dasharray:none;stroke-opacity:1"
         transform="matrix(0.92742935,0,0,-0.93014451,24.556283,152.42016)"
         clip-path="url(#clipPath397-1)"
         id="path15-6" />
      <path
         d="m 111.49,-91.477 23.0095,-22.96932"
         style="display:inline;fill:none;stroke:#000000;stroke-width:0.564912;stroke-linecap:butt;stroke-linejoin:miter;stroke-miterlimit:10;stroke-dasharray:2.25964, 2.25964;stroke-dashoffset:0;stroke-opacity:1"
         transform="matrix(0.79729209,0,0,-0.79962627,39.043493,164.33768)"
         clip-path="url(#clipPath409-0)"
         id="path30-5"
         sodipodi:nodetypes="cc" />
      <path
         d="M 156.99,-20.379 139.928,-28.91"
         style="fill:none;stroke:#000000;stroke-width:0.473966;stroke-linecap:butt;stroke-linejoin:miter;stroke-miterlimit:10;stroke-dasharray:1.89586, 1.89586;stroke-dashoffset:0;stroke-opacity:1"
         transform="matrix(0.92742935,0,0,-0.93014451,24.556283,152.42016)"
         clip-path="url(#clipPath407-1)"
         id="path39-6" />
      <path
         d="m 156.99,-68.727 -17.062,-8.531"
         style="fill:none;stroke:#000000;stroke-width:0.473966;stroke-linecap:butt;stroke-linejoin:miter;stroke-miterlimit:10;stroke-dasharray:1.89586, 1.89586;stroke-dashoffset:0;stroke-opacity:1"
         transform="matrix(0.92742935,0,0,-0.93014451,24.556283,152.42016)"
         clip-path="url(#clipPath405-6)"
         id="path44-7" />
      <g
         id="g18"
         transform="matrix(0.45105899,0,0,0.45105899,12.357291,48.089735)">
        <path
           d="M 151.301,-23.223 V -71.57"
           style="fill:none;stroke:#000000;stroke-width:0.473966;stroke-linecap:butt;stroke-linejoin:miter;stroke-miterlimit:10;stroke-dasharray:none;stroke-opacity:1"
           transform="matrix(2.0561154,0,0,-2.0073291,17.615125,238.65678)"
           clip-path="url(#clipPath435-5)"
           id="path45-6" />
        <path
           d="m 149.405,-28.66 1.896,4.742 1.896,-4.742"
           style="fill:none;stroke:#000000;stroke-width:0.473966;stroke-linecap:butt;stroke-linejoin:miter;stroke-miterlimit:10;stroke-dasharray:none;stroke-opacity:1"
           transform="matrix(2.0561154,0,0,-2.0621349,17.624808,235.47783)"
           clip-path="url(#clipPath411-0)"
           id="path49-7" />
        <path
           d="m 153.197,-66.133 -1.896,-4.742 -1.896,4.742"
           style="fill:none;stroke:#000000;stroke-width:0.473966;stroke-linecap:butt;stroke-linejoin:miter;stroke-miterlimit:10;stroke-dasharray:none;stroke-opacity:1"
           transform="matrix(2.0561154,0,0,-2.0621349,17.615125,236.88343)"
           clip-path="url(#clipPath402-5)"
           id="path52-7" />
      </g>
      <path
         style="fill:none;fill-opacity:1;stroke:#c31b31;stroke-width:0.586377;stroke-dasharray:0.586377, 1.17275;stroke-dashoffset:0;stroke-opacity:1"
         d="m 101.60367,184.62641 -0.0249,26.29674 26.24307,26.31897 v -26.31896"
         id="path383-6" />
      <path
         d="M 71.676,-9.2495813 92.145124,-29.965855"
         style="fill:none;stroke:#c31b31;stroke-width:0.582772;stroke-linecap:butt;stroke-linejoin:miter;stroke-miterlimit:10;stroke-dasharray:0.582772, 0.582772;stroke-dashoffset:0;stroke-opacity:1"
         transform="matrix(0.92742935,0,0,-0.93014451,24.556283,152.42016)"
         clip-path="url(#clipPath401-8)"
         id="path74-2"
         sodipodi:nodetypes="cc" />
      <path
         d="M 71.676,-9.2495813 92.145124,-29.965855"
         style="fill:none;stroke:#c31b31;stroke-width:0.582772;stroke-linecap:butt;stroke-linejoin:miter;stroke-miterlimit:10;stroke-dasharray:0.582772, 0.582772;stroke-dashoffset:0;stroke-opacity:1"
         transform="matrix(0.92742935,0,0,-0.93014451,16.585191,157.19317)"
         clip-path="url(#clipPath391-20)"
         id="path74-0-7"
         sodipodi:nodetypes="cc" />
      <g
         id="g21"
         transform="matrix(0.45105899,0,0,0.45105899,16.610823,45.873824)">
        <path
           d="M 117.178,-60.195 V -88.633"
           style="fill:none;stroke:#000000;stroke-width:0.479317;stroke-linecap:butt;stroke-linejoin:miter;stroke-miterlimit:10;stroke-dasharray:none;stroke-opacity:1"
           transform="matrix(2.0561154,0,0,-1.9105277,17.615125,247.22852)"
           clip-path="url(#clipPath437-0)"
           id="path79-6" />
        <path
           d="m 115.282,-65.629 1.896,4.742 1.896,-4.742"
           style="fill:none;stroke:#000000;stroke-width:0.473966;stroke-linecap:butt;stroke-linejoin:miter;stroke-miterlimit:10;stroke-dasharray:none;stroke-opacity:1"
           transform="matrix(2.0561154,0,0,-2.0621349,17.615125,236.21375)"
           clip-path="url(#clipPath415-7)"
           id="path84-5" />
        <path
           d="m 119.074,-83.195 -1.896,-4.743 -1.896,4.743"
           style="fill:none;stroke:#000000;stroke-width:0.473966;stroke-linecap:butt;stroke-linejoin:miter;stroke-miterlimit:10;stroke-dasharray:none;stroke-opacity:1"
           transform="matrix(2.0561154,0,0,-2.0621349,17.615125,236.21375)"
           clip-path="url(#clipPath422-56)"
           id="path87-1" />
      </g>
      <path
         d="m 44.764325,-50.24 35.34217,-34.711925"
         style="fill:none;stroke:#c31b31;stroke-width:0.565504;stroke-linecap:butt;stroke-linejoin:miter;stroke-miterlimit:10;stroke-dasharray:0.565504, 0.565504;stroke-dashoffset:0;stroke-opacity:1"
         transform="matrix(0.95574881,0,0,-0.9585469,42.901911,170.87604)"
         clip-path="url(#clipPath421-7)"
         id="path143-5"
         sodipodi:nodetypes="cc" />
      <path
         d="m 26.174,-91.477 85.316,42.661 28.438,-28.442"
         style="fill:none;stroke:#12304d;stroke-width:0.947931;stroke-linecap:round;stroke-linejoin:round;stroke-miterlimit:10;stroke-dasharray:3.79172;stroke-dashoffset:0;stroke-opacity:1"
         transform="matrix(0.92742935,0,0,-0.93014451,24.556283,152.42016)"
         clip-path="url(#clipPath416-79)"
         id="path172-2" />
      <path
         d="m 111.49,-91.477 v 28.438 L 92.145125,-29.965855 65.99,-71.57 l 45.5,-19.907"
         style="display:inline;fill:url(#linearGradient1);fill-opacity:1;fill-rule:evenodd;stroke:#12304d;stroke-width:0.75228;stroke-linecap:round;stroke-linejoin:round;stroke-miterlimit:10;stroke-dasharray:none;stroke-opacity:1"
         transform="matrix(0.92742935,0,0,-0.93014451,24.556283,152.42016)"
         clip-path="url(#clipPath379-2)"
         id="path175-6"
         sodipodi:nodetypes="ccccc" />
      <path
         style="fill:none;fill-opacity:1;stroke:#12304d;stroke-width:0.451059;stroke-dasharray:0.451059, 0.451059;stroke-dashoffset:0;stroke-opacity:1"
         d="M 127.95538,214.9382 107.55325,184.21902"
         id="path375-5"
         sodipodi:nodetypes="cc" />
      <path
         style="fill:none;fill-opacity:1;stroke:#12304d;stroke-width:0.451059;stroke-dasharray:0.451059, 0.451059;stroke-dashoffset:0;stroke-opacity:1"
         d="M 127.95538,218.90482 101.58021,193.49024"
         id="path376-3"
         sodipodi:nodetypes="cc" />
      <path
         style="fill:none;fill-opacity:1;stroke:#12304d;stroke-width:0.451059;stroke-dasharray:0.451059, 0.451059;stroke-dashoffset:0;stroke-opacity:1"
         d="M 127.95538,224.28126 96.613407,201.67164"
         id="path377-2"
         sodipodi:nodetypes="cc" />
      <path
         style="fill:none;fill-opacity:1;stroke:#12304d;stroke-width:0.451059;stroke-dasharray:0.451059, 0.451059;stroke-dashoffset:0;stroke-opacity:1"
         d="M 128.03634,228.95472 91.7561,209.42063"
         id="path378-4"
         sodipodi:nodetypes="cc" />
      <path
         d="m 26.174,-91.477 28.439,-28.437 85.315,42.656"
         style="fill:none;stroke:#12304d;stroke-width:0.947931;stroke-linecap:round;stroke-linejoin:round;stroke-miterlimit:10;stroke-dasharray:none;stroke-opacity:1"
         transform="matrix(0.92742935,0,0,-0.93014451,24.556283,152.42016)"
         clip-path="url(#clipPath418-6)"
         id="path178-4" />
      <path
         d="m 54.613,-71.57 85.315,42.66"
         style="fill:none;stroke:#137f6d;stroke-width:0.947931;stroke-linecap:round;stroke-linejoin:round;stroke-miterlimit:10;stroke-dasharray:none;stroke-opacity:1"
         transform="matrix(0.92742935,0,0,-0.93014451,24.556283,152.42016)"
         clip-path="url(#clipPath419-1)"
         id="path181-4" />
      <path
         style="fill:none;fill-opacity:1;stroke:#e6710a;stroke-width:1.04641;stroke-dasharray:none;stroke-opacity:1;marker-end:url(#ArrowTriangleStylized-2)"
         d="m 48.844957,192.39698 -3.41e-4,-20.62694"
         id="path258-7" />
      <path
         id="path192-9"
         d="m 71.897,86.219 16.372,16.414"
         style="fill:#ffffff;fill-opacity:1;fill-rule:nonzero;stroke:#000000;stroke-width:0.470567;stroke-linecap:butt;stroke-linejoin:miter;stroke-miterlimit:4;stroke-dasharray:1.41169, 1.41169;stroke-dashoffset:0;stroke-opacity:1"
         transform="matrix(0.92742935,0,0,0.93014444,24.556283,152.42016)"
         clip-path="url(#clipPath193-2-2)" />
      <path
         id="path194-2"
         d="m 72.121,86.41 -33.5,16.934"
         style="fill:#ffffff;fill-opacity:1;fill-rule:nonzero;stroke:#000000;stroke-width:0.469942;stroke-linecap:butt;stroke-linejoin:miter;stroke-miterlimit:4;stroke-dasharray:1.40983, 1.40983;stroke-dashoffset:0;stroke-opacity:1"
         transform="matrix(0.92742935,0,0,0.93014444,24.556283,152.42016)"
         clip-path="url(#clipPath195-9-0)" />
      <path
         id="path210-3"
         d="m 35.787951,167.61329 c -1.416609,0.35253 -2.441628,1.8389 -2.441628,3.13924 0,1.19152 0.796201,1.86029 1.690071,1.86029 1.307782,0 2.201653,-1.80541 2.201653,-3.29178 0,-0.99526 -0.468794,-1.62031 -0.752485,-1.98028 -0.402758,-0.52274 -1.067811,-1.38778 -1.067811,-1.9254 0,-0.18603 0.141381,-0.52368 0.631569,-0.52368 0.338573,0 0.556226,0.13116 0.883638,0.31626 0.09766,0.0651 0.359038,0.20742 0.501348,0.20742 0.239976,0 0.402755,-0.22881 0.402755,-0.40369 0,-0.21765 -0.162779,-0.2502 -0.555297,-0.33764 -0.523672,-0.10882 -0.676218,-0.10882 -0.872477,-0.10882 -0.185098,0 -1.275227,0 -1.275227,1.13663 0,0.54507 0.283691,1.18129 0.653891,1.91145 z m 0.119992,0.21766 c 0.425072,0.8762 0.588777,1.21756 0.588777,1.93656 0,0.87619 -0.457632,2.62766 -1.450097,2.62766 -0.435306,0 -1.056641,-0.29858 -1.056641,-1.33755 0,-0.719 0.413915,-2.83043 1.917961,-3.22667 z"
         style="fill:#e6710a;fill-opacity:1;fill-rule:nonzero;stroke:none;stroke-width:0.930147;stroke-opacity:1" />
      <path
         id="path211-7"
         d="m 41.790174,168.99363 h -0.70784 l -3.139238,5.15951 h 0.610174 l 0.893866,-1.47521 h 2.245373 l 0.272531,1.47521 h 0.773882 z m -0.185102,3.24527 h -1.896563 c 0.392522,-0.64366 1.384054,-2.30768 1.526368,-2.66766 z"
         style="fill:#e6710a;fill-opacity:1;fill-rule:nonzero;stroke:none;stroke-width:0.930147;stroke-opacity:1" />
      <path
         id="path233-3"
         d="m 39.85624,194.75289 c -0.362779,0.6102 -0.72645,0.74134 -1.133862,0.77015 -0.116271,0.0132 -0.202755,0.0132 -0.202755,0.18879 0,0.0614 0.05774,0.1052 0.130252,0.1052 0.247313,0 0.537608,-0.0287 0.785028,-0.0287 0.319987,0 0.639963,0.0287 0.930153,0.0287 0.05854,0 0.174807,0 0.174807,-0.17771 0,-0.1023 -0.07356,-0.11628 -0.146067,-0.11628 -0.202755,-0.0158 -0.435305,-0.0875 -0.435305,-0.31994 0,-0.11629 0.05774,-0.21753 0.130243,-0.34881 l 0.712498,-1.18036 h 2.329093 c 0.01319,0.18878 0.145014,1.4566 0.145014,1.54404 0,0.27626 -0.479974,0.30507 -0.66878,0.30507 -0.130249,0 -0.217523,0 -0.217523,0.18879 0,0.1052 0.101251,0.1052 0.130248,0.1052 0.378574,0 0.771084,-0.0287 1.148728,-0.0287 0.23255,0 0.828744,0.0287 1.061298,0.0287 0.04271,0 0.158987,0 0.158987,-0.19248 0,-0.10124 -0.08648,-0.10124 -0.217521,-0.10124 -0.566454,0 -0.566454,-0.0585 -0.596222,-0.33485 L 43.5081,189.38624 c -0.01584,-0.18878 -0.01584,-0.23255 -0.174012,-0.23255 -0.146074,0 -0.189843,0.0725 -0.247321,0.16004 z m 1.11896,-1.37382 1.820272,-3.07412 0.306038,3.07412 z"
         style="fill:#000000;fill-opacity:1;fill-rule:nonzero;stroke:none;stroke-width:0.930147" />
      <path
         id="path234-1"
         d="m 82.015934,227.61995 c -0.08754,0.36644 -0.116273,0.43901 -0.842691,0.43901 -0.160044,0 -0.247315,0 -0.247315,0.18986 0,0.10148 0.08753,0.10148 0.247315,0.10148 h 3.316881 c 1.468706,0 2.557897,-1.09386 2.557897,-2.0128 0,-0.66878 -0.537636,-1.21014 -1.43799,-1.31154 0.958965,-0.17479 1.932833,-0.8613 1.932833,-1.75147 0,-0.68272 -0.611117,-1.28267 -1.715179,-1.28267 h -3.128099 c -0.174807,0 -0.262344,0 -0.262344,0.19251 0,0.10149 0.08754,0.10149 0.262344,0.10149 0.01317,0 0.188782,0 0.348827,0.0158 0.160044,0.0289 0.250216,0.0289 0.250216,0.16003 0,0.0289 -0.01317,0.0577 -0.02873,0.17402 z m 1.398946,-2.68163 0.581348,-2.30397 c 0.08754,-0.31903 0.102304,-0.3488 0.493896,-0.3488 h 1.206389 c 0.813872,0 1.002708,0.5525 1.002708,0.95989 0,0.81759 -0.799006,1.69288 -1.917961,1.69288 z m -0.410211,3.12064 c -0.131041,0 -0.146066,0 -0.203811,0 -0.101245,-0.0131 -0.131042,-0.0289 -0.131042,-0.10153 0,-0.0289 0,-0.0437 0.05853,-0.20379 l 0.642733,-2.59791 h 1.744023 c 0.88644,0 1.076196,0.68736 1.076196,1.07988 0,0.91903 -0.828771,1.82313 -1.933785,1.82313 z"
         style="fill:#000000;fill-opacity:1;fill-rule:nonzero;stroke:none;stroke-width:0.930147" />
      <path
         id="path235-5"
         d="m 115.18963,171.58652 c 0,-0.0287 -0.0132,-0.10151 -0.10151,-0.10151 -0.0287,0 -0.0437,0.0131 -0.14501,0.11627 l -0.63993,0.71529 c -0.0875,-0.13025 -0.50879,-0.83154 -1.54032,-0.83154 -2.07796,0 -4.15683,2.05654 -4.15683,4.21447 0,1.52917 1.09014,2.55046 2.51418,2.55046 0.79993,0 1.5115,-0.3637 2.00632,-0.80272 0.85666,-0.75621 1.01666,-1.60262 1.01666,-1.63147 0,-0.10151 -0.10125,-0.10151 -0.11629,-0.10151 -0.0577,0 -0.1015,0.0287 -0.11626,0.10151 -0.0865,0.26129 -0.30509,0.93387 -0.9441,1.47148 -0.63994,0.51253 -1.22129,0.6725 -1.70031,0.6725 -0.82875,0 -1.81751,-0.48366 -1.81751,-1.92632 0,-0.53764 0.18983,-2.04168 1.11991,-3.13551 0.56646,-0.65391 1.43799,-1.12271 2.26676,-1.12271 0.94503,0 1.49661,0.71622 1.49661,1.79518 0,0.37764 -0.0287,0.37764 -0.0287,0.47998 0,0.0865 0.1023,0.0865 0.13104,0.0865 0.11627,0 0.11627,-0.0132 0.17402,-0.18878 z"
         style="fill:#000000;fill-opacity:1;fill-rule:nonzero;stroke:none;stroke-width:0.930147" />
      <path
         id="path236-7"
         d="m 76.804358,269.29839 c 0,-1.50032 -0.988735,-2.50676 -2.372809,-2.50676 -1.991444,0 -4.040528,2.11425 -4.040528,4.28335 0,1.54776 1.046398,2.48163 2.383932,2.48163 1.9654,0 4.029405,-2.04172 4.029405,-4.25822 z m -3.985661,4.00802 c -0.9162,0 -1.555215,-0.74136 -1.555215,-1.9654 0,-0.42508 0.130252,-1.78033 0.842718,-2.86021 0.639935,-0.97668 1.540321,-1.45661 2.281632,-1.45661 0.759931,0 1.587755,0.52278 1.587755,1.91141 0,0.66789 -0.246522,2.11055 -1.162677,3.26206 -0.453919,0.57113 -1.210105,1.10875 -1.994213,1.10875 z"
         style="fill:#000000;fill-opacity:1;fill-rule:nonzero;stroke:none;stroke-width:0.930147" />
      <path
         id="path246-1"
         d="m 90.985344,241.85542 c 0,-0.21777 -0.188782,-0.46509 -0.46508,-0.46509 -0.26129,0 -0.465074,0.20383 -0.465074,0.46509 0,0.26234 0.203817,0.46504 0.465074,0.46504 0.276245,0 0.46508,-0.2465 0.46508,-0.46504 z m 1.787741,0 c 0,-0.2613 -0.20381,-0.46509 -0.465074,-0.46509 -0.276271,0 -0.46508,0.24732 -0.46508,0.46509 0,0.21858 0.188782,0.46504 0.46508,0.46504 0.26129,0 0.465074,-0.20275 0.465074,-0.46504 z"
         style="fill:#cf007f;fill-opacity:1;fill-rule:nonzero;stroke:none;stroke-width:0.930147;stroke-opacity:1" />
      <path
         id="path247-15"
         d="m 92.507967,247.07354 v 0.73013 l 1.641726,-0.0585 v -0.43532 c -0.566479,0 -0.639019,0 -0.639019,-0.36734 v -3.38295 l -1.686362,0.0725 v 0.44001 c 0.567406,0 0.639947,0 0.639947,0.3636 v 1.78037 c 0,0.75525 -0.47995,1.25381 -1.148735,1.25381 -0.726442,0 -0.755261,-0.23622 -0.755261,-0.74506 v -3.16526 l -1.689157,0.0725 v 0.43995 c 0.566453,0 0.639013,0 0.639013,0.3637 v 2.17279 c 0,0.99156 0.74506,1.19526 1.675188,1.19526 0.232543,0 0.901328,0 1.32266,-0.73017 z"
         style="fill:#cf007f;fill-opacity:1;fill-rule:nonzero;stroke:none;stroke-width:0.930147;stroke-opacity:1" />
      <path
         id="path248-9"
         d="m 97.717716,247.06979 c 0,-0.71623 -0.08754,-1.23892 -0.377643,-1.69282 -0.203817,-0.29116 -0.610168,-0.55254 -1.118963,-0.55254 -1.515191,0 -1.515191,1.77658 -1.515191,2.24536 0,0.46505 0,2.20167 1.515191,2.20167 1.496606,0 1.496606,-1.73662 1.496606,-2.20167 z m -1.496606,2.01286 c -0.308799,0 -0.701313,-0.17853 -0.832464,-0.70136 -0.08648,-0.37762 -0.08648,-0.91898 -0.08648,-1.39891 0,-0.48272 0,-0.97758 0.08648,-1.32643 0.146074,-0.51155 0.55251,-0.65755 0.832464,-0.65755 0.348832,0 0.682734,0.21858 0.799009,0.59621 0.1023,0.3525 0.116275,0.81759 0.116275,1.38777 0,0.47993 0,0.96269 -0.08648,1.37009 -0.131039,0.59526 -0.567373,0.73018 -0.828768,0.73018 z"
         style="fill:#cf007f;fill-opacity:1;fill-rule:nonzero;stroke:none;stroke-width:0.930147;stroke-opacity:1" />
      <path
         d="m 200.74004,170.36226 c 0.0145,-0.0436 0.0291,-0.10173 0.0291,-0.15986 0,-0.15987 -0.10173,-0.24707 -0.26159,-0.24707 -0.0872,0 -0.34882,0.0581 -0.37788,0.3924 -0.1744,-0.33427 -0.49413,-0.58133 -0.87201,-0.58133 -1.04641,0 -2.19456,1.29347 -2.19456,2.63055 0,0.91561 0.55228,1.46788 1.22082,1.46788 0.55226,0 0.98828,-0.436 1.07547,-0.53774 l 0.0145,0.0145 c -0.18892,0.81388 -0.3052,1.20629 -0.3052,1.22082 -0.0436,0.0872 -0.3488,1.00281 -1.33708,1.00281 -0.17439,0 -0.4796,-0.0145 -0.7412,-0.10173 0.27614,-0.0727 0.37787,-0.31974 0.37787,-0.47961 0,-0.14533 -0.10173,-0.31974 -0.3488,-0.31974 -0.20348,0 -0.49415,0.15987 -0.49415,0.53774 0,0.37787 0.33428,0.56681 1.22082,0.56681 1.16267,0 1.83122,-0.72667 1.97655,-1.27895 z m -1.19173,2.31083 c -0.0581,0.24706 -0.27614,0.47961 -0.47962,0.654 -0.18893,0.15987 -0.4796,0.33428 -0.75573,0.33428 -0.46508,0 -0.59588,-0.47961 -0.59588,-0.85748 0,-0.436 0.26161,-1.54055 0.5232,-2.00562 0.24707,-0.45054 0.63948,-0.82841 1.03189,-0.82841 0.6104,0 0.7412,0.75574 0.7412,0.79934 0,0.0436 -0.0145,0.10174 -0.0291,0.1308 z m 0,0"
         id="path8327-5"
         style="fill:#000000;fill-opacity:1;stroke-width:0.93014" />
      <path
         d="m 189.17558,213.48408 c 0.61041,0 1.22082,-0.0581 1.61322,-0.18895 0.78481,-0.26161 0.91562,-0.79936 0.91562,-1.09002 0,-0.53774 -0.50868,-0.88654 -1.27895,-0.88654 -1.67136,0 -2.86311,1.14815 -2.86311,2.58698 0,1.07546 0.71215,1.67135 1.94749,1.67135 0.23254,0 0.87202,-0.0145 1.42428,-0.21804 0.53775,-0.21795 0.91562,-0.59585 0.91562,-0.71213 0,-0.0727 -0.14533,-0.23253 -0.23253,-0.23253 -0.0581,0 -0.0727,0.0289 -0.14533,0.10172 -0.49415,0.52323 -1.22083,0.7267 -1.93297,0.7267 -0.66854,0 -0.91561,-0.36333 -0.91561,-0.90108 0,-0.17442 0.0436,-0.47961 0.14533,-0.85746 z m -0.33427,-0.33428 c 0.17441,-0.68308 0.39241,-0.93015 0.55227,-1.07549 0.31974,-0.31974 0.75575,-0.42147 1.03189,-0.42147 0.33426,0 0.72668,0.14534 0.72668,0.56681 0,0.93015 -1.40976,0.93015 -2.31084,0.93015 z m 0,0"
         id="path2298-0"
         style="fill:#000000;fill-opacity:1;stroke-width:0.930147" />
      <path
         d="m 193.85573,216.21078 c -0.0581,0.21799 -0.27614,0.5668 -0.61041,0.5668 -0.0145,0 -0.21801,0 -0.3488,-0.0872 0.2616,-0.0872 0.29066,-0.31976 0.29066,-0.36333 0,-0.14533 -0.11626,-0.23257 -0.2616,-0.23257 -0.18893,0 -0.37787,0.14538 -0.37787,0.39242 0,0.31976 0.36334,0.46509 0.68307,0.46509 0.30521,0 0.56681,-0.17442 0.72668,-0.45056 0.15987,0.33428 0.50868,0.45056 0.77028,0.45056 0.75574,0 1.14815,-0.79937 1.14815,-0.98827 0,-0.0872 -0.0872,-0.0872 -0.10173,-0.0872 -0.10174,0 -0.10174,0.0437 -0.13081,0.11629 -0.1308,0.45051 -0.52321,0.7848 -0.88655,0.7848 -0.2616,0 -0.3924,-0.17438 -0.3924,-0.42147 0,-0.17438 0.15987,-0.75575 0.33427,-1.48241 0.13081,-0.49413 0.42147,-0.65403 0.63948,-0.65403 0.0145,0 0.20347,0 0.3488,0.0872 -0.20347,0.0581 -0.29067,0.24704 -0.29067,0.36333 0,0.13081 0.11627,0.23252 0.26161,0.23252 0.14533,0 0.36333,-0.11624 0.36333,-0.39238 0,-0.36332 -0.42147,-0.47961 -0.66854,-0.47961 -0.33427,0 -0.59587,0.218 -0.72667,0.46504 -0.11628,-0.26157 -0.42147,-0.46504 -0.78482,-0.46504 -0.72667,0 -1.13361,0.79932 -1.13361,1.0028 0,0.0727 0.0872,0.0727 0.10174,0.0727 0.0872,0 0.0872,-0.0145 0.1308,-0.10171 0.15987,-0.50871 0.56681,-0.78484 0.88654,-0.78484 0.21801,0 0.3924,0.11628 0.3924,0.42151 0,0.13081 -0.0872,0.45052 -0.14533,0.68304 z m 0,0"
         id="path9960-6"
         style="fill:#000000;fill-opacity:1;stroke-width:0.930147" />
      <path
         d="m 22.313809,223.82583 c 0.610408,0 1.220817,-0.0581 1.613224,-0.18891 0.78481,-0.26161 0.91561,-0.79936 0.91561,-1.09003 0,-0.53775 -0.508674,-0.88655 -1.278952,-0.88655 -1.671354,0 -2.863099,1.14817 -2.863099,2.587 0,1.07546 0.712144,1.67135 1.947486,1.67135 0.232538,0 0.872016,-0.0144 1.424287,-0.21804 0.537739,-0.218 0.915614,-0.59585 0.915614,-0.71213 0,-0.0727 -0.145336,-0.23252 -0.232538,-0.23252 -0.05814,0 -0.07267,0.0289 -0.145337,0.10171 -0.494137,0.52323 -1.220813,0.7267 -1.932953,0.7267 -0.668543,0 -0.915614,-0.36332 -0.915614,-0.90108 0,-0.17442 0.0436,-0.47961 0.145336,-0.8575 z m -0.33427,-0.33424 c 0.174405,-0.68308 0.392403,-0.93017 0.552276,-1.07551 0.319732,-0.31971 0.75574,-0.42147 1.031876,-0.42147 0.33427,0 0.726677,0.14533 0.726677,0.56681 0,0.93017 -1.409752,0.93017 -2.310829,0.93017 z m 0,0"
         id="path3461-4"
         style="fill:#000000;fill-opacity:1;stroke-width:0.930147" />
      <path
         d="m 28.985039,224.79402 c 0.02907,-0.0872 0.02907,-0.10175 0.02907,-0.14533 0,-0.1308 -0.101731,-0.20347 -0.218002,-0.20347 -0.07267,0 -0.188933,0.0289 -0.261603,0.14533 -0.02907,0.0437 -0.07267,0.24709 -0.101735,0.37785 l -0.145336,0.53775 c -0.02907,0.15986 -0.232535,0.97375 -0.261603,1.04642 0,0 -0.290668,0.5668 -0.78481,0.5668 -0.450537,0 -0.450537,-0.42147 -0.450537,-0.53775 0,-0.34881 0.145336,-0.75571 0.348806,-1.26442 0.07267,-0.20347 0.101731,-0.27614 0.101731,-0.39237 0,-0.30523 -0.261604,-0.55227 -0.610405,-0.55227 -0.65401,0 -0.944678,0.88651 -0.944678,1.00279 0,0.0727 0.0872,0.0727 0.116267,0.0727 0.0872,0 0.0872,-0.0289 0.116267,-0.10171 0.159868,-0.53775 0.436008,-0.78484 0.697611,-0.78484 0.101731,0 0.159865,0.0727 0.159865,0.21804 0,0.15985 -0.05814,0.29066 -0.0872,0.37785 -0.319736,0.79932 -0.37787,1.03189 -0.37787,1.32255 0,0.10172 0,0.40694 0.247071,0.62494 0.203465,0.15986 0.479605,0.18895 0.654006,0.18895 0.261603,0 0.494137,-0.0872 0.697608,-0.2907 -0.07267,0.36337 -0.145337,0.63951 -0.421473,0.95922 -0.1744,0.20347 -0.436003,0.40694 -0.784809,0.40694 -0.0436,0 -0.348802,0 -0.479606,-0.20347 0.348806,-0.0437 0.348806,-0.3488 0.348806,-0.36333 0,-0.20348 -0.188938,-0.24709 -0.24707,-0.24709 -0.159869,0 -0.377871,0.13081 -0.377871,0.43604 0,0.31971 0.3052,0.5668 0.770273,0.5668 0.65401,0 1.453353,-0.50866 1.656823,-1.32255 z m 0,0"
         id="path9468-5"
         style="fill:#000000;fill-opacity:1;stroke-width:0.930147" />
      <path
         d="m 80.852301,205.12937 c 0.61041,0 1.220814,-0.0581 1.613222,-0.18893 0.784807,-0.26161 0.915613,-0.79934 0.915613,-1.09002 0,-0.53774 -0.508672,-0.88654 -1.278951,-0.88654 -1.671353,0 -2.863105,1.14815 -2.863105,2.58697 0,1.07548 0.712145,1.67135 1.947492,1.67135 0.232539,0 0.87201,-0.0145 1.424287,-0.21801 0.537739,-0.218 0.915609,-0.59586 0.915609,-0.71213 0,-0.0727 -0.145332,-0.23254 -0.232535,-0.23254 -0.05814,0 -0.07267,0.0291 -0.145335,0.10173 -0.49414,0.52321 -1.220814,0.72668 -1.93296,0.72668 -0.668537,0 -0.915609,-0.36334 -0.915609,-0.90108 0,-0.1744 0.04362,-0.4796 0.145336,-0.85748 z m -0.33427,-0.33427 c 0.174402,-0.68307 0.392407,-0.93014 0.552276,-1.07548 0.319733,-0.31974 0.755741,-0.42147 1.031878,-0.42147 0.334272,0 0.726675,0.14533 0.726675,0.56681 0,0.93014 -1.409749,0.93014 -2.310829,0.93014 z m 0,0"
         id="path5140-3"
         style="fill:#000000;fill-opacity:1;stroke-width:0.930147" />
      <path
         d="m 85.009234,207.97236 c 0.174406,-0.1744 0.290671,-0.29067 0.828415,-0.74121 0.145331,-0.10173 0.624937,-0.49413 0.813878,-0.66854 0.392403,-0.3924 0.63947,-0.72668 0.63947,-0.79934 0,-0.0872 -0.07267,-0.0872 -0.101732,-0.0872 -0.05813,0 -0.0872,0.0145 -0.116269,0.0727 -0.203468,0.29067 -0.334271,0.39241 -0.49414,0.39241 -0.07267,0 -0.174402,0 -0.363337,-0.18894 -0.218006,-0.23253 -0.363337,-0.27613 -0.508673,-0.27613 -0.523206,0 -0.87201,0.56681 -0.87201,0.75574 0,0.0727 0.05813,0.0872 0.101732,0.0872 0.0872,0 0.101732,-0.0145 0.11627,-0.0872 0.101731,-0.23253 0.465069,-0.24706 0.566805,-0.24706 0.159869,0 0.319738,0.0436 0.406937,0.0581 0.363341,0.0727 0.40694,0.0727 0.566809,0.0727 -0.159869,0.18893 -0.276134,0.3052 -0.901076,0.78481 -0.508673,0.40693 -0.683079,0.56681 -0.799344,0.69761 -0.392408,0.37787 -0.581338,0.66854 -0.581338,0.72668 0,0.0727 0.0872,0.0727 0.116265,0.0727 0.05813,0 0.07267,0 0.101732,-0.0581 0.174406,-0.24708 0.377874,-0.39241 0.595875,-0.39241 0.0872,0 0.174402,0 0.348804,0.15986 0.203473,0.20348 0.334271,0.29068 0.552273,0.29068 0.683079,0 1.119086,-0.78481 1.119086,-1.00282 0,-0.0727 -0.07267,-0.0727 -0.101736,-0.0727 -0.0872,0 -0.101737,0.0291 -0.130803,0.10173 -0.116269,0.31974 -0.49414,0.4796 -0.813878,0.4796 -0.145335,0 -0.319737,-0.0436 -0.479606,-0.0727 -0.290667,-0.0727 -0.348804,-0.0727 -0.465074,-0.0727 -0.01457,0 -0.101731,0 -0.145335,0.0146 z m 0,0"
         id="path8512-0"
         style="fill:#000000;fill-opacity:1;stroke-width:0.930147" />
      <path
         d="m 124.42714,266.06177 c 0,0 0,-0.10172 -0.11627,-0.10172 -0.14533,0 -1.01734,0.0872 -1.17721,0.10172 -0.0727,0.0145 -0.13081,0.0581 -0.13081,0.17442 0,0.11624 0.0872,0.11624 0.21801,0.11624 0.45054,0 0.46507,0.0581 0.46507,0.1599 l -0.0291,0.18895 -0.55227,2.19454 c -0.17441,-0.34885 -0.43601,-0.5959 -0.85748,-0.5959 -1.07548,0 -2.22363,1.36618 -2.22363,2.71777 0,0.87203 0.50868,1.4824 1.22081,1.4824 0.18894,0 0.65402,-0.0437 1.20628,-0.69755 0.0727,0.39242 0.40695,0.69755 0.84295,0.69755 0.33427,0 0.53775,-0.21799 0.69761,-0.50865 0.14533,-0.33428 0.27613,-0.90108 0.27613,-0.91561 0,-0.10171 -0.0872,-0.10171 -0.11626,-0.10171 -0.0872,0 -0.10174,0.0437 -0.13081,0.17438 -0.15986,0.59589 -0.31973,1.14816 -0.6976,1.14816 -0.26161,0 -0.27614,-0.24708 -0.27614,-0.4215 0,-0.23248 0.0146,-0.29067 0.0436,-0.45052 z m -1.91842,5.23206 c -0.0581,0.17442 -0.0581,0.18895 -0.18894,0.34885 -0.40694,0.50865 -0.78481,0.65398 -1.04642,0.65398 -0.46506,0 -0.59587,-0.50865 -0.59587,-0.87202 0,-0.46509 0.29068,-1.59869 0.50867,-2.03468 0.29068,-0.53776 0.69763,-0.88652 1.07549,-0.88652 0.59587,0 0.72667,0.75571 0.72667,0.81385 0,0.0581 -0.0145,0.11624 -0.0291,0.15985 z m 0,0"
         id="path9090-9"
         style="fill:#000000;fill-opacity:1;stroke-width:0.930147" />
      <path
         d="m 137.55883,221.37346 c 0.27614,0 0.95921,-0.0289 1.42428,-0.218 0.65401,-0.27613 0.6976,-0.82841 0.6976,-0.95922 0,-0.40694 -0.3488,-0.7848 -0.98827,-0.7848 -1.03188,0 -2.44163,0.90109 -2.44163,2.52882 0,0.9447 0.55227,1.67136 1.46788,1.67136 1.32256,0 2.09283,-0.98827 2.09283,-1.08999 0,-0.0581 -0.0436,-0.13081 -0.10173,-0.13081 -0.0581,0 -0.0727,0.0289 -0.1308,0.10172 -0.72668,0.9156 -1.74402,0.9156 -1.84576,0.9156 -0.72668,0 -0.81388,-0.78479 -0.81388,-1.07545 0,-0.11629 0.0145,-0.39243 0.14533,-0.95923 z m -0.43601,-0.20347 c 0.36334,-1.40974 1.32255,-1.55507 1.56962,-1.55507 0.42148,0 0.68308,0.27614 0.68308,0.58132 0,0.97375 -1.48242,0.97375 -1.87482,0.97375 z m 0,0"
         id="path247-1-3"
         style="fill:#000000;fill-opacity:1;stroke-width:0.930147" />
      <path
         d="m 166.24022,196.56874 c 0,0 0,-0.10173 -0.11627,-0.10173 -0.218,0 -0.88654,0.0727 -1.13361,0.10173 -0.0727,0 -0.1744,0.0146 -0.1744,0.17441 0,0.11627 0.0872,0.11627 0.218,0.11627 0.45054,0 0.46507,0.0581 0.46507,0.15986 l -0.0291,0.18894 -1.33708,5.3338 c -0.0436,0.1308 -0.0436,0.14533 -0.0436,0.20347 0,0.218 0.18893,0.2616 0.27613,0.2616 0.14534,0 0.29067,-0.11626 0.33427,-0.24707 l 0.17441,-0.6976 0.20346,-0.82842 c 0.0581,-0.21799 0.11627,-0.42147 0.15988,-0.62494 0.0145,-0.0581 0.10173,-0.36334 0.10173,-0.42147 0.0291,-0.0872 0.31974,-0.59587 0.63947,-0.85747 0.20347,-0.14534 0.47961,-0.31975 0.88655,-0.31975 0.39241,0 0.49414,0.31975 0.49414,0.65402 0,0.49413 -0.34881,1.51148 -0.56681,2.07829 -0.0727,0.20347 -0.1308,0.31974 -0.1308,0.50867 0,0.436 0.33427,0.75574 0.77027,0.75574 0.87201,0 1.20628,-1.35161 1.20628,-1.42428 0,-0.10174 -0.0727,-0.10174 -0.10173,-0.10174 -0.10173,0 -0.10173,0.0291 -0.14532,0.17441 -0.13081,0.49413 -0.43602,1.14815 -0.94468,1.14815 -0.15987,0 -0.21801,-0.0872 -0.21801,-0.30521 0,-0.23254 0.0727,-0.45053 0.15986,-0.65401 0.14534,-0.40693 0.56681,-1.51148 0.56681,-2.04922 0,-0.59588 -0.36333,-0.98828 -1.06094,-0.98828 -0.58135,0 -1.03188,0.29067 -1.38068,0.71214 z m 0,0"
         id="path9493-47"
         style="fill:#000000;fill-opacity:1;stroke-width:0.930147" />
      <path
         style="fill:none;stroke:#c31b31;stroke-width:0.541271;stroke-dasharray:none;stroke-opacity:1;marker-end:url(#ArrowWide-1)"
         d="m 85.067466,167.93494 8.151061,-4.06014"
         id="path124-4"
         sodipodi:nodetypes="cc" />
      <path
         style="fill:none;stroke:#c31b31;stroke-width:0.541271;stroke-dasharray:none;stroke-opacity:1;marker-end:url(#marker128-1)"
         d="m 132.22729,241.58145 -15.20224,7.64793"
         id="path127-6" />
      <path
         d="m 127.41409,249.19176 c 0.0581,-0.23257 0.27614,-1.09003 0.91562,-1.09003 0.0436,0 0.27613,0 0.46507,0.11628 -0.26161,0.0581 -0.436,0.27614 -0.436,0.50866 0,0.14533 0.10173,0.31976 0.3488,0.31976 0.20347,0 0.49414,-0.15991 0.49414,-0.53776 0,-0.47961 -0.53774,-0.61042 -0.85748,-0.61042 -0.53774,0 -0.85747,0.49414 -0.97374,0.69761 -0.23255,-0.61041 -0.72668,-0.69761 -1.00281,-0.69761 -0.95922,0 -1.49697,1.19175 -1.49697,1.42431 0,0.10172 0.10174,0.10172 0.11628,0.10172 0.0727,0 0.10173,-0.0289 0.11627,-0.10172 0.31973,-0.98831 0.93014,-1.22083 1.24988,-1.22083 0.1744,0 0.49414,0.0872 0.49414,0.62494 0,0.29066 -0.15988,0.90108 -0.49414,2.20911 -0.14534,0.5668 -0.47961,0.95922 -0.88655,0.95922 -0.0581,0 -0.2616,0 -0.46507,-0.11629 0.23254,-0.0581 0.43601,-0.24704 0.43601,-0.50865 0,-0.24709 -0.20347,-0.31976 -0.33427,-0.31976 -0.29068,0 -0.50868,0.23252 -0.50868,0.53775 0,0.42147 0.45055,0.61038 0.85748,0.61038 0.62494,0 0.95921,-0.65399 0.97375,-0.69761 0.11626,0.33428 0.45054,0.69761 1.00281,0.69761 0.95921,0 1.48242,-1.1917 1.48242,-1.42427 0,-0.10171 -0.0727,-0.10171 -0.10174,-0.10171 -0.0872,0 -0.10173,0.0437 -0.1308,0.10171 -0.3052,1.00285 -0.93015,1.22084 -1.22081,1.22084 -0.36334,0 -0.50868,-0.29066 -0.50868,-0.61046 0,-0.20343 0.0436,-0.40691 0.14534,-0.81385 z m 0,0"
         id="path3245-3"
         style="fill:#d10000;fill-opacity:1;stroke:#c31b31;stroke-width:0;stroke-opacity:1" />
      <path
         d="m 131.92554,248.9536 v 0.23256 c 0.436,0 0.4796,0.0581 0.4796,0.36333 v 1.3516 c -0.23254,-0.23252 -0.55227,-0.37785 -0.90107,-0.37785 -0.87201,0 -1.58415,0.65403 -1.58415,1.46788 0,0.81389 0.68307,1.45336 1.49695,1.45336 0.53773,0 0.85747,-0.27614 0.95921,-0.39242 v 0.39242 l 1.00281,-0.0581 v -0.23252 c -0.43601,0 -0.47961,-0.0437 -0.47961,-0.36337 v -3.90955 z m 0.45053,3.7497 c -0.15987,0.30519 -0.49414,0.56675 -0.91561,0.56675 -0.36334,0 -0.62494,-0.21799 -0.75575,-0.4069 -0.13079,-0.18895 -0.20346,-0.45056 -0.20346,-0.8575 0,-0.15986 0,-0.63947 0.2616,-0.94466 0.26161,-0.29066 0.58134,-0.3488 0.77028,-0.3488 0.30521,0 0.59587,0.14533 0.77028,0.37785 0.0727,0.10176 0.0727,0.10176 0.0727,0.23256 z m 0,0"
         id="path1944-6"
         style="fill:#d10000;fill-opacity:1;stroke:#c31b31;stroke-width:0;stroke-opacity:1" />
      <path
         d="m 86.30634,160.09786 v 0.23254 c 0.436007,0 0.479606,0.0436 0.479606,0.36334 v 1.11908 c 0,0.5668 -0.363336,0.95921 -0.857476,0.95921 -0.581339,0 -0.610409,-0.27614 -0.610409,-0.61041 v -2.13642 l -1.002813,0.0727 v 0.23254 c 0.49414,0 0.49414,0.029 0.49414,0.59587 v 0.97375 c 0,0.45054 0,1.04641 1.075482,1.04641 0.145336,0 0.610409,0 0.930143,-0.53774 v 0.53774 l 0.973743,-0.0581 v -0.23253 c -0.436005,0 -0.479604,-0.0436 -0.479604,-0.36334 v -2.26723 z m 0,0"
         id="path8812-2"
         style="fill:#d10000;fill-opacity:1;stroke:#c31b31;stroke-width:0;stroke-opacity:1" />
      <path
         style="fill:none;fill-opacity:1;stroke:#12304d;stroke-width:0.344718;stroke-dasharray:0.344718, 0.344718;stroke-dashoffset:0;stroke-opacity:1"
         d="m 48.583775,211.09651 26.375165,26.45423 79.12362,-39.67996 -26.37423,-26.45051 z"
         id="path373-8" />
      <path
         style="fill:none;fill-opacity:1;stroke:#12304d;stroke-width:0.451059;stroke-dasharray:0.451059, 0.451059;stroke-dashoffset:0;stroke-opacity:1"
         d="M 128.11805,232.59888 87.82669,215.68932"
         id="path381-1"
         sodipodi:nodetypes="cc" />
      <path
         style="fill:none;fill-opacity:1;stroke:#c31b31;stroke-width:0.586377;stroke-dasharray:0.586377, 1.17275;stroke-dashoffset:0;stroke-opacity:1"
         d="m 101.60526,184.62641 26.35014,26.42913"
         id="path384-0" />
      <g
         id="g23"
         transform="matrix(0.45105899,0,0,0.45105899,16.610823,45.873824)">
        <path
           d="m 111.49,-97.922 5.053,0.442 -3.349,-3.79"
           style="fill:none;stroke:#000000;stroke-width:0.473966;stroke-linecap:butt;stroke-linejoin:miter;stroke-miterlimit:10;stroke-dasharray:none;stroke-opacity:1"
           transform="matrix(2.0561154,0,0,-2.0621349,40.969367,258.88109)"
           clip-path="url(#clipPath395-6)"
           id="path21-0" />
        <path
           d="m 65.99,-124.844 -5.058,-0.441 3.349,3.793"
           style="fill:none;stroke:#000000;stroke-width:0.473966;stroke-linecap:butt;stroke-linejoin:miter;stroke-miterlimit:10;stroke-dasharray:none;stroke-opacity:1"
           transform="matrix(2.0561154,0,0,-2.0621349,40.431585,259.12255)"
           clip-path="url(#clipPath394-0)"
           id="path24-3" />
        <path
           style="fill:none;stroke:#000000;stroke-width:0.95;stroke-dasharray:none;stroke-dashoffset:0;stroke-opacity:1"
           d="M 166.86654,516.91671 280.42486,459.97234"
           id="path3" />
      </g>
      <path
         style="fill:#137f6d;fill-opacity:0.488746;stroke:#137f6d;stroke-width:0.880612;stroke-linecap:butt;stroke-linejoin:round;stroke-dasharray:none;stroke-opacity:1"
         d="M 75.205982,218.9906 48.830818,192.53636"
         id="path66" />
      <path
         d="m 28.117,43.129 c 0,1.117 -0.906,2.023 -2.019,2.023 -1.114,0 -2.016,-0.906 -2.016,-2.023 0,-1.113 0.902,-2.02 2.016,-2.02 1.113,0 2.019,0.907 2.019,2.02"
         style="fill:#e6710a;fill-opacity:1;fill-rule:evenodd;stroke:#e6710a;stroke-opacity:1"
         transform="matrix(0.93014451,0,0,0.93014451,24.556283,152.42016)"
         clip-path="url(#clipPath417-5)"
         id="path187-2" />
    </g>
  </g>
</svg>
